<svg viewBox="0 0 293 270" preserveAspectRatio="xMidYMid meet" fill="none" xmlns="http://www.w3.org/2000/svg">
<path d="M12.1816 133.318C12.2604 133.353 12.379 133.43 12.5352 133.571C12.8467 133.854 13.2403 134.333 13.7002 135.035C16.2443 138.918 21.1073 143.856 26.4141 148.305C31.7226 152.755 37.5324 156.763 41.9961 158.758C57.7859 165.815 68.1307 166.696 107.354 164.481C164.667 161.245 196.342 168.91 221.059 191.792C232.535 202.417 238.77 211.857 239.959 220.347C241.14 228.779 237.357 236.409 228.437 243.485C221.268 249.172 207.894 256.329 197.27 261C191.953 263.337 187.371 265.031 184.621 265.614C183.935 265.76 183.386 265.831 182.979 265.832C182.573 265.833 182.413 265.761 182.371 265.731C182.371 265.705 182.378 265.643 182.423 265.534C182.528 265.277 182.785 264.896 183.263 264.374C187.387 259.872 189.047 255.273 188.324 250.764C187.604 246.274 184.539 241.994 179.473 238.074C169.345 230.24 150.997 223.669 126.201 219.625C88.3377 213.451 73.995 209.246 56.9189 199.38C37.6878 188.267 26.8684 174.948 16.9922 150.152C16.625 149.231 16.2469 148.502 15.8877 147.985C15.7084 147.727 15.5254 147.51 15.3408 147.346C15.1633 147.188 14.9448 147.044 14.6943 147.002C14.4061 146.953 14.1328 147.051 13.9375 147.269C13.7674 147.458 13.6823 147.71 13.6377 147.954C13.5473 148.449 13.5819 149.153 13.7393 150.038C14.047 151.768 15.0459 155.211 16.1191 158.498C17.1898 161.777 18.3631 164.988 19.0312 166.235C19.582 167.264 20.4612 169.421 20.9727 171.011C21.8484 173.733 22.8232 175.583 27.623 183.727C41.4226 207.137 68.0304 228.919 94.3955 238.401C98.223 239.778 102.57 241.354 104.058 241.903V241.904C106.132 242.671 111.133 243.905 116.242 245.006C121.357 246.108 126.65 247.091 129.318 247.349C137.475 248.135 143.426 250.544 146.466 253.654C147.976 255.2 148.752 256.899 148.764 258.656C148.775 260.417 148.02 262.313 146.318 264.251C142.472 268.632 135.309 270.144 126.165 269.257C117.052 268.373 106.12 265.118 94.9277 260.165C72.5319 250.254 49.2337 233.606 37.4922 215.793C36.7792 214.711 35.0142 212.176 33.5693 210.156C32.0063 207.971 29.0553 202.704 26.3135 197.418C23.7398 192.456 21.3894 187.554 20.5586 185.229L20.4131 184.799C20.14 183.936 19.8228 183.062 19.5303 182.348C19.3842 181.991 19.2426 181.67 19.1143 181.407C18.9908 181.155 18.8644 180.924 18.7461 180.773H18.7451C18.6812 180.691 18.5589 180.454 18.3867 180.018C18.2221 179.6 18.0311 179.051 17.8213 178.395C17.4021 177.083 16.9145 175.366 16.416 173.463C15.4187 169.656 14.3845 165.129 13.7793 161.659C13.259 158.678 12.5151 154.787 12.0088 152.377L11.8076 151.441C11.1489 148.471 11.1533 146.46 11.8428 142.955C12.1011 141.642 12.2768 140.141 12.3525 138.78C12.4277 137.43 12.4068 136.174 12.2549 135.365C12.1061 134.572 12.0694 133.996 12.1074 133.624C12.1232 133.47 12.1515 133.372 12.1748 133.315C12.177 133.316 12.1793 133.317 12.1816 133.318ZM40.5312 40.0615C42.4788 39.9793 43.978 40.1635 44.9824 40.5479C45.9825 40.9306 46.3896 41.4606 46.4258 42.0469C46.4659 42.6967 46.0773 43.6313 44.9531 44.8447C42.4638 47.5315 40.5683 49.6003 39.1855 51.2783C37.8071 52.9512 36.9059 54.2734 36.4355 55.4678C35.9542 56.6902 35.9283 57.7674 36.2617 58.9199C36.5854 60.0387 37.2478 61.225 38.1016 62.6729C56.6934 94.2084 84.3965 114.983 114.227 119.659C116.11 119.954 119.564 120.704 121.891 121.322C135.915 125.05 160.425 125.88 190.886 123.692C210.757 122.265 222.859 122.472 231.344 124.353C234.714 125.099 238.156 125.975 240.863 126.75C242.217 127.138 243.383 127.498 244.262 127.804C244.701 127.957 245.064 128.094 245.34 128.212C245.63 128.336 245.784 128.422 245.839 128.465L245.84 128.466C245.99 128.582 246.219 128.708 246.471 128.831C246.733 128.959 247.054 129.101 247.411 129.248C248.125 129.542 248.998 129.861 249.861 130.137C256.023 132.107 265.777 138.118 274.443 144.672C278.768 147.942 282.804 151.334 285.966 154.403C289.147 157.491 291.386 160.198 292.191 162.101C292.339 162.449 292.441 162.989 292.481 163.72C292.521 164.441 292.498 165.312 292.417 166.298C292.256 168.27 291.867 170.671 291.314 173.199C290.207 178.263 288.454 183.777 286.595 187.34V187.341C286.294 187.918 286.021 188.554 285.821 189.119C285.654 189.595 285.52 190.07 285.487 190.425L285.479 190.569C285.48 190.553 285.476 190.606 285.422 190.782C285.374 190.937 285.301 191.144 285.203 191.398C285.008 191.907 284.724 192.586 284.371 193.389C283.666 194.993 282.692 197.074 281.62 199.245C275.234 212.18 270.953 219.681 266.578 224.032C262.256 228.331 257.824 229.571 250.994 229.854C249.217 229.927 247.901 229.916 246.997 229.78C246.545 229.713 246.229 229.618 246.02 229.509C245.818 229.404 245.743 229.301 245.711 229.215C245.676 229.121 245.662 228.961 245.746 228.689C245.83 228.417 246 228.074 246.274 227.646C246.824 226.788 247.737 225.68 249.015 224.253C252.678 220.163 255.125 216.949 256.354 214.553C256.966 213.358 257.303 212.315 257.301 211.438C257.298 210.523 256.919 209.797 256.166 209.331C256.177 209.338 256.156 209.325 256.1 209.264C256.048 209.208 255.984 209.131 255.907 209.03C255.755 208.829 255.57 208.554 255.364 208.225C254.953 207.566 254.475 206.708 254.031 205.814C242.859 183.307 218.658 163.108 192.554 154.469C162.957 144.674 145.053 143.358 92.375 147.044C58.5579 149.41 32.6447 139.946 8.87695 116.556C3.38802 111.154 0.8378 108.574 0.53125 104.441C0.37632 102.352 0.795401 99.8305 1.79102 96.3096C2.78566 92.7921 4.34035 88.3278 6.42383 82.3604C9.68204 73.0281 14.795 63.0953 19.96 55.291C22.5423 51.389 25.1297 48.0306 27.4961 45.5498C28.6794 44.3094 29.8012 43.2955 30.832 42.5439C31.8671 41.7893 32.7861 41.3174 33.5674 41.1299C36.2448 40.4877 38.5925 40.1434 40.5312 40.0615ZM156.923 0.931641C160.118 0.270616 164.468 0.385492 169.541 1.15918C174.605 1.93155 180.352 3.35541 186.322 5.28418C198.266 9.14267 211.064 15.0108 221.027 21.6904C223.954 23.6527 227.543 26.0599 229.002 27.0391V27.0381C229.84 27.6012 231.506 29.0213 233.593 30.9131C235.668 32.7948 238.133 35.1173 240.555 37.4639C242.976 39.8105 245.353 42.1785 247.253 44.1494C249.166 46.1342 250.562 47.6825 251.057 48.4072C251.963 49.7366 254.62 53.4066 256.959 56.5615C262.201 63.6324 266.9 72.1654 273.237 86.1523C274.985 90.0098 277.057 97.5454 278.701 105.287C280.344 113.026 281.543 120.89 281.569 125.396C281.586 128.377 281.689 132.209 281.799 133.915C281.862 134.899 281.798 135.615 281.656 136.082C281.512 136.558 281.33 136.662 281.234 136.683C281.106 136.711 280.825 136.67 280.36 136.297C279.969 135.983 279.513 135.484 279.01 134.78L278.792 134.466C277.5 132.558 274.399 129.163 271.079 125.851C267.754 122.533 264.158 119.246 261.854 117.559C255.379 112.82 243.927 107.929 235.415 106.26C228.063 104.819 223.253 104.086 216.179 104.041C209.123 103.996 199.815 104.634 183.464 105.92C177.98 106.351 169.455 106.576 161.49 106.589C153.515 106.602 146.149 106.402 142.965 105.988C133.293 104.732 121.701 102.738 118.291 101.752C93.7307 94.6459 82.7531 88.8396 69.5342 76.0244C60.7728 67.5307 55.5439 59.0217 53.9287 51.2588C52.3193 43.5229 54.2879 36.4982 59.9941 30.8799L59.9951 30.8809C63.1962 27.7296 68.6546 23.9137 74.8867 20.1455C81.1099 16.3827 88.0727 12.6862 94.2588 9.77148C100.46 6.84982 105.836 4.73477 108.902 4.10547C109.668 3.94828 110.254 3.89183 110.656 3.92383C110.857 3.93977 110.984 3.97577 111.059 4.01172C111.094 4.02875 111.113 4.04354 111.121 4.05176C111.129 4.05903 111.13 4.06417 111.132 4.06738C111.141 4.08813 111.183 4.26579 110.905 4.74609C110.645 5.19517 110.173 5.78907 109.441 6.54395C105.13 10.9926 103.367 15.5118 104.149 19.9482C104.927 24.3605 108.199 28.5483 113.627 32.4053C124.482 40.1187 144.248 46.719 171.434 51.2422C202.425 56.3984 216.429 60.2901 230.447 67.6006C252.306 78.9995 265.189 93.0731 274.325 115.526C275.177 117.619 275.893 119.294 276.478 120.551C277.055 121.793 277.522 122.669 277.875 123.131C277.965 123.249 278.063 123.359 278.168 123.445C278.261 123.521 278.428 123.636 278.65 123.636C278.924 123.635 279.104 123.466 279.194 123.313C279.275 123.178 279.31 123.025 279.328 122.897C279.366 122.634 279.359 122.28 279.325 121.861C279.29 121.434 279.224 120.908 279.128 120.288C278.447 115.902 276.175 109.108 273.333 102.311C270.489 95.507 267.051 88.644 264.015 84.1201H264.014C256.821 73.4075 254.391 70.3597 247.349 63.2432C231.381 47.107 212.641 35.7223 190.998 29.0098C188.286 28.1685 185.359 27.2488 183.529 26.6631L182.113 26.2041L181.634 26.0596C180.329 25.6984 177.742 25.1614 174.091 24.4824C169.9 23.7032 164.268 22.7313 157.469 21.6172C148.665 20.1745 144.441 15.7709 144.33 11.5381C144.219 7.30851 148.204 2.73648 156.923 0.931641Z" fill="currentColor" stroke="currentColor"/>
</svg>
