<svg xmlns="http://www.w3.org/2000/svg" xmlns:xlink="http://www.w3.org/1999/xlink" viewBox="0 0 471.86 233.3"><defs><style>.cls-1{fill:#1c3063;}.cls-2{fill:none;}.cls-3{fill:url(#未命名的渐变_15);}.cls-4{fill:url(#未命名的渐变_15-2);}.cls-5{fill:url(#未命名的渐变_15-3);}.cls-6{fill:url(#未命名的渐变_15-4);}.cls-7{fill:url(#未命名的渐变_15-5);}.cls-8{fill:url(#未命名的渐变_15-6);}.cls-9{fill:url(#未命名的渐变_15-7);}.cls-10{fill:url(#未命名的渐变_15-8);}.cls-11{fill:url(#未命名的渐变_14);}.cls-12{fill:url(#未命名的渐变_14-2);}.cls-13{fill:#ec681f;}</style><linearGradient id="未命名的渐变_15" x1="189.58" y1="93.76" x2="373.48" y2="93.76" gradientUnits="userSpaceOnUse"><stop offset="0" stop-color="#1b3063"/><stop offset="0.15" stop-color="#2b437c" stop-opacity="0.82"/><stop offset="0.57" stop-color="#4967ab" stop-opacity="0.5"/><stop offset="1" stop-color="#4967ab" stop-opacity="0"/></linearGradient><linearGradient id="未命名的渐变_15-2" x1="190.06" y1="224.34" x2="372.16" y2="224.34" xlink:href="#未命名的渐变_15"/><linearGradient id="未命名的渐变_15-3" x1="205.26" y1="211.46" x2="369.03" y2="211.46" xlink:href="#未命名的渐变_15"/><linearGradient id="未命名的渐变_15-4" x1="204.79" y1="96.51" x2="370.28" y2="96.51" xlink:href="#未命名的渐变_15"/><linearGradient id="未命名的渐变_15-5" x1="219.37" y1="99.17" x2="367.09" y2="99.17" xlink:href="#未命名的渐变_15"/><linearGradient id="未命名的渐变_15-6" x1="219.78" y1="198.02" x2="366.09" y2="198.02" xlink:href="#未命名的渐变_15"/><linearGradient id="未命名的渐变_15-7" x1="234.42" y1="101.84" x2="363.78" y2="101.84" xlink:href="#未命名的渐变_15"/><linearGradient id="未命名的渐变_15-8" x1="234.94" y1="182.1" x2="362.65" y2="182.1" xlink:href="#未命名的渐变_15"/><linearGradient id="未命名的渐变_14" x1="251.01" y1="165.81" x2="353.99" y2="165.81" gradientUnits="userSpaceOnUse"><stop offset="0" stop-color="#1b3063"/><stop offset="0.32" stop-color="#385391" stop-opacity="0.81"/><stop offset="0.61" stop-color="#4967ab" stop-opacity="0.7"/><stop offset="1" stop-color="#4967ab" stop-opacity="0"/></linearGradient><linearGradient id="未命名的渐变_14-2" x1="249.5" y1="104.37" x2="356.75" y2="104.37" xlink:href="#未命名的渐变_14"/></defs><title>资源 1</title><g id="图层_2" data-name="图层 2"><g id="图层_3" data-name="图层 3"><polygon class="cls-1" points="43.46 20.12 102.95 20.06 87.67 93.27 149.05 20.12 209.02 20.21 135.08 108.33 178.78 228.4 119.2 228.4 81.16 124.45 59.48 228.4 0 228.4 43.46 20.12"/><path class="cls-2" d="M236.43,116c4.37-17.41,15.39-32.93,31-43.71,23.38-16.12,53-18.46,75.45-6A57.46,57.46,0,0,1,348.74,70l6.8-4.54a62.59,62.59,0,0,0-7.68-5.13C323.05,46.55,290.15,49.26,264,67.26,246.5,79.35,234.16,96.7,229.29,116.1a68.13,68.13,0,0,0-.14,33.83l6.8-4.55A62.72,62.72,0,0,1,236.43,116Z"/><path class="cls-2" d="M275.56,187.36l-5.94,5.57c18.83,6.5,41.18,5.27,61.52-4.67l1.61-7.73a76.4,76.4,0,0,1-37.05,9.86A67.93,67.93,0,0,1,275.56,187.36Z"/><path class="cls-2" d="M251,117.67a59.35,59.35,0,0,1,24.22-34.13c18.26-12.59,41.41-14.41,59-4.62.22.12.42.27.64.4l7-4.66c-.88-.56-1.75-1.13-2.67-1.64-19.91-11.09-46.34-8.91-67.32,5.56-14.1,9.72-24,23.66-27.93,39.24a55.72,55.72,0,0,0-1,22.93l7-4.67A50.21,50.21,0,0,1,251,117.67Z"/><path class="cls-2" d="M297.51,176.07a56.19,56.19,0,0,1-6.48-.38c-.86-.11-1.69-.29-2.54-.43l-6.31,5.91c16.82,3.83,36.2.39,52.73-11l1.9-9.09a66.06,66.06,0,0,1-5.26,4.1A60.18,60.18,0,0,1,297.51,176.07Z"/><path class="cls-2" d="M279.63,89.88a51.59,51.59,0,0,0-21.12,29.67,42.75,42.75,0,0,0-1.28,11.62l70.34-47C313,77.53,294.49,79.63,279.63,89.88Z"/><path class="cls-2" d="M295.92,168.31a52.12,52.12,0,0,0,31.25-9.47,53.94,53.94,0,0,0,12.64-12.16l5.05-24.18Z"/><path class="cls-2" d="M263.31,198.83l-5.66,5.3c20.8,9,46.07,9.46,70.12.26l1.42-6.81a91.8,91.8,0,0,1-35.1,7.11A82,82,0,0,1,263.31,198.83Z"/><path class="cls-2" d="M256.44,56.24c-36,24.83-51.57,67.25-40.4,102.44l6.36-4.25a75.3,75.3,0,0,1-.58-40.21c5.32-21.22,18.76-40.15,37.84-53.3,28.51-19.66,64.6-22.51,91.95-7.28a70.88,70.88,0,0,1,6.72,4.29l1.8-10.45c-1.18-.75-2.37-1.5-3.6-2.18C327,28.82,287.54,34.8,256.44,56.24Z"/><path class="cls-2" d="M248.55,44.81c-43.14,29.74-61.1,81.15-46,122.87l6.83-4.56C196,124.35,212.5,77.18,252.06,49.9c33.5-23.1,75.9-26.47,108-8.58.52.29,1,.62,1.53.92l1.65-7.91C329,16.24,284.2,20.23,248.55,44.81Z"/><path class="cls-2" d="M251.57,209.83l-5.95,5.56c22.93,11.32,51.23,13.52,78.82,5l1.49-7.14a106.72,106.72,0,0,1-33.68,5.56A94.66,94.66,0,0,1,251.57,209.83Z"/><path class="cls-3" d="M248.55,44.81C284.2,20.23,329.66,12.89,364,31l.94-4.46C328.35,8.27,281.5,12.73,244.18,38.46,197.49,70.65,178.54,126.83,196,172.08l6.6-4.4C187.45,126,205.41,74.55,248.55,44.81Z"/><path class="cls-4" d="M245.62,215.39l-6,5.58a108.64,108.64,0,0,0,50.9,12.33,121.87,121.87,0,0,0,32.08-4.36l1-4.6C296,232.88,268.55,226.71,245.62,215.39Z"/><path class="cls-5" d="M257.65,204.13l-6.08,5.7a94.66,94.66,0,0,0,40.68,9,106.72,106.72,0,0,0,33.68-5.56l1.05-5.07C302.93,217.37,278.45,213.09,257.65,204.13Z"/><path class="cls-6" d="M252.06,49.9C212.5,77.18,196,124.35,209.4,163.12l6.64-4.44c-11.17-35.19,4.39-77.61,40.4-102.44C287.54,34.8,327,28.82,356.53,45.3c1.23.68,2.42,1.43,3.6,2.18l1.48-5.24c-.52-.3-1-.63-1.53-.92C328,23.43,285.56,26.8,252.06,49.9Z"/><path class="cls-7" d="M357,63.14a69.17,69.17,0,0,0-8.21-5.34C323.93,44,290.15,49.26,264,67.26,246.5,79.35,234.16,96.7,229.29,116.1a68.13,68.13,0,0,0-.14,33.83l-6.75,4.5a75.3,75.3,0,0,1-.58-40.21c5.32-21.22,18.76-40.15,37.84-53.3,28.51-19.66,64.6-22.51,91.95-7.28a70.88,70.88,0,0,1,6.72,4.29Z"/><path class="cls-8" d="M269.62,192.93l-6.31,5.9a82,82,0,0,0,30.78,5.86,91.8,91.8,0,0,0,35.1-7.11l1.3-6.23C310.16,201.29,288.45,199.43,269.62,192.93Z"/><path class="cls-9" d="M243.91,117.82c3.91-15.58,13.83-29.52,27.93-39.24,21-14.47,48.93-17.83,68.85-6.74.92.51,1.78,1.08,2.66,1.65L348.74,70a57.46,57.46,0,0,0-5.83-3.76c-22.45-12.5-52.07-10.16-75.45,6C251.82,83,240.8,98.54,236.43,116a62.72,62.72,0,0,0-.48,29.43l6.93-4.63A55.72,55.72,0,0,1,243.91,117.82Z"/><path class="cls-10" d="M282.18,181.17l-6.62,6.19a67.93,67.93,0,0,0,20.14,3,76.4,76.4,0,0,0,37.05-9.86l1.4-6.72C317.62,185.19,299,185,282.18,181.17Z"/><path class="cls-11" d="M326.55,163.12c-9.49,6.54-19.83,5.55-30.63,5.19l-7.43,6.95c.85.14,1.68.32,2.54.43a56.19,56.19,0,0,0,6.48.38,60.18,60.18,0,0,0,34-10.88,66.06,66.06,0,0,0,5.26-4.1l1-5.55Z"/><path class="cls-12" d="M334.22,78.92c-17.56-9.79-40.71-8-59,4.62A59.35,59.35,0,0,0,251,117.67a50.21,50.21,0,0,0-1.15,18.41l7.35-4.91a42.75,42.75,0,0,1,1.28-11.62,51.59,51.59,0,0,1,21.12-29.67c14.86-10.25,36.23-14.29,50.85-7.64l4.38-2.92C334.64,79.19,334.44,79,334.22,78.92Z"/><path class="cls-13" d="M433.59,30.2c0-.94,0-1.82-.08-2.7a3.62,3.62,0,0,0-1.46-2.67,42.9,42.9,0,0,1-3.26-3.07c-.1-.1,0-.56.13-.68a1.54,1.54,0,0,1,1.62-.4c.9.34,1.81.65,2.69,1.05a2.48,2.48,0,0,0,2.8-.36c2.07-1.62,4.19-3.17,6.28-4.75.27-.21.5-.48.88-.83-.39-.16-.64-.3-.91-.38-5.22-1.51-10.42-3.1-15.49-5.08a7.44,7.44,0,0,1-1.11-.67c.32-.31.63-.64,1-.94.48-.41,1-.8,1.46-1.21a3.53,3.53,0,0,1,3-.83c2.71.41,5.44.63,8.16,1,3.42.4,6.85.72,10.24,1.28a4.33,4.33,0,0,0,3.62-1,71.22,71.22,0,0,1,9.66-6,20.25,20.25,0,0,1,6.3-1.9,4.27,4.27,0,0,1,1.46.1,1.47,1.47,0,0,1,1.32,1.68,4.58,4.58,0,0,1-.47,1.67,14.64,14.64,0,0,1-4.43,4.93c-2.6,1.91-5.21,3.82-7.88,5.64a4,4,0,0,0-1.73,2.69c-.71,3.2-1.62,6.35-2.44,9.52-.7,2.72-1.41,5.43-2.06,8.17a3.2,3.2,0,0,1-1.61,2.17c-.77.43-1.52.91-2.27,1.39-.58.37-.79.28-.85-.38q-.5-5.79-1-11.56c-.12-1.47-.22-2.95-.36-4.41-.1-1-.18-1.08-1-.62-2,1-3.9,2.14-5.85,3.21-.92.51-1.87,1-2.77,1.52a1.54,1.54,0,0,0-.61.84c-.21.62-.3,1.27-.46,1.91C435.72,29.65,435.05,30.13,433.59,30.2Z"/><path class="cls-13" d="M391,53.19,200.72,182.54a88.63,88.63,0,0,0,5.32,8.74,90.27,90.27,0,0,0,25.19,24.5L395.65,59.16l33.4-31.82Z"/></g></g></svg>