<svg viewBox="0 0 270 270" preserveAspectRatio="xMidYMid meet" fill="none" xmlns="http://www.w3.org/2000/svg">
<path d="M166.414 128.71C166.815 128.618 167.193 128.681 167.584 128.821C167.962 128.957 168.393 129.183 168.904 129.458C169.636 129.851 170.242 130.323 170.682 131.066C171.114 131.798 171.357 132.746 171.46 134.038C171.665 136.606 171.329 140.748 170.585 147.773C168.157 170.706 166.625 184.991 165.646 193.687C165.156 198.034 164.803 200.987 164.546 202.927C164.417 203.896 164.312 204.616 164.225 205.133C164.14 205.632 164.065 205.983 163.989 206.181C163.611 207.171 162.718 207.855 161.65 208.208C160.578 208.563 159.282 208.604 157.986 208.278C157.604 208.182 157.154 208.097 156.79 207.949C156.384 207.784 156.023 207.525 155.753 207.056C155.497 206.61 155.343 206.007 155.258 205.19C155.173 204.368 155.154 203.286 155.203 201.852C155.398 196.126 156.665 184.481 159.219 160.409C160.214 151.032 161.272 140.944 161.57 137.991C161.987 133.863 162.54 132.032 164.047 130.521C164.555 130.01 164.967 129.604 165.323 129.311C165.68 129.017 166.027 128.798 166.414 128.71ZM107.059 79.75C112.064 77.7256 118.544 78.1925 123.91 80.9209C127.651 82.8231 130.385 85.4026 132.093 88.6963C133.799 91.9858 134.462 95.9482 134.131 100.586C133.917 103.588 133.414 105.79 132.467 107.249C131.987 107.989 131.39 108.541 130.664 108.904C130.146 109.164 129.575 109.318 128.954 109.386C129.876 109.6 130.745 110.092 131.441 110.864C131.814 111.278 132.102 111.71 132.255 112.542C132.399 113.33 132.424 114.483 132.328 116.348C132.136 120.088 131.447 126.869 130.107 139.731C129.334 147.153 128.586 154.052 128.004 159.189C127.713 161.758 127.463 163.888 127.271 165.422C127.176 166.189 127.096 166.809 127.031 167.262C126.97 167.692 126.918 168.019 126.877 168.156C126.325 170.013 125.083 171.33 123.624 171.858C122.153 172.391 120.501 172.106 119.233 170.835H119.232C118.76 170.361 118.441 169.684 118.234 168.784C118.028 167.884 117.927 166.722 117.92 165.233C117.905 162.256 118.268 157.88 118.998 151.493C119.606 146.17 120.709 135.213 121.448 127.146C121.996 121.173 122.398 117.419 122.81 115.014C123.216 112.639 123.644 111.455 124.34 110.757C125.115 109.979 126.06 109.506 127.038 109.334C126.638 109.264 126.269 109.151 125.934 108.982C125.283 108.656 124.795 108.144 124.453 107.439C123.791 106.077 123.662 103.964 123.833 100.941C123.966 98.5913 123.976 97.1353 123.798 96.0078C123.624 94.9072 123.267 94.1022 122.616 93.0654C120.698 90.0104 117.237 88.5894 113.895 88.7588C110.552 88.9284 107.42 90.6813 106.115 93.8711C106.07 93.9812 105.988 94.3238 105.877 94.9443C105.77 95.5415 105.645 96.3465 105.503 97.3369C105.22 99.3172 104.875 102.025 104.491 105.266C103.725 111.747 102.805 120.35 101.918 129.512C101.03 138.677 100.179 147.162 99.5234 153.449C99.1956 156.592 98.9157 159.187 98.7051 161.044C98.5998 161.972 98.5113 162.717 98.4424 163.255C98.408 163.523 98.3784 163.742 98.3535 163.907C98.3307 164.059 98.3073 164.198 98.2832 164.282C97.749 166.144 95.913 167.13 94.1123 167.278C92.3091 167.426 90.3114 166.756 89.3926 165.034C89.2906 164.843 89.2292 164.59 89.1865 164.322C89.1419 164.042 89.1111 163.697 89.0908 163.289C89.0502 162.472 89.0529 161.37 89.0986 159.978C89.1902 157.19 89.4546 153.202 89.8984 147.926C90.7863 137.37 92.3947 121.629 94.7861 99.96C95.4511 93.9365 96.4887 89.6895 98.3906 86.541C100.307 83.3687 103.069 81.3632 107.059 79.75ZM235.611 129.632C239.365 128.598 243.538 128.975 246.783 130.229C248.407 130.857 249.823 131.714 250.841 132.75C251.86 133.788 252.5 135.028 252.5 136.398C252.5 137.241 252.398 137.964 252.129 138.522C251.847 139.109 251.388 139.499 250.753 139.649C250.152 139.792 249.436 139.71 248.628 139.478C247.812 139.243 246.849 138.84 245.729 138.283C243.895 137.373 242.875 136.932 241.992 136.793C241.246 136.676 240.571 136.771 239.517 137.066L239.04 137.205C237.523 137.661 235.921 138.723 234.6 140.063C233.276 141.406 232.28 142.978 231.922 144.411C231.805 144.88 231.726 145.751 231.707 146.802C231.688 147.84 231.727 149.013 231.828 150.066L231.886 150.611C232.03 151.835 232.24 152.733 232.586 153.515C232.979 154.402 233.562 155.174 234.491 156.107C235.513 157.132 236.201 157.677 236.979 157.984C237.76 158.293 238.684 158.381 240.226 158.366C242.214 158.347 244.947 158.047 246.277 157.709C246.884 157.555 247.384 157.43 247.772 157.381C248.145 157.334 248.569 157.334 248.898 157.604C249.222 157.868 249.318 158.281 249.362 158.662C249.409 159.063 249.41 159.594 249.41 160.245C249.41 162.265 248.843 163.807 247.456 164.869C246.109 165.901 244.066 166.417 241.275 166.619C235.654 167.027 231.686 165.82 227.924 162.506H227.923C223.934 158.991 222.186 154.653 222.166 148.41C222.135 139.169 227.286 131.925 235.611 129.632ZM196.986 130.495C204.069 127.889 211.212 129.964 213.586 135.666C214.277 137.325 214.548 139.505 214.418 142.865C214.288 146.23 213.752 150.831 212.79 157.36C212.527 159.148 212.285 160.57 212.016 161.695C211.747 162.816 211.443 163.679 211.033 164.326C210.612 164.991 210.086 165.419 209.41 165.671C208.839 165.884 208.18 165.962 207.431 165.982L207.104 165.988C206.165 165.994 205.338 165.917 204.688 165.577C203.997 165.215 203.58 164.597 203.368 163.706C203.162 162.84 203.139 161.677 203.243 160.143C203.348 158.6 203.586 156.636 203.927 154.149C204.802 147.761 205.208 144.124 205.113 141.891C205.066 140.783 204.896 140.07 204.631 139.556C204.371 139.052 203.998 138.695 203.453 138.337C200.937 136.683 197.41 137.435 195.053 140.297L194.828 140.58C193.255 142.649 192.744 144.517 191.692 152.901C191.023 158.236 190.463 161.483 189.612 163.391C189.179 164.363 188.649 165.038 187.947 165.457C187.251 165.873 186.448 165.999 185.548 165.999C184.554 165.999 183.684 165.918 183.004 165.559C182.281 165.176 181.847 164.522 181.627 163.57C181.413 162.644 181.389 161.39 181.5 159.721C181.611 158.042 181.862 155.899 182.22 153.172C182.928 147.77 183.73 141.09 184.002 138.327V138.326C184.179 136.529 184.455 135.034 184.86 133.834C185.266 132.634 185.812 131.698 186.552 131.057C188.07 129.74 190.18 129.832 192.842 130.823C193.825 131.19 195.32 131.108 196.986 130.495ZM62.9912 129.747C65.7194 128.75 68.7619 128.773 71.4014 129.583C74.036 130.392 76.3259 132.004 77.4814 134.246C77.8461 134.954 78.1484 136.084 78.3613 137.324C78.5765 138.578 78.708 139.994 78.708 141.302C78.708 144.4 78.1679 149.708 77.499 154.387C77.1641 156.729 76.796 158.926 76.4434 160.621C76.2672 161.468 76.093 162.197 75.9277 162.76C75.8452 163.041 75.7631 163.288 75.6807 163.491C75.6026 163.683 75.5083 163.876 75.3916 164.017C74.9833 164.51 74.3362 164.819 73.6602 165.001C72.9721 165.186 72.1896 165.257 71.4375 165.226C70.6872 165.195 69.9391 165.061 69.3232 164.816C68.7259 164.579 68.154 164.196 67.9268 163.603C67.8711 163.457 67.8467 163.266 67.832 163.091C67.8159 162.898 67.8073 162.661 67.8047 162.389C67.7995 161.843 67.818 161.131 67.8555 160.302C67.9305 158.641 68.0821 156.488 68.2783 154.22C68.6702 149.689 69.2418 144.656 69.7363 142.126C70.1338 140.093 69.0645 138.49 67.3281 137.703C65.5789 136.911 63.1752 136.973 61.0605 138.363C59.6878 139.265 58.7498 140.397 57.9766 142.577C57.1913 144.792 56.5874 148.058 55.8926 153.209C55.5335 155.869 55.1184 158.4 54.7383 160.335C54.5484 161.302 54.3657 162.126 54.2021 162.746C54.1205 163.056 54.0417 163.322 53.9668 163.532C53.9164 163.674 53.8563 163.826 53.7812 163.953L53.7012 164.07C53.3419 164.515 52.7372 164.788 52.1152 164.953C51.4745 165.123 50.729 165.201 49.9941 165.195C49.2592 165.189 48.5124 165.099 47.8682 164.919C47.2411 164.744 46.6363 164.463 46.2705 164.021C46.1652 163.893 46.115 163.737 46.0869 163.628C46.055 163.504 46.0322 163.359 46.0156 163.205C45.9824 162.895 45.9689 162.496 45.9697 162.027C45.9713 161.088 46.0329 159.823 46.1396 158.348C46.3533 155.394 46.7499 151.561 47.2227 147.72C47.6954 143.878 48.2456 140.019 48.7656 137.012C49.0255 135.509 49.2785 134.211 49.5127 133.232C49.6296 132.744 49.7437 132.326 49.8535 131.999C49.9554 131.696 50.0758 131.399 50.2295 131.213L50.3154 131.115C50.7558 130.641 51.3747 130.39 52.208 130.287C53.0848 130.179 54.2631 130.226 55.8555 130.393C58.6476 130.685 61.0426 130.459 62.9912 129.747ZM34.7412 130.126C35.4973 130.146 36.2509 130.272 36.8721 130.515C37.4766 130.751 38.0507 131.137 38.2812 131.739C38.3568 131.937 38.3801 132.233 38.3906 132.529C38.4021 132.853 38.3984 133.266 38.3818 133.75C38.3487 134.719 38.2636 136.003 38.1406 137.491C37.8945 140.469 37.4938 144.286 37.041 148.084C36.5882 151.882 36.0833 155.667 35.627 158.582C35.3989 160.039 35.1817 161.284 34.9893 162.207C34.8932 162.668 34.8017 163.056 34.7158 163.354C34.6731 163.501 34.6295 163.634 34.585 163.746C34.5449 163.846 34.4876 163.973 34.4043 164.074C34.0433 164.512 33.4382 164.782 32.8164 164.947C32.176 165.117 31.4318 165.198 30.6982 165.196C29.9645 165.194 29.2194 165.109 28.5781 164.936C27.9552 164.767 27.3504 164.493 26.9883 164.056C26.7451 163.761 26.6313 163.306 26.5693 162.799C26.5041 162.265 26.4859 161.567 26.5098 160.695C26.5576 158.949 26.7771 156.442 27.1689 153.024C28.0998 144.907 28.7262 139.852 29.2412 136.679C29.4986 135.093 29.7305 133.961 29.9629 133.146C30.1933 132.339 30.4371 131.795 30.7441 131.424L30.9111 131.243C31.3248 130.84 31.8988 130.567 32.499 130.394C33.1949 130.192 33.9833 130.106 34.7412 130.126ZM146.207 131.322C147.716 129.002 151.068 128.733 153.045 130.716L153.208 130.897C153.576 131.352 153.855 132.004 154.049 132.718C154.275 133.549 154.403 134.528 154.402 135.524C154.401 138.381 153.847 144.519 153.191 150.119C152.863 152.924 152.507 155.605 152.181 157.687C152.018 158.727 151.861 159.622 151.718 160.311C151.646 160.654 151.576 160.951 151.51 161.191C151.446 161.421 151.377 161.634 151.296 161.785C150.636 163.022 149.604 163.811 148.39 164.059C147.258 164.29 146.02 164.04 144.844 163.333L144.609 163.186C144.129 162.87 143.696 162.586 143.372 162.224C143.026 161.836 142.823 161.382 142.718 160.756C142.616 160.15 142.604 159.362 142.645 158.289C142.685 157.21 142.782 155.804 142.91 153.95C143.343 147.701 143.85 142.549 144.399 138.725C144.674 136.813 144.961 135.225 145.256 133.995C145.546 132.784 145.857 131.86 146.207 131.322ZM36.667 106.865C38.1705 106.766 39.8607 107.151 40.7627 108.242L40.8496 108.358C41.0418 108.646 41.1661 109.034 41.2539 109.44C41.3584 109.924 41.4263 110.512 41.4648 111.161C41.5421 112.462 41.5033 114.06 41.373 115.678C41.2427 117.296 41.02 118.948 40.7256 120.358C40.4359 121.746 40.0631 122.969 39.6016 123.676C38.0184 126.1 34.7054 126.324 32.624 124.236C31.9936 123.604 31.6392 122.913 31.4941 121.752C31.3545 120.633 31.4044 119.043 31.5723 116.586C31.685 114.935 31.8872 113.246 32.123 111.853C32.2409 111.156 32.3682 110.528 32.498 110.013C32.6249 109.509 32.7635 109.074 32.915 108.79C33.2462 108.169 33.8223 107.714 34.4756 107.405C35.1317 107.095 35.8981 106.916 36.667 106.865ZM85.0635 99.9707C86.213 99.9865 87.2909 100.571 88.2295 101.611C88.5526 101.969 88.8211 102.331 89.0234 102.774C89.2255 103.217 89.3499 103.715 89.416 104.336C89.546 105.557 89.4576 107.333 89.2354 110.237C89.0662 112.445 88.8783 114.24 88.6348 115.684C88.392 117.123 88.0895 118.244 87.6797 119.09C87.2648 119.945 86.728 120.542 86.0146 120.888C85.3128 121.228 84.5009 121.296 83.5938 121.222C81.5952 121.057 80.1661 120.702 79.377 119.654C78.9822 119.13 78.7835 118.48 78.7109 117.709C78.6387 116.942 78.6887 116.022 78.8174 114.929C79.0592 112.874 79.4688 109.411 79.7275 107.233C79.8699 106.033 80.1451 104.855 80.499 103.861C80.8476 102.882 81.2919 102.025 81.8008 101.515C82.8054 100.507 83.9165 99.955 85.0635 99.9707Z" fill="currentColor" stroke="currentColor" stroke-width="2"/>
</svg>
