<svg viewBox="0 0 214 298" preserveAspectRatio="xMidYMid meet" fill="none" xmlns="http://www.w3.org/2000/svg">
<path d="M14.6143 238.939C15.333 238.825 16.0451 238.824 16.5801 238.943C40.0758 244.193 71.1664 248.534 99.873 251.082C128.566 253.628 154.934 254.389 168.966 252.459C172.615 251.957 174.87 252.381 175.998 253.339C177.055 254.237 177.286 255.78 176.393 258.066C175.504 260.341 173.552 263.182 170.562 266.415C167.58 269.641 163.588 273.231 158.654 277.002C118.615 307.605 60.3388 303.475 27.2461 267.729C20.5242 260.469 15.7602 253.991 13.2773 248.993C12.0337 246.49 11.3831 244.399 11.3174 242.79C11.2526 241.202 11.7534 240.149 12.7539 239.553C13.2205 239.274 13.8951 239.054 14.6143 238.939ZM209.31 152.993C210.439 152.937 211.281 153.076 211.894 153.375C213.047 153.938 213.608 155.197 213.482 157.607C213.357 160.008 212.554 163.351 211.221 167.761C202.957 195.086 189.522 212.756 166.545 222.8C143.519 232.865 110.851 235.301 64.0537 231.963C45.0068 230.605 30.2815 229.136 19.7939 227.483C14.5493 226.657 10.3773 225.787 7.25977 224.865C4.11754 223.936 2.12749 222.977 1.16406 222.021C0.695086 221.555 0.508096 221.129 0.5 220.737C0.491883 220.34 0.665123 219.877 1.12207 219.337C2.05178 218.238 3.99743 217.008 7.0498 215.659C13.1232 212.975 23.2831 209.942 37.4844 206.487C89.4403 193.85 156.367 173.065 191.798 158.562C197.435 156.255 201.818 154.622 205.142 153.739C206.803 153.298 208.182 153.049 209.31 152.993ZM205.232 0.510742C206.033 0.452455 206.739 0.628831 207.378 1.04785C208.025 1.47237 208.631 2.16468 209.188 3.17773C210.309 5.21427 211.176 8.44134 211.824 13.0273C212.471 17.6015 212.893 23.4786 213.153 30.7803C214.054 56.1012 210.511 77.3276 202.375 94.8662C194.242 112.399 181.504 126.275 163.966 136.881C148.109 146.47 117.083 161.185 86.2998 174.402C55.5107 187.622 25.0307 199.315 10.2627 202.878C6.81778 203.709 4.41613 203.401 2.92188 202.316C1.44518 201.244 0.706712 199.302 0.848633 196.496C1.13365 190.863 4.96225 182.19 12.3887 171.951C12.482 171.822 12.7228 171.554 13.1318 171.132C13.532 170.719 14.0725 170.181 14.7461 169.525C16.093 168.214 17.964 166.437 20.292 164.255C24.9475 159.892 31.4243 153.917 39.1787 146.818C54.6876 132.622 75.3029 113.938 96.667 94.6924C139.399 56.197 185.115 15.4639 198.972 3.88086C201.536 1.73731 203.592 0.63028 205.232 0.510742Z" fill="currentColor" stroke="currentColor"/>
</svg>
