<svg viewBox="0 0 270 270" preserveAspectRatio="xMidYMid meet" fill="none" xmlns="http://www.w3.org/2000/svg">
<path fill-rule="evenodd" clip-rule="evenodd" d="M208.512 5.08209C202.462 7.83009 195.255 11.1681 192.496 12.4991C186.159 15.5581 183.289 15.5431 177.416 12.4201C173.573 10.3771 171.307 9.92009 165.014 9.92009C158.087 9.92009 156.62 10.2861 150.413 13.5611C146.617 15.5631 141.937 18.4281 140.012 19.9281C138.087 21.4271 134.519 23.6641 132.083 24.8991C129.647 26.1331 122.262 32.3281 115.672 38.6651C105.179 48.7551 102.498 50.7631 94.1013 54.8211C88.8273 57.3701 83.3873 60.1911 82.0123 61.0891C80.6373 61.9881 77.9373 63.0521 76.0123 63.4531C70.1463 64.6751 51.0001 69.5971 51.0001 70.9201C51.0001 71.6041 60.5373 72.8111 63.0123 73.4481C68.0133 74.7361 77.5203 79.3151 78.5063 80.9101C79.8603 83.1011 77.6023 86.2041 72.1723 89.6131C65.0553 94.0811 37.8223 121.419 32.5193 129.42C30.3313 132.72 26.9103 137.445 24.9153 139.92C22.9213 142.395 20.4983 145.963 19.5323 147.849C18.5663 149.735 16.0263 153.491 13.8893 156.195C11.7513 158.9 9.77326 162.307 9.49326 163.766C9.21226 165.226 8.31526 168.332 7.49826 170.67C6.68126 173.008 5.28226 177.057 4.39026 179.67C3.49826 182.283 2.14826 185.694 1.39026 187.251C-0.541737 191.221 -0.431737 207.749 1.54426 210.361C2.35126 211.429 3.01226 214.354 3.01126 216.861C3.01026 223.903 8.89526 234.501 18.4353 244.638C22.7933 249.268 28.1933 253.985 30.4353 255.121C32.6773 256.257 36.0873 258.406 38.0123 259.897C42.5273 263.394 58.1123 270.92 60.8383 270.92C61.9933 270.92 65.3173 271.933 68.2253 273.17C73.2543 275.31 74.7823 275.42 99.5123 275.42C124.242 275.42 125.77 275.31 130.799 273.17C134.209 271.719 138.115 270.919 141.799 270.916C146.135 270.913 148.958 270.191 153.512 267.92C156.812 266.274 160.48 264.926 161.663 264.924C162.846 264.922 166.221 263.799 169.163 262.43C172.105 261.06 175.513 259.935 176.737 259.93C179.73 259.917 217.696 241.768 230.512 234.223C234.333 231.974 235.512 230.707 235.512 228.85C235.512 226.154 236.228 226.215 223.012 227.782C218.887 228.271 213.487 229.591 211.012 230.715C207.532 232.297 203.347 232.924 192.545 233.486C180.99 234.087 177.709 234.618 173.545 236.557C168.607 238.856 167.929 238.9 137.512 238.9C106.76 238.9 106.47 238.881 101.279 236.464C98.4013 235.124 93.5313 233.563 90.4583 232.995C77.1523 230.535 66.9783 221.764 60.5973 207.25C56.4323 197.777 56.3253 196.685 59.0393 191.381C60.1553 189.203 61.6633 185.148 62.3923 182.372C63.1203 179.596 65.3833 175.141 67.4213 172.472C69.4583 169.802 71.9673 165.969 72.9963 163.952C75.0893 159.849 93.1493 141.667 98.2293 138.549C100.035 137.44 103.537 134.881 106.012 132.861C108.487 130.841 112.537 128.176 115.012 126.939C117.487 125.701 122.678 122.089 126.548 118.912C130.573 115.608 139.56 110.041 147.548 105.904C155.228 101.926 162.82 97.5721 164.42 96.2281C168.003 93.2161 181.831 86.1901 187.97 84.2621C190.468 83.4781 194.987 81.6171 198.012 80.1281C202.934 77.7051 203.845 76.7371 206.678 70.9201C208.42 67.3451 210.319 62.3221 210.899 59.7571C211.479 57.1921 212.835 53.3671 213.912 51.2571C214.99 49.1471 216.186 44.7201 216.572 41.4201C216.957 38.1201 218.339 33.2971 219.642 30.7031C220.946 28.1091 222.016 24.7341 222.022 23.2031C222.027 21.6721 223.152 18.0131 224.522 15.0711C225.891 12.1291 227.012 8.51609 227.012 7.04309C227.012 3.40309 224.373 -0.0979079 221.705 0.00209212C220.499 0.0480921 214.562 2.33309 208.512 5.08209ZM266.57 46.7551C263.56 48.9111 260.554 48.9201 256.955 48.9201C253.356 48.9201 249.012 50.9611 249.012 53.3381C249.012 54.1181 254.566 56.9581 256.955 59.7571C262.099 61.8311 261.806 63.2531 262.455 65.4201C263.614 69.2881 264.032 76.9201 266.57 76.9201C267.279 76.9201 271.187 76.3831 271.955 72.9201C273.072 67.8831 274.748 64.8151 277.5 63.4201C283.732 60.2621 289.604 61.9661 287.645 58.1771C286.859 56.6581 283.787 54.8211 279.846 51.2571C278.654 50.1791 278.621 47.5271 277.5 44.9201C275.664 40.6521 275.835 38.6651 273.512 38.6651C271.189 38.6651 269.58 44.6001 266.57 46.7551ZM306.512 137.612C304.862 138.499 301.712 140.648 299.512 142.388C297.312 144.129 291.462 147.612 286.512 150.129C281.562 152.646 275.712 155.658 273.512 156.821C264.956 161.346 246.174 169.92 244.818 169.92C244.032 169.92 238.467 172.166 232.45 174.912C226.434 177.658 220.342 179.908 218.911 179.912C217.48 179.916 214.24 181.02 211.711 182.365C209.181 183.71 205.408 185.13 203.325 185.521C201.242 185.912 197.282 187.282 194.525 188.566C191.412 190.016 187.617 190.908 184.512 190.92C181.317 190.932 177.581 191.839 174.163 193.43C170.996 194.904 167.005 195.92 164.383 195.92C161.946 195.92 157.378 197.002 154.232 198.325C148.854 200.586 146.822 200.78 120.225 201.575C89.9653 202.479 90.0633 202.459 90.0273 207.635C90.0193 208.853 90.8183 210.281 91.8023 210.808C92.7873 211.335 99.6493 212.086 107.052 212.478C116.736 212.991 121.915 213.743 125.512 215.161C129.951 216.911 132.979 217.132 152.512 217.132C172.098 217.132 175.061 216.914 179.512 215.15C183.377 213.617 188.144 213.007 200.512 212.461C214.356 211.85 217.236 211.429 221.883 209.337C225.893 207.532 229.004 206.92 234.163 206.92C239.282 206.92 242.611 206.272 247.012 204.42C250.279 203.045 253.902 201.92 255.064 201.92C256.226 201.92 260.253 200.57 264.012 198.92C267.771 197.27 271.738 195.92 272.826 195.92C273.914 195.92 279.475 193.739 285.183 191.073C290.892 188.408 297.336 185.894 299.505 185.487C302.223 184.977 304.777 183.418 307.73 180.465L312.012 176.183L312.022 167.802C312.03 160.982 312.496 158.423 314.522 154.071C317.147 148.431 317.792 141.246 315.977 137.854C314.706 135.48 310.672 135.377 306.512 137.612Z" fill="currentColor" transform="matrix(0.848387 0 0 0.848387 0.459 18.283)"/>
</svg>