<svg viewBox="0 0 261 230" preserveAspectRatio="xMidYMid meet" fill="none" xmlns="http://www.w3.org/2000/svg">
<path d="M128.09 0.509766C136.197 0.54428 144.276 0.667154 150.413 0.870117C153.483 0.971631 156.062 1.09349 157.915 1.2334C158.843 1.30345 159.58 1.37695 160.103 1.4541C160.365 1.49286 160.562 1.53095 160.697 1.56641C160.753 1.58104 160.791 1.59435 160.815 1.60352C161.158 1.9486 161.308 2.12267 161.371 2.35254C161.436 2.59045 161.427 2.97521 161.162 3.77539C160.631 5.37948 159.219 8.25983 156.348 14.0957C153.687 19.5041 151.004 25.149 150.391 26.6338C149.791 28.0832 146.584 34.896 143.258 41.7822C139.935 48.6599 136.615 55.5841 135.88 57.168C135.148 58.743 133.101 63.0271 131.329 66.6885C130.443 68.5204 129.636 70.2131 129.051 71.4648C128.759 72.0901 128.521 72.6075 128.355 72.9775C128.273 73.162 128.207 73.3139 128.161 73.4248C128.139 73.4795 128.118 73.5299 128.104 73.5713C128.096 73.5915 128.088 73.6159 128.081 73.6406C128.08 73.6438 128.077 73.6565 128.072 73.6758C128.07 73.6805 128.068 73.6864 128.065 73.6934C128.048 73.7351 128.02 73.7986 127.981 73.8848C127.904 74.0561 127.789 74.304 127.64 74.6211C127.341 75.255 126.909 76.1588 126.374 77.2646C125.305 79.476 123.83 82.4944 122.207 85.7861C118.96 92.3733 114.165 102.285 111.551 107.814C108.94 113.337 105.189 120.897 103.22 124.609C95.8944 138.417 90.259 149.849 86.3154 158.915C82.3779 167.967 80.1074 174.703 79.5439 179.102C79.2641 181.286 79.3896 182.999 80.0439 184.132C80.3803 184.714 80.8546 185.138 81.4609 185.381C82.0587 185.62 82.7516 185.67 83.5156 185.567C85.0318 185.363 86.9386 184.544 89.2129 183.173C91.4977 181.796 94.197 179.835 97.3076 177.299C110.62 166.446 124.989 154.489 137.709 143.68C146.252 136.42 155.517 128.73 159.889 125.271C163.94 122.066 187.085 102.735 197.368 93.9707L204.117 88.2197C210.646 82.6575 214.709 79.3692 217.178 77.7773C217.792 77.3812 218.296 77.0978 218.706 76.9121C219.121 76.7239 219.409 76.6504 219.6 76.6416C219.773 76.6337 219.829 76.6786 219.857 76.708C219.904 76.7566 219.97 76.8751 220.008 77.1377C220.008 77.145 220.007 77.1756 219.992 77.2363C219.974 77.3121 219.939 77.4146 219.881 77.5459C219.764 77.8095 219.571 78.1528 219.295 78.5781C218.744 79.4273 217.893 80.5557 216.745 81.9531C214.452 84.7463 211.008 88.5754 206.509 93.3242C204.472 95.4738 200.98 99.263 198.747 101.747C196.517 104.227 193.489 107.548 192.02 109.126C190.542 110.712 187.493 114.114 185.241 116.688C182.992 119.261 179.684 123.043 177.891 125.093C176.101 127.138 172.506 131.119 169.902 133.937C165.574 138.622 155.736 149.532 138.872 168.346C130.075 178.16 124.482 184.332 120.624 188.483C118.82 190.425 114.767 194.94 111.616 198.517C92.5396 220.176 88.5515 223.777 80.5459 226.872C67.5141 231.911 54.4338 229.827 35.7441 219.544C29.7096 216.224 20.2181 211.113 11.1953 206.327C8.00151 204.633 5.6559 203.415 3.9707 202.427C2.26923 201.429 1.32629 200.713 0.863281 200.048C0.642536 199.731 0.535726 199.43 0.507812 199.112C0.479261 198.786 0.531214 198.412 0.673828 197.948C0.966581 196.996 1.58522 195.816 2.4248 194.084C3.71604 191.42 6.20167 186.196 7.94922 182.473C9.69522 178.752 13.2771 171.186 15.9082 165.66C18.5401 160.133 22.405 151.918 24.4961 147.405L24.4951 147.404C26.5853 142.894 29.1692 137.455 30.2354 135.319C31.3089 133.169 35.2686 124.859 39.0352 116.854C45.9037 102.256 64.1601 63.7908 69.6904 52.2637C71.3145 48.8788 74.0735 43.0638 75.8223 39.3408C81.1113 28.0812 91.7479 5.62834 92.7002 3.71289C92.9261 3.25867 93.2662 2.75504 93.6338 2.31445C94.0068 1.86746 94.3769 1.52285 94.6504 1.35547C94.6467 1.35805 94.7048 1.32949 94.8857 1.29004C95.0523 1.25374 95.2793 1.21724 95.5664 1.18066C96.1394 1.10769 96.9228 1.03951 97.8916 0.977539C99.828 0.853693 102.477 0.754827 105.602 0.679688C111.849 0.52945 119.982 0.475254 128.09 0.509766ZM207.232 99.9873C207.438 99.9984 207.786 100.156 208.441 101.035C209.077 101.887 209.908 103.286 211.112 105.487C212.313 107.682 213.872 110.647 215.96 114.618C217.978 118.454 221.796 125.652 224.445 130.615C227.094 135.576 231.235 143.418 233.647 148.041C236.062 152.667 239.923 159.958 242.229 164.246C248.573 176.046 259.025 195.994 259.907 197.98C260.119 198.457 260.287 198.785 260.397 199.107C260.501 199.408 260.525 199.63 260.474 199.847C260.42 200.07 260.271 200.353 259.897 200.735C259.523 201.119 258.951 201.575 258.101 202.148C254.681 204.452 247.144 208.388 231.401 216.691C227.013 219.006 221.181 222.153 218.44 223.686C215.955 225.076 214.234 226.121 212.855 226.668C212.177 226.937 211.621 227.067 211.133 227.066C210.656 227.065 210.218 226.939 209.77 226.651C208.834 226.051 207.853 224.755 206.5 222.408C205.159 220.081 203.504 216.819 201.188 212.378C193.684 197.993 189.038 189.247 188.102 187.75C187.618 186.977 185.698 183.314 183.831 179.592C181.973 175.888 180.026 172.171 179.507 171.347C178.736 170.122 171.443 156.369 167.741 149.153C167.097 147.897 166.854 146.908 166.937 146.082C167.018 145.275 167.419 144.548 168.226 143.823V143.822C168.729 143.37 170.195 141.701 171.479 140.129L171.479 140.128C172.764 138.555 175.604 135.24 177.787 132.761C185.717 123.759 194.698 113.404 199.824 107.354C201.26 105.659 202.688 104.039 203.832 102.795C204.404 102.173 204.903 101.647 205.294 101.254C205.701 100.845 205.955 100.619 206.054 100.555C206.358 100.358 206.585 100.21 206.791 100.108C206.991 100.01 207.125 99.9816 207.232 99.9873ZM162.779 17.085C162.999 17.0515 163.27 17.1079 163.616 17.3525C164.342 17.8647 165.21 19.0655 166.232 21.1025C166.916 22.4648 168.353 25.1482 169.427 27.0693V27.0684C171.213 30.2639 175.463 38.2698 186.62 59.457C190.96 67.6979 195.456 76.1673 198.417 81.6777C199.15 83.0421 199.662 84.0346 199.923 84.8623C200.175 85.665 200.175 86.2648 199.922 86.8623C199.655 87.4912 199.085 88.1755 198.058 89.083C197.036 89.9856 195.614 91.0644 193.703 92.4961C190.887 94.6056 184.534 99.4833 179.584 103.335C172.175 109.1 166.891 113.321 163.026 116.257C159.143 119.207 156.769 120.797 155.169 121.354C154.387 121.627 153.857 121.628 153.449 121.479C153.036 121.327 152.657 120.987 152.249 120.383C151.839 119.777 151.437 118.964 150.95 117.936C150.468 116.918 149.911 115.708 149.202 114.354C144.114 104.633 139.241 95.4114 135.489 88.4023C133.728 85.1114 132.775 83.1976 132.344 81.8379C132.131 81.1691 132.052 80.6544 132.061 80.1904C132.069 79.7263 132.165 79.2852 132.338 78.7598C132.448 78.4264 132.871 77.4433 133.504 76.042C134.131 74.6552 134.949 72.8907 135.83 71.0176C137.593 67.2699 139.608 63.0978 140.858 60.6592C141.506 59.3959 143.226 55.7886 144.681 52.6436C146.844 47.9652 151.014 39.377 154.729 31.8594C156.587 28.1015 158.329 24.6132 159.649 22.0166C160.31 20.718 160.864 19.6443 161.273 18.8721C161.478 18.4857 161.645 18.1772 161.771 17.9551C161.833 17.8438 161.884 17.7568 161.923 17.6943C161.968 17.6221 161.98 17.608 161.971 17.6191C162.282 17.2649 162.552 17.1196 162.779 17.085ZM255.445 41.6855C256.238 41.577 256.903 41.7965 257.458 42.3525C257.857 42.7524 258.061 43.0531 258.137 43.3281C258.206 43.579 258.186 43.8795 257.962 44.3271C257.731 44.7882 257.302 45.3645 256.608 46.1328C255.919 46.8964 254.991 47.8241 253.783 48.9883C252.609 50.12 251.717 50.9787 251.05 51.6797C250.384 52.3792 249.915 52.9482 249.602 53.5039C249.116 54.366 249.032 55.1598 249.057 56.2295L249.106 57.4033C249.191 59.1267 249.83 62.4158 251.044 67.4619C251.866 70.8773 252.113 73.1579 251.829 74.5635C251.691 75.2494 251.435 75.6774 251.104 75.9414C250.77 76.207 250.294 76.3594 249.61 76.3594C249.234 76.3594 249.057 76.3452 248.907 76.2803C248.772 76.2216 248.599 76.0921 248.342 75.7129C247.808 74.9267 247.087 73.3511 245.634 70.1289C244.706 68.0709 243.955 66.4774 243.297 65.3047C242.647 64.1481 242.048 63.3257 241.396 62.8896C241.056 62.6627 240.694 62.5351 240.306 62.5234C239.923 62.5119 239.551 62.6142 239.188 62.7881C238.48 63.127 237.715 63.7844 236.829 64.624C235.737 65.6596 235.044 66.3939 234.523 67.2969C234.005 68.195 233.674 69.2316 233.241 70.8359C233.015 71.6748 232.734 72.2559 232.442 72.6152C232.157 72.9667 231.891 73.0762 231.66 73.0732C231.411 73.0699 231.073 72.9348 230.666 72.5381C230.262 72.1447 229.83 71.5315 229.398 70.6768C228.581 69.0579 227.537 67.8178 226.126 66.8008H226.125C225.363 66.2521 224.895 65.7254 224.658 65.2695C224.426 64.8225 224.427 64.4675 224.548 64.1934C224.675 63.9069 224.978 63.609 225.545 63.3789C226.111 63.1495 226.9 63.0049 227.913 63.0049C228.922 63.0049 229.792 62.8297 230.702 62.3691C231.597 61.9162 232.51 61.1979 233.624 60.1533C234.463 59.3664 235.123 58.676 235.482 58.0195C235.667 57.6823 235.785 57.3318 235.797 56.9648C235.809 56.5931 235.711 56.2398 235.518 55.9023C235.147 55.2542 234.413 54.6427 233.38 53.9756C232.332 53.2987 230.901 52.5206 229.059 51.5615C226.014 49.9767 224.027 48.5877 222.963 47.4863C222.426 46.9313 222.167 46.4922 222.087 46.1768C222.049 46.0267 222.055 45.9169 222.078 45.8359C222.101 45.7567 222.15 45.6751 222.245 45.5908C222.45 45.4093 222.854 45.2349 223.532 45.1436C224.197 45.054 225.068 45.0516 226.139 45.1562C228.279 45.3653 231.162 45.996 234.698 47.1426C237.057 47.9076 238.92 48.4812 240.439 48.8428C241.957 49.2039 243.168 49.3627 244.219 49.2764C246.377 49.0989 247.726 47.8944 249.594 45.8203C250.13 45.2246 251.458 44.0192 252.537 43.1543C253.647 42.2652 254.627 41.7977 255.445 41.6855ZM128.058 73.7988C128.058 73.7535 128.064 73.7187 128.066 73.707V73.7041C128.062 73.7306 128.058 73.7636 128.058 73.7988Z" fill="currentColor" stroke="currentColor"/>
</svg>
