<svg viewBox="0 0 254 254" preserveAspectRatio="xMidYMid meet" fill="none" xmlns="http://www.w3.org/2000/svg">
<path fill-rule="evenodd" clip-rule="evenodd" d="M116.84 0.677299C116.61 1.04981 114.171 1.3546 111.421 1.3546C108.671 1.3546 106.233 1.65938 106.003 2.0319C105.772 2.40441 104.248 2.7092 102.616 2.7092C100.984 2.7092 99.4596 3.01398 99.2293 3.3865C98.999 3.75901 98.021 4.06379 97.0565 4.06379C94.9798 4.06379 80.3656 8.83333 80.0385 9.61832C79.9138 9.91566 79.076 10.1595 78.1758 10.1595C77.2756 10.1595 76.5387 10.4643 76.5387 10.8368C76.5387 11.2093 76.1201 11.5141 75.6087 11.5141C74.4328 11.5141 60.0226 18.9827 59.7184 19.7494C59.5938 20.063 59.0608 20.319 58.5331 20.319C58.0048 20.319 57.5733 20.6238 57.5733 20.9963C57.5733 21.3688 57.1161 21.6736 56.5573 21.6736C55.9985 21.6736 55.5413 21.9784 55.5413 22.3509C55.5413 22.7234 55.0841 23.0282 54.5253 23.0282C53.9665 23.0282 53.5073 23.2564 53.5046 23.5361C53.5019 23.8159 52.3985 24.7946 51.052 25.7116C48.3873 27.5268 47.118 28.603 38.885 36.0316C35.8702 38.7517 32.9035 41.7772 32.2919 42.7559C31.6796 43.7346 30.3242 45.4501 29.2798 46.5684C28.2353 47.6866 26.63 49.7029 25.7129 51.0494C24.7958 52.3959 23.8171 53.4992 23.5373 53.5019C23.2576 53.5046 23.0293 53.9638 23.0293 54.5226C23.0293 55.0813 22.7245 55.5385 22.352 55.5385C21.9795 55.5385 21.6747 55.9957 21.6747 56.5545C21.6747 57.1132 21.3699 57.5704 20.9973 57.5704C20.6248 57.5704 20.32 58.0276 20.32 58.5864C20.32 59.1451 20.0917 59.605 19.812 59.6077C19.5323 59.6104 18.9796 60.2965 18.5826 61.1317C18.1864 61.9668 16.4335 65.3194 14.688 68.5819C12.9425 71.8438 11.5147 74.9682 11.5147 75.5243C11.5147 76.0796 11.2099 76.5348 10.8373 76.5348C10.4648 76.5348 10.16 77.2968 10.16 78.228C10.16 79.1593 9.8552 79.9213 9.48267 79.9213C9.11013 79.9213 8.80533 80.3825 8.80533 80.9467C8.80533 81.5102 8.51544 82.5011 8.16119 83.1479C7.04901 85.1798 4.064 95.3596 4.064 97.1213C4.064 98.0478 3.7592 98.994 3.38667 99.2243C3.01413 99.4546 2.70933 100.979 2.70933 102.611C2.70933 104.243 2.40453 105.767 2.032 105.997C1.65947 106.228 1.35467 108.683 1.35467 111.456C1.35467 114.364 1.06815 116.495 0.677333 116.495C0.241808 116.495 0 123.408 0 135.878V155.259L1.86267 154.819C4.77926 154.13 12.1615 153.023 16.256 152.66C18.3049 152.48 20.5909 152.055 21.336 151.718C22.0811 151.38 24.2147 150.947 26.0773 150.755C27.94 150.564 31.4452 150.104 33.8667 149.733C36.2881 149.361 40.2505 148.763 42.672 148.403C45.0935 148.043 50.1227 147.256 53.848 146.654C63.6836 145.063 70.2503 144.161 74.676 143.792C76.8177 143.613 78.5707 143.189 78.5707 142.85C78.5707 142.51 80.5519 142.233 82.9733 142.233C85.4571 142.233 87.376 141.938 87.376 141.555C87.376 141.178 89.2522 140.869 91.6093 140.858C94.2618 140.845 95.4634 140.624 94.8267 140.267C94.2679 139.954 75.9799 139.47 54.1867 139.192C32.3935 138.913 13.0387 138.481 11.176 138.231L7.78933 137.776L10.8373 137.336C12.5137 137.093 18.6097 136.41 24.384 135.817C30.1583 135.224 36.5774 134.444 38.6486 134.084C40.7199 133.723 44.3017 133.428 46.6073 133.428C48.9509 133.428 50.8 133.129 50.8 132.751C50.8 132.352 53.1707 132.073 56.5573 132.073C59.944 132.073 62.3147 131.794 62.3147 131.396C62.3147 131.003 64.5275 130.719 67.5979 130.719C70.5036 130.719 73.1703 130.443 73.5245 130.106C73.8781 129.768 76.6064 129.31 79.5867 129.087C101.681 127.434 100.441 127.103 62.6533 124.572C57.4379 124.222 49.2083 123.776 44.3653 123.581C39.5224 123.385 34.9504 122.935 34.2053 122.582C33.4603 122.227 28.8883 121.808 24.0453 121.65C16.2147 121.394 7.21292 120.395 8.128 119.883C8.31427 119.779 13.8007 119.446 20.32 119.142C26.8393 118.838 37.5073 118.294 44.0267 117.933C50.546 117.572 62.1284 116.961 69.7653 116.573C77.4023 116.187 86.6987 115.642 90.424 115.363L97.1973 114.856L93.1333 114.281C90.8981 113.966 86.7068 113.549 83.82 113.357C80.9325 113.164 78.5707 112.747 78.5707 112.432C78.5707 112.116 76.2088 111.7 73.3213 111.507C70.4339 111.315 65.6336 110.849 62.6533 110.472C54.0587 109.386 47.0835 108.526 37.2533 107.338C28.8564 106.324 26.0848 105.982 13.7505 104.446C11.4415 104.158 9.33365 103.703 9.06611 103.436C8.79856 103.168 18.6632 102.949 30.9887 102.949H53.3976L54.5816 99.7323C55.2325 97.9625 56.0195 96.2252 56.3304 95.8717C56.6413 95.5181 56.896 94.6796 56.896 94.0091C56.896 93.3386 57.2008 92.79 57.5733 92.79C57.9459 92.79 58.2507 92.1804 58.2507 91.4354C58.2507 90.6903 58.5555 90.0808 58.928 90.0808C59.3005 90.0808 59.6053 89.6236 59.6053 89.0648C59.6053 88.5061 59.9101 88.0489 60.2827 88.0489C60.6552 88.0489 60.96 87.7265 60.96 87.333C60.96 85.8456 67.4577 77.4058 72.4334 72.4297C77.4097 67.4542 85.85 60.9569 87.3374 60.9569C87.7309 60.9569 88.0533 60.6521 88.0533 60.2796C88.0533 59.9071 88.5105 59.6023 89.0693 59.6023C89.6281 59.6023 90.0853 59.2975 90.0853 58.925C90.0853 58.5525 90.6949 58.2477 91.44 58.2477C92.1851 58.2477 92.7947 57.9429 92.7947 57.5704C92.7947 57.1979 93.3433 56.8931 94.0139 56.8931C94.6844 56.8931 95.523 56.6297 95.8765 56.3086C96.961 55.3231 106.66 52.152 108.589 52.152C109.588 52.152 110.405 51.8472 110.405 51.4747C110.405 51.1022 112.021 50.7974 113.995 50.7974C115.97 50.7974 117.908 50.4744 118.304 50.0788C119.515 48.8678 143.595 50.2542 143.595 51.535C143.595 51.8743 144.412 52.152 145.411 52.152C147.34 52.152 157.039 55.3231 158.123 56.3086C158.477 56.6297 159.316 56.8931 159.986 56.8931C160.657 56.8931 161.205 57.1979 161.205 57.5704C161.205 57.9429 161.815 58.2477 162.56 58.2477C163.305 58.2477 163.915 58.5525 163.915 58.925C163.915 59.2975 164.372 59.6023 164.931 59.6023C165.489 59.6023 165.947 59.9071 165.947 60.2796C165.947 60.6521 166.268 60.9569 166.661 60.9569C169.587 60.9569 184.424 74.2719 189.303 81.2759C190.731 83.3247 192.103 85.1534 192.354 85.3397C192.604 85.5259 193.241 86.6692 193.767 87.8795L194.725 90.0808H224.363H254V45.0404V0H185.629C140.78 0 117.114 0.232991 116.84 0.677299ZM114.469 61.6342C114.469 62.0067 113.268 62.3115 111.8 62.3115C110.332 62.3115 108.942 62.6163 108.712 62.9888C108.482 63.3613 107.397 63.6661 106.301 63.6661C105.205 63.6661 104.309 63.9709 104.309 64.3434C104.309 64.7159 103.859 65.0207 103.308 65.0207C102.098 65.0207 94.5801 68.5386 94.2625 69.2538C94.1378 69.5329 93.5194 69.7618 92.8875 69.7618C92.2562 69.7618 91.2998 70.3714 90.7627 71.1164C90.2255 71.8614 89.4724 72.4764 89.089 72.4832C86.9012 72.5218 72.5255 86.8968 72.4869 89.0845C72.4801 89.4678 71.8651 90.221 71.12 90.7581C70.3749 91.2952 69.7653 92.2515 69.7653 92.8828C69.7653 93.5147 69.5364 94.1331 69.2573 94.2577C68.7866 94.4663 65.7013 100.555 65.7013 101.274C65.7013 101.451 93.2857 101.595 127 101.595C160.714 101.595 188.299 101.451 188.299 101.274C188.299 100.555 185.213 94.4663 184.743 94.2577C184.463 94.1331 184.235 93.4476 184.235 92.7338C184.235 92.0192 183.996 91.4354 183.704 91.4354C183.411 91.4354 182.668 90.5969 182.052 89.5728C178.806 84.174 167.118 72.5225 164.911 72.4832C164.528 72.4764 163.774 71.8614 163.237 71.1164C162.7 70.3714 161.744 69.7618 161.113 69.7618C160.481 69.7618 159.862 69.5329 159.738 69.2538C159.42 68.5386 151.902 65.0207 150.692 65.0207C150.141 65.0207 149.691 64.7159 149.691 64.3434C149.691 63.9709 148.795 63.6661 147.699 63.6661C146.603 63.6661 145.518 63.3613 145.288 62.9888C145.058 62.6163 143.839 62.3115 142.579 62.3115C141.319 62.3115 140.1 62.0067 139.869 61.6342C139.615 61.2224 134.556 60.9569 126.96 60.9569C119.085 60.9569 114.469 61.2068 114.469 61.6342ZM251.094 99.309C250.641 99.7614 243.859 100.786 237.744 101.327C235.695 101.507 233.409 101.932 232.664 102.269C231.919 102.607 229.785 103.04 227.923 103.232C226.06 103.423 222.555 103.883 220.133 104.254C217.712 104.626 213.749 105.224 211.328 105.584C208.907 105.944 203.877 106.731 200.152 107.334C190.316 108.924 183.75 109.826 179.324 110.195C177.182 110.374 175.429 110.798 175.429 111.137C175.429 111.477 173.448 111.754 171.027 111.754C168.543 111.754 166.624 112.05 166.624 112.432C166.624 112.809 164.748 113.118 162.391 113.129C159.742 113.142 158.537 113.363 159.173 113.719C159.732 114.032 178.02 114.515 199.813 114.793C221.607 115.07 240.961 115.503 242.824 115.754L246.211 116.211L243.163 116.651C241.486 116.894 235.39 117.577 229.616 118.17C223.842 118.763 217.423 119.543 215.351 119.904C213.28 120.264 209.869 120.559 207.771 120.559C205.674 120.559 203.769 120.864 203.539 121.237C203.308 121.609 200.548 121.914 197.403 121.914C194.042 121.914 191.685 122.193 191.685 122.591C191.685 122.985 189.473 123.268 186.402 123.268C183.496 123.268 180.83 123.544 180.475 123.881C180.122 124.219 177.394 124.677 174.413 124.9C152.319 126.553 153.559 126.884 191.347 129.416C196.562 129.765 204.792 130.211 209.635 130.406C214.478 130.602 219.05 131.052 219.795 131.406C220.54 131.76 225.112 132.175 229.955 132.329C240.023 132.649 246.621 133.585 243.84 134.3C242.909 134.538 237.422 134.89 231.648 135.081C225.874 135.272 215.968 135.715 209.635 136.066C203.302 136.418 191.872 137.022 184.235 137.41C176.598 137.799 167.301 138.345 163.576 138.624L156.803 139.131L160.867 139.706C163.102 140.021 167.293 140.438 170.18 140.63C173.067 140.823 175.429 141.24 175.429 141.555C175.429 141.871 177.792 142.287 180.679 142.48C183.565 142.672 188.366 143.138 191.347 143.515C199.941 144.601 206.917 145.461 216.747 146.649C225.144 147.663 227.915 148.005 240.249 149.542C242.559 149.829 244.666 150.284 244.934 150.551C245.201 150.819 235.337 151.038 223.011 151.038H200.602L199.418 154.255C198.768 156.025 197.98 157.762 197.67 158.115C197.359 158.47 197.104 159.307 197.104 159.978C197.104 160.649 196.799 161.197 196.427 161.197C196.054 161.197 195.749 161.807 195.749 162.552C195.749 163.297 195.445 163.906 195.072 163.906C194.699 163.906 194.395 164.364 194.395 164.922C194.395 165.481 194.09 165.938 193.717 165.938C193.345 165.938 193.04 166.261 193.04 166.654C193.04 168.142 186.542 176.581 181.567 181.557C176.59 186.533 168.15 193.03 166.663 193.03C166.269 193.03 165.947 193.335 165.947 193.708C165.947 194.08 165.489 194.385 164.931 194.385C164.372 194.385 163.915 194.69 163.915 195.062C163.915 195.435 163.305 195.739 162.56 195.739C161.815 195.739 161.205 196.044 161.205 196.417C161.205 196.789 160.657 197.094 159.986 197.094C159.316 197.094 158.477 197.357 158.123 197.679C157.039 198.664 147.34 201.835 145.411 201.835C144.412 201.835 143.595 202.14 143.595 202.512C143.595 202.885 141.937 203.19 139.909 203.19C137.882 203.19 136.036 203.494 135.805 203.867C135.563 204.26 131.861 204.544 127 204.544C122.139 204.544 118.437 204.26 118.195 203.867C117.964 203.494 116.118 203.19 114.091 203.19C112.063 203.19 110.405 202.885 110.405 202.512C110.405 202.14 109.588 201.835 108.589 201.835C106.66 201.835 96.961 198.664 95.8765 197.679C95.523 197.357 94.6844 197.094 94.0139 197.094C93.3433 197.094 92.7947 196.789 92.7947 196.417C92.7947 196.044 92.1851 195.739 91.44 195.739C90.6949 195.739 90.0853 195.435 90.0853 195.062C90.0853 194.69 89.6281 194.385 89.0693 194.385C88.5105 194.385 88.0533 194.08 88.0533 193.708C88.0533 193.335 87.7316 193.03 87.3388 193.03C85.7877 193.03 78.1406 187.179 72.8587 181.951C67.5864 176.732 60.96 168.213 60.96 166.654C60.96 166.261 60.6552 165.938 60.2827 165.938C59.9101 165.938 59.6053 165.481 59.6053 164.922C59.6053 164.034 55.8421 163.906 29.8027 163.906H0V208.953V254L68.58 253.717C135.47 253.441 146.641 253.186 147.963 251.902C148.318 251.559 149.899 251.278 151.48 251.278C153.06 251.278 154.54 250.973 154.771 250.601C155.001 250.228 155.979 249.923 156.944 249.923C159.02 249.923 173.634 245.154 173.962 244.369C174.086 244.071 174.924 243.828 175.824 243.828C176.725 243.828 177.461 243.523 177.461 243.15C177.461 242.778 177.88 242.473 178.391 242.473C179.567 242.473 193.977 235.004 194.282 234.238C194.406 233.924 194.939 233.668 195.467 233.668C195.995 233.668 196.427 233.363 196.427 232.991C196.427 232.618 196.884 232.314 197.443 232.314C198.001 232.314 198.459 232.009 198.459 231.636C198.459 231.264 198.916 230.959 199.475 230.959C200.033 230.959 200.493 230.731 200.495 230.451C200.498 230.171 201.601 229.193 202.948 228.275C205.613 226.46 206.882 225.384 215.115 217.956C218.13 215.235 221.097 212.21 221.708 211.231C222.32 210.253 223.676 208.537 224.72 207.419C225.765 206.301 227.37 204.284 228.287 202.938C229.204 201.591 230.183 200.488 230.463 200.485C230.742 200.483 230.971 200.023 230.971 199.465C230.971 198.906 231.275 198.449 231.648 198.449C232.021 198.449 232.325 197.991 232.325 197.433C232.325 196.874 232.63 196.417 233.003 196.417C233.375 196.417 233.68 195.985 233.68 195.457C233.68 194.929 233.943 194.396 234.265 194.272C235.164 193.926 243.84 176.852 243.84 175.431C243.84 174.742 244.084 174.077 244.381 173.953C245.166 173.626 249.936 159.012 249.936 156.936C249.936 155.971 250.241 154.993 250.613 154.763C250.986 154.533 251.291 153.009 251.291 151.376C251.291 149.744 251.595 148.22 251.968 147.99C252.341 147.76 252.645 145.474 252.645 142.91C252.645 140.347 252.95 138.061 253.323 137.83C253.749 137.567 254 130.26 254 118.149C254 99.9212 253.933 98.8857 252.758 98.8857C252.075 98.8857 251.326 99.076 251.094 99.309ZM65.024 151.361C65.024 152.083 68.7859 159.52 69.2573 159.729C69.5364 159.854 69.7653 160.54 69.7653 161.253C69.7653 161.967 70.0044 162.552 70.2964 162.552C70.589 162.552 71.332 163.39 71.9477 164.414C75.2409 169.89 84.1011 178.75 89.5773 182.043C90.6015 182.659 91.44 183.402 91.44 183.694C91.44 183.986 92.0239 184.225 92.7385 184.225C93.4524 184.225 94.1378 184.454 94.2625 184.733C94.5801 185.449 102.098 188.966 103.308 188.966C103.859 188.966 104.309 189.271 104.309 189.644C104.309 190.016 105.205 190.321 106.301 190.321C107.397 190.321 108.482 190.626 108.712 190.998C108.942 191.371 110.161 191.676 111.421 191.676C112.681 191.676 113.9 191.98 114.131 192.353C114.385 192.765 119.444 193.03 127.04 193.03C134.915 193.03 139.531 192.78 139.531 192.353C139.531 191.98 140.732 191.676 142.2 191.676C143.669 191.676 145.058 191.371 145.288 190.998C145.518 190.626 146.603 190.321 147.699 190.321C148.795 190.321 149.691 190.016 149.691 189.644C149.691 189.271 150.141 188.966 150.692 188.966C151.902 188.966 159.42 185.449 159.738 184.733C159.862 184.454 160.481 184.225 161.113 184.225C161.744 184.225 162.7 183.616 163.237 182.871C163.774 182.126 164.528 181.511 164.911 181.504C167.118 181.465 178.806 169.813 182.052 164.414C182.668 163.39 183.411 162.552 183.704 162.552C183.996 162.552 184.235 161.967 184.235 161.253C184.235 160.54 184.463 159.854 184.743 159.729C185.214 159.52 188.976 152.083 188.976 151.361C188.976 151.183 161.087 151.038 127 151.038C92.9132 151.038 65.024 151.183 65.024 151.361Z" fill="currentColor"/>
</svg>
