<svg viewBox="0 0 300 300" preserveAspectRatio="xMidYMid meet" fill="none" xmlns="http://www.w3.org/2000/svg">
<mask id="path-1-inside-1_63_6" fill="white">
<path fill-rule="evenodd" clip-rule="evenodd" d="M132.251 0.277545C130.876 0.511545 126.601 1.20354 122.751 1.81354C-56.4622 30.2325 -32.4422 299.694 149.251 299.089C328.833 298.491 352.408 39.1395 176.251 2.05554C169.959 0.730544 137.322 -0.588455 132.251 0.277545ZM180.49 8.07955C301.069 36.4425 333.688 191.709 234.678 266.017C152.728 327.521 32.9048 284.901 7.73579 185.295C-18.7012 80.6695 76.0168 -16.4945 180.49 8.07955ZM147.557 19.3595C146.901 19.6265 146.558 20.3785 146.797 21.0305C147.729 23.5805 145.34 25.3825 143.764 23.3185C142.967 22.2745 142.552 21.0375 142.842 20.5685C143.132 20.0995 141.683 19.7155 139.623 19.7155C135.877 19.7155 135.877 19.7155 138.442 22.4655C142.414 26.7245 143.623 29.5625 142.198 31.2795C141.197 32.4845 141.62 32.7155 144.829 32.7155C147.802 32.7155 148.384 32.4485 147.451 31.5155C145.629 29.6935 145.997 27.3695 148.751 23.3105C151.951 18.5955 151.676 17.6835 147.557 19.3595ZM132.251 20.3275C131.426 20.4715 128.614 20.8695 126.001 21.2135C122.183 21.7155 121.251 22.2185 121.251 23.7765C121.251 26.1245 121.896 26.2135 123.958 24.1515C124.818 23.2905 125.855 22.9535 126.26 23.4015C127.447 24.7105 128.166 32.7155 127.097 32.7155C126.567 32.7155 126.365 33.0905 126.648 33.5485C127.312 34.6225 133.251 33.7715 133.251 32.6025C133.251 32.1145 132.841 31.7155 132.339 31.7155C131.837 31.7155 131.115 29.8725 130.735 27.6195C129.931 22.8595 131.261 20.6495 133.709 22.6805C134.987 23.7405 135.251 23.6925 135.251 22.3965C135.251 20.5805 134.355 19.9625 132.251 20.3275ZM162.651 21.4805C158.799 24.0525 159.079 30.4825 163.137 32.6545C168.286 35.4105 175.251 32.2835 175.251 27.2155C175.251 22.3725 166.964 18.6005 162.651 21.4805ZM170.051 22.9155C172.583 25.4475 170.506 32.7155 167.251 32.7155C165.465 32.7155 163.251 29.4665 163.251 26.8445C163.251 23.7785 164.86 21.7155 167.251 21.7155C168.131 21.7155 169.391 22.2555 170.051 22.9155ZM116.751 23.2965C116.201 23.4675 113.793 24.1115 111.4 24.7275C107.77 25.6615 107.301 26.0435 108.57 27.0315C112.088 29.7685 112.505 37.6165 109.137 37.7005C108.019 37.7285 105.09 28.7855 105.826 27.5935C106.35 26.7465 105.75 26.6245 103.652 27.1505C100.15 28.0295 99.4748 28.6005 100.849 29.5195C102.307 30.4955 105.068 37.9555 104.53 39.4655C103.966 41.0475 104.552 41.0335 108.533 39.3735C110.303 38.6345 114.113 37.4655 117.001 36.7735C121.223 35.7625 122.251 35.1135 122.251 33.4605C122.251 31.5335 122.138 31.5085 120.422 33.0605C118.405 34.8855 115.251 35.2855 115.251 33.7155C115.251 33.1655 115.164 32.3785 115.058 31.9655C114.951 31.5525 116.064 30.9905 117.53 30.7155C119.544 30.3375 119.977 29.8645 119.3 28.7795C118.568 27.6085 118.121 27.5785 116.871 28.6155C115.13 30.0605 113.251 29.3025 113.251 27.1565C113.251 25.8165 115.017 25.2535 118.001 25.6405C118.689 25.7305 119.251 25.3605 119.251 24.8185C119.251 23.5975 118.078 22.8835 116.751 23.2965ZM178.738 23.6945C179.497 24.9225 177.204 32.9725 175.829 33.9115C174.518 34.8055 175.101 35.2785 178.526 36.1005C181.076 36.7125 181.253 36.5705 180.695 34.3505C180.011 31.6215 181.814 29.8785 183.538 31.6025C185.211 33.2755 186.251 32.9475 186.251 30.7465C186.251 29.4365 185.765 28.9645 184.799 29.3355C182.744 30.1235 181.23 28.9335 181.939 27.0875C182.369 25.9665 183.348 25.6845 185.395 26.0945C189.618 26.9385 188.865 24.9805 184.501 23.7685C179.794 22.4605 177.961 22.4375 178.738 23.6945ZM93.5018 31.2085C85.2268 34.7995 87.9448 46.5155 96.5508 44.3555C100.178 43.4445 103.715 40.2755 102.784 38.7695C102.21 37.8405 101.392 38.2595 99.7468 40.3235C97.7188 42.8655 97.2358 43.0295 94.8998 41.9655C89.4668 39.4905 90.7638 32.1235 96.4848 32.9635C98.6178 33.2765 99.2598 33.0045 99.0418 31.8815C98.6298 29.7585 97.2338 29.5885 93.5018 31.2085ZM197.404 34.9415C194.516 37.6965 192.288 40.0665 192.452 40.2085C193.968 41.5175 197.163 41.6485 196.677 40.3825C195.982 38.5735 197.532 37.5025 199.661 38.3195C201.395 38.9845 201.869 41.7155 200.251 41.7155C198.421 41.7155 199.22 43.5705 201.34 44.2435C204.525 45.2545 215.429 51.7775 218.306 54.3925C221.46 57.2605 221.931 57.2835 221.83 54.5665C221.787 53.3845 222.314 52.2225 223.001 51.9835C223.861 51.6845 224.251 52.7605 224.251 55.4325C224.251 58.8845 225.592 61.7155 227.227 61.7155C227.544 61.7155 227.632 59.9115 227.422 57.7065C227.118 54.5235 227.337 53.8115 228.485 54.2515C230.533 55.0375 232.583 52.1625 231.888 49.4785C231.004 46.0645 223.584 41.2645 223.584 44.1065C223.584 44.8705 222.497 46.8715 221.168 48.5505C218.563 51.8425 215.895 52.8075 216.942 50.0795C217.376 48.9465 217.135 48.5975 216.16 48.9435C214.25 49.6235 211.251 47.9705 211.251 46.2395C211.251 44.0275 212.941 43.5475 214.663 45.2705C215.528 46.1355 216.689 46.5625 217.243 46.2205C218.773 45.2745 218.447 43.7155 216.72 43.7155C214.979 43.7155 213.756 41.3255 214.709 39.7835C215.533 38.4505 219.251 40.6865 219.251 42.5155C219.251 43.2405 219.701 43.5555 220.251 43.2155C222.258 41.9745 221.159 40.0315 217.185 37.7985C214.949 36.5415 213.031 35.6715 212.923 35.8645C212.814 36.0575 211.745 38.0155 210.547 40.2155C206.938 46.8445 205.251 46.1055 205.251 37.8955C205.251 28.9655 204.117 28.5385 197.404 34.9415ZM201.251 35.7155C201.251 36.2655 200.774 36.7155 200.192 36.7155C199.61 36.7155 199.411 36.2655 199.751 35.7155C200.091 35.1655 200.567 34.7155 200.81 34.7155C201.053 34.7155 201.251 35.1655 201.251 35.7155ZM76.3278 41.3045C72.3258 44.6715 72.1808 48.7285 75.9578 51.6995C82.6838 56.9905 92.0308 47.1505 86.2118 40.9045C83.5078 38.0015 80.0888 38.1395 76.3278 41.3045ZM84.1598 44.1055C84.8438 44.9305 85.2568 46.6425 85.0778 47.9105C84.3748 52.8715 76.2508 50.2935 76.2508 45.1105C76.2508 40.7585 80.8928 40.1695 84.1598 44.1055ZM128.251 47.2075C46.8398 63.5365 15.9968 164.559 74.5468 223.109C140.069 288.631 252.251 241.888 252.251 149.065C252.251 84.4465 191.478 34.5255 128.251 47.2075ZM228.915 48.2825C229.698 50.3225 227.832 52.1525 225.775 51.3635C224.497 50.8725 224.387 50.3295 225.243 48.7305C226.534 46.3185 228.089 46.1295 228.915 48.2825ZM65.3758 49.3405C61.1798 52.2795 62.8268 56.2155 68.2508 56.2155C73.4618 56.2155 74.8628 58.9735 69.9388 59.5375C67.6398 59.8015 67.3408 60.1195 68.3008 61.2755C70.2008 63.5645 75.4608 59.3455 75.0568 55.8575C74.7798 53.4665 74.2998 53.1865 70.0008 52.9105C64.8898 52.5825 63.5478 51.0505 67.9188 50.5315C70.1778 50.2635 70.3588 50.0285 69.0998 48.9935C67.9158 48.0195 67.1608 48.0905 65.3758 49.3405ZM168.332 52.7315C245.494 68.4565 273.668 163.117 217.978 219.538C157.884 280.422 53.0978 239.474 49.5388 153.716C46.8548 89.0715 104.828 39.7905 168.332 52.7315ZM234.477 56.7645C229.922 58.5756 229.657 65.3166 234.007 68.7385C241.099 74.3166 249.057 66.0135 243.001 59.3525C240.299 56.3805 237.547 55.5445 234.477 56.7645ZM241.89 60.2175C243.576 64.6105 238.055 70.4575 234.785 67.7435C232.673 65.9905 232.864 63.1025 235.251 60.7155C237.612 58.3545 241.075 58.0945 241.89 60.2175ZM52.7768 61.6875C50.9248 63.7335 50.9258 63.7995 52.8198 65.1415C60.2118 70.3795 61.3278 73.3566 55.5008 72.2925C42.4978 69.9195 42.3248 70.0385 47.3568 77.8805C51.5218 84.3705 50.7478 86.7925 45.4958 83.7075C43.4358 82.4985 41.3528 80.8125 40.8668 79.9615C40.1208 78.6545 39.7758 78.7875 38.6518 80.8145C37.1358 83.5505 36.8768 85.0645 38.0488 84.3405C40.0698 83.0915 41.6468 85.5515 40.4748 88.1245C39.2108 90.8975 36.6248 90.7565 36.0078 87.8805C35.7448 86.6565 35.2098 87.0445 33.9858 89.3475C32.3218 92.4785 32.3228 92.4795 35.0658 93.0285C36.5748 93.3306 39.0838 94.7585 40.6418 96.2015C42.1988 97.6455 43.5878 98.6885 43.7268 98.5205C45.5178 96.3605 46.7428 92.2935 45.3408 93.1595C42.3288 95.0215 40.3648 91.4685 42.7018 88.3845C44.0408 86.6175 44.1588 86.6236 46.0778 88.5425C48.0628 90.5275 48.0728 90.5215 51.1588 85.5565C54.4998 80.1825 54.8608 79.2205 53.1388 80.2845C51.5538 81.2645 50.1428 78.5515 51.4308 76.9995C52.9468 75.1715 55.2508 75.4105 55.2508 77.3955C55.2508 78.4965 56.5418 77.5835 59.0008 74.7415C63.3728 69.6885 64.7578 67.5646 63.4328 67.9455C61.9778 68.3635 56.2188 63.8046 55.3978 61.5845C54.6728 59.6225 54.6438 59.6245 52.7768 61.6875ZM245.852 70.8475C243.708 72.4256 241.346 73.7155 240.602 73.7155C239.058 73.7155 238.907 74.6245 240.131 76.5555C240.795 77.6035 241.545 77.3305 243.57 75.3055C247.556 71.3195 248.22 72.0875 246.64 78.8605C244.87 86.4475 244.933 86.5075 250.782 82.7985C253.401 81.1375 255.928 80.0155 256.397 80.3055C257.893 81.2305 257.313 78.0125 255.751 76.7155C254.525 75.6975 254.251 75.7606 254.251 77.0575C254.251 78.4065 251.495 80.7155 249.887 80.7155C249.614 80.7155 249.809 79.2555 250.321 77.4725C252.75 69.0025 251.295 66.8446 245.852 70.8475ZM50.2508 75.7155C50.2508 76.2655 49.8008 76.7155 49.2508 76.7155C48.7008 76.7155 48.2508 76.2655 48.2508 75.7155C48.2508 75.1655 48.7008 74.7155 49.2508 74.7155C49.8008 74.7155 50.2508 75.1655 50.2508 75.7155ZM247.261 87.5315C247.207 89.2635 249.589 91.7865 250.258 90.7045C251.374 88.8975 254.475 90.3395 254.037 92.4625C253.837 93.4265 252.947 94.1605 252.059 94.0925C250.707 93.9895 250.607 94.4385 251.445 96.8425C252.721 100.502 262.166 93.1645 262.228 88.4665C262.248 86.9315 247.309 85.9986 247.261 87.5315ZM257.751 89.7155C257.411 90.2655 256.71 90.7155 256.192 90.7155C255.674 90.7155 255.251 90.2655 255.251 89.7155C255.251 89.1655 255.953 88.7155 256.81 88.7155C257.667 88.7155 258.091 89.1655 257.751 89.7155ZM89.9688 92.7565C77.1438 95.9475 74.0998 100.729 81.1398 106.623C86.9148 111.458 86.2328 111.346 90.8458 108.216C99.2108 102.54 105.67 105.283 133.863 126.484C155.917 143.07 157.726 143.986 167.491 143.519C176.295 143.098 177.377 143.894 169.714 145.155C160.426 146.684 157.344 145.021 117.409 116.942C109.602 111.452 102.708 107.34 100.791 107.029C95.3918 106.153 87.9028 110.725 89.7748 113.754C90.5198 114.961 145.4 155.28 149.983 157.989C156.136 161.626 171.05 160.989 187.251 156.399C194.126 154.45 200.951 152.601 202.419 152.288C208.289 151.036 214.786 140.385 210.498 139.043C204.82 137.265 197.941 137.497 189.052 139.767C179.095 142.309 177.636 141.607 186.904 138.733C196.349 135.804 204.529 135.25 211.251 137.084C219.393 139.305 227.53 132.035 222.061 127.426C214.127 120.74 200.04 120.135 183.751 125.779C172.409 129.709 163.756 130.196 159.585 127.138C153.493 122.672 126.198 104.602 118.261 99.7815C106.999 92.9405 98.1038 90.7325 89.9688 92.7565ZM29.7578 98.3455C24.6138 106.196 32.8098 115.223 38.9448 108.466C42.3288 104.74 42.5958 101.377 39.7088 98.8655C37.2098 96.6936 37.2098 96.6936 36.2308 99.2695C34.8418 102.922 34.9498 104.211 36.5348 102.896C37.3348 102.231 38.3698 102.173 39.2848 102.74C41.7408 104.264 37.1518 108.159 33.8708 107.335C29.1508 106.151 28.2148 98.7155 32.7858 98.7155C34.6628 98.7155 34.6908 97.0985 32.8258 96.3825C31.9948 96.0635 30.7168 96.8815 29.7578 98.3455ZM261.751 98.4685C260.101 99.3325 258.076 100.349 257.251 100.729C251.322 103.455 256.625 112.368 263.439 111.128C265.81 110.697 268.375 110.461 269.137 110.605C270.054 110.778 270.307 110.306 269.887 109.209C269.537 108.298 269.251 107.069 269.251 106.479C269.251 105.889 268.362 106.211 267.274 107.195C264.252 109.93 257.837 109.819 257.439 107.024C257.095 104.609 261.384 101.716 265.308 101.716C266.864 101.716 267.296 101.275 266.858 100.134C266.524 99.2635 266.251 98.1385 266.251 97.6335C266.251 96.4175 265.349 96.5855 261.751 98.4685ZM24.2658 113.466C24.2748 114.979 24.6118 115.747 25.0158 115.174C25.4198 114.601 27.1008 114.381 28.7508 114.686C31.7508 115.239 31.7508 115.239 27.9738 117.576C22.0938 121.214 18.1038 126.861 22.6458 125.118C24.9038 124.252 32.2508 126.637 32.2508 128.235C32.2508 129.029 31.0138 129.957 29.5008 130.297C17.2778 133.05 16.5908 134.161 24.4908 138.403C31.6538 142.248 32.0578 144.716 25.5238 144.716C22.8438 144.716 20.1108 144.176 19.4508 143.516C18.5178 142.583 18.2508 143.165 18.2508 146.138C18.2508 149.408 18.4658 149.782 19.7378 148.727C21.9158 146.919 24.2508 148.256 24.2508 151.31C24.2508 153.728 23.9818 153.912 21.2508 153.366C18.5048 152.817 18.2508 152.997 18.2508 155.491C18.2508 158.178 18.3408 158.216 24.7508 158.216C31.2418 158.216 31.2508 158.212 31.2508 155.344C31.2508 152.915 31.0208 152.662 29.7638 153.705C27.4638 155.614 25.2508 154.163 25.2508 150.747C25.2508 147.493 27.6948 146.56 30.0508 148.916C30.9838 149.849 31.2508 149.433 31.2508 147.041C31.2508 145.35 31.5258 142.589 31.8628 140.905C32.4118 138.159 32.2578 137.901 30.3628 138.397C28.5948 138.859 28.2508 138.505 28.2508 136.224C28.2508 133.883 28.5738 133.58 30.5418 134.074C32.6438 134.602 32.9158 134.195 33.8398 129.153C34.6508 124.727 34.5918 123.755 33.5378 124.159C31.6738 124.875 26.1818 123.637 26.7978 122.64C27.0808 122.182 29.5488 120.59 32.2818 119.103C38.4718 115.734 38.4678 115.208 32.2478 113.715C29.4958 113.055 26.9948 112.11 26.6888 111.616C25.5628 109.793 24.2508 110.795 24.2658 113.466ZM268.501 114.108C271.354 116.274 270.537 117.493 265.516 118.564C262.018 119.31 260.585 119.266 260.031 118.395C259.608 117.729 259.275 118.603 259.266 120.407C259.258 122.162 259.701 123.876 260.251 124.216C260.801 124.556 261.251 124.408 261.251 123.886C261.251 123.365 262.858 122.637 264.822 122.269C266.786 121.9 269.107 121.325 269.981 120.99C271.293 120.486 271.46 120.921 270.943 123.504C270.446 125.993 270.617 126.513 271.785 126.065C273.545 125.389 273.541 125.492 272.113 118.383C271.157 113.623 270.637 112.721 268.863 112.748C266.894 112.777 266.87 112.87 268.501 114.108ZM270.251 128.85C268.876 129.404 266.289 129.691 264.501 129.488C261.504 129.146 261.251 129.341 261.251 131.984C261.251 134.531 261.502 134.76 263.501 134.039C264.739 133.592 267.664 133.225 270.001 133.221C273.969 133.216 274.251 133.034 274.251 130.466C274.251 127.468 273.966 127.353 270.251 128.85ZM26.2508 135.716C26.2508 136.266 25.8008 136.716 25.2508 136.716C24.7008 136.716 24.2508 136.266 24.2508 135.716C24.2508 135.166 24.7008 134.716 25.2508 134.716C25.8008 134.716 26.2508 135.166 26.2508 135.716ZM264.706 138.171C261.049 141.827 261.893 149.716 265.941 149.716C267.421 149.716 267.418 149.558 265.906 147.887C262.599 144.234 264.449 139.716 269.251 139.716C273.977 139.716 275.715 143.441 272.596 146.887C271.044 148.602 271.068 148.716 272.988 148.716C275.604 148.716 276.605 145.031 275.135 140.813C273.235 135.361 268.671 134.205 264.706 138.171ZM178.918 142.383C178.551 142.749 177.951 142.749 177.584 142.383C177.218 142.016 177.518 141.716 178.251 141.716C178.984 141.716 179.284 142.016 178.918 142.383ZM269.741 153.321C268.371 154.799 267.251 156.392 267.251 156.862C267.251 158.371 265.21 157.772 264.557 156.071C264.171 155.064 264.645 153.901 265.78 153.071C267.547 151.779 267.531 151.716 265.442 151.716C263.62 151.716 263.251 152.284 263.251 155.094C263.251 161.105 268.44 162.469 271.26 157.199C271.991 155.834 273.188 154.716 273.92 154.716C275.696 154.716 275.598 155.675 273.596 157.887C272.041 159.605 272.072 159.716 274.096 159.716C275.888 159.716 276.251 159.132 276.251 156.251C276.251 151.123 273.095 149.702 269.741 153.321ZM192.751 156.308C188.351 157.675 182.501 159.465 179.751 160.286C177.001 161.108 170.547 161.957 165.408 162.174C160.269 162.392 155.939 162.715 155.785 162.893C155.632 163.07 161.098 167.211 167.933 172.093C180.359 180.971 180.359 180.971 183.055 177.676C184.538 175.865 189.464 169.942 194.001 164.516C204.53 151.924 204.635 152.617 192.751 156.308ZM26.1218 160.966C25.2908 161.654 23.7578 163.566 22.7158 165.216C21.1588 167.679 20.7538 167.894 20.4528 166.418C20.2508 165.429 20.6278 163.967 21.2908 163.168C22.2798 161.976 22.1148 161.716 20.3728 161.716C17.8028 161.716 17.3998 166.188 19.6918 169.275C21.4528 171.646 24.0488 170.462 26.0558 166.374C27.5868 163.254 30.2508 162.837 30.2508 165.716C30.2508 166.816 29.8008 167.716 29.2508 167.716C28.7008 167.716 28.2508 168.199 28.2508 168.789C28.2508 170.933 31.5638 169.151 31.9188 166.816C32.6128 162.255 28.9868 158.596 26.1218 160.966ZM118.578 191.941C107.511 195.5 105.371 208.046 115.454 210.261C119.159 211.074 120.016 213.214 117.673 215.802C115.136 218.606 109.139 218.1 107.764 214.966C106.681 212.498 103.251 211.866 103.251 214.134C103.251 214.914 102.991 216.229 102.674 217.057C101.6 219.854 105.813 222.716 111.001 222.714C125.162 222.71 132.806 207.104 120.07 204.199C116.09 203.291 115.005 201.513 116.836 198.898C118.92 195.923 125.198 195.798 125.961 198.716C126.968 202.565 130.251 201.158 130.251 196.877C130.251 191.315 126.049 189.538 118.578 191.941ZM154.578 191.941C143.511 195.5 141.371 208.046 151.454 210.261C155.159 211.074 156.016 213.214 153.673 215.802C151.136 218.606 145.139 218.1 143.764 214.966C142.438 211.943 139.607 212.076 139.012 215.188C138.014 220.406 140.159 222.216 147.337 222.216C162.069 222.216 168.662 208.41 155.975 204.127C150.088 202.14 151.962 196.716 158.536 196.716C160.597 196.716 161.59 197.296 161.961 198.716C162.249 199.816 163.279 200.716 164.251 200.716C165.223 200.716 166.253 199.816 166.541 198.716C168.176 192.464 162.662 189.341 154.578 191.941ZM187.613 201.466C183.908 206.829 179.13 213.691 176.996 216.716C172.495 223.094 174.344 225.709 179.188 219.816C182.846 215.366 190.936 215.134 191.435 219.466C192.16 225.772 197.946 223.802 198.612 217.022C200.794 194.797 200.645 191.716 197.393 191.716C194.669 191.716 193.639 192.743 187.613 201.466ZM192.794 206.279C192.18 210.371 191.9 210.716 189.19 210.716C185.549 210.716 185.547 210.761 189.501 204.762C193.089 199.319 193.789 199.641 192.794 206.279ZM54.2508 215.454C40.4158 225.908 42.1708 225.358 38.0038 220.545C33.4508 215.285 32.6758 217.775 37.0768 223.525C38.6308 225.555 41.8578 229.887 44.2488 233.151C47.9998 238.273 48.6988 238.821 49.3528 237.151C50.4808 234.269 50.3948 233.716 48.8188 233.716C44.6118 233.716 43.0778 227.95 46.5748 225.283C50.8588 222.015 51.6468 222.059 54.2508 225.716C55.4258 227.366 56.8068 228.716 57.3188 228.716C59.0558 228.716 58.2628 225.546 56.0838 223.782C53.5638 221.741 54.1578 218.815 57.2558 218.004C58.5448 217.667 59.2508 216.64 59.2508 215.099C59.2508 212.116 58.6098 212.161 54.2508 215.454ZM247.108 218.232C244.209 219.807 239.598 220.334 237.251 219.36C234.045 218.029 233.232 220.007 234.83 225.254C235.661 227.983 236.208 232.016 236.046 234.216C235.703 238.871 238.992 239.477 242.34 235.376C244.303 232.971 244.914 233.708 245.458 239.139C245.915 243.7 247.574 243.216 251.62 237.342C253.673 234.362 256.231 231.693 257.306 231.412C261.296 230.369 258.411 227.431 253.98 228.026C248.974 228.697 246.827 230.531 250.058 231.376C252.212 231.939 252.242 232.068 250.636 233.843C245.787 239.201 245.973 231.569 250.83 225.895C253.755 222.477 254.12 221.603 252.83 221.108C251.961 220.775 251.251 219.65 251.251 218.609C251.251 216.372 250.635 216.316 247.108 218.232ZM244.131 229.855C241.218 233.217 238.664 235.455 238.455 234.829C238.246 234.202 240.459 230.939 243.371 227.577C246.284 224.215 248.838 221.977 249.047 222.603C249.256 223.23 247.043 226.493 244.131 229.855ZM243.251 223.542C243.251 223.996 242.126 225.424 240.751 226.716C238.251 229.065 238.251 229.065 238.251 225.89C238.251 223.171 238.609 222.716 240.751 222.716C242.126 222.716 243.251 223.088 243.251 223.542ZM73.8898 233.41C73.5388 233.762 73.2508 235.549 73.2508 237.383C73.2508 241.003 71.5898 241.989 71.0708 238.676C70.5398 235.292 68.7508 236.505 68.7508 240.249C68.7508 243.736 67.2038 245.152 64.1048 244.501C63.3598 244.344 62.7458 244.986 62.7388 245.928C62.7328 246.869 62.1708 248.196 61.4888 248.878C59.9548 250.412 59.8718 252.716 61.3498 252.716C61.9538 252.716 63.7668 251.304 65.3788 249.579C66.9908 247.853 68.6328 246.765 69.0288 247.161C69.4238 247.556 68.9608 248.455 67.9988 249.158C65.6328 250.888 65.7928 253.363 68.3128 254.022C69.4468 254.318 70.2928 255.158 70.1938 255.888C69.4828 261.131 70.1148 261.993 74.1908 261.342C76.4578 260.979 78.3928 261.137 78.7498 261.714C79.7958 263.407 81.2508 262.826 81.2508 260.716C81.2508 259.538 80.5838 258.716 79.6288 258.716C78.3098 258.716 78.2358 258.439 79.2338 257.237C80.1688 256.11 80.9328 256.011 82.4418 256.818C85.0138 258.194 85.9998 257.146 84.4578 254.676C83.1018 252.504 85.7368 248.711 88.0638 249.487C88.7268 249.708 89.2508 248.963 89.2508 247.799C89.2508 246.654 88.7578 245.716 88.1548 245.716C86.0988 245.716 81.0118 241.482 82.1918 240.752C82.8118 240.369 83.0238 239.288 82.6638 238.35C82.0678 236.796 81.8008 236.781 79.6648 238.18C76.4888 240.261 76.2508 240.163 76.2508 236.775C76.2508 233.84 75.1008 232.2 73.8898 233.41ZM213.847 241.466C214.519 245.139 214.493 245.18 212.564 243.466C210.597 241.719 206.251 241.037 206.251 242.475C206.251 242.893 207.151 243.797 208.251 244.484C209.351 245.171 210.251 246.249 210.251 246.879C210.251 247.556 209.502 247.348 208.422 246.371C206.498 244.63 202.251 244.095 202.251 245.594C202.251 246.077 203.263 247.178 204.501 248.042C206.504 249.439 206.547 249.617 204.894 249.664C203.621 249.7 203.228 250.213 203.644 251.298C203.978 252.168 204.251 253.743 204.251 254.798C204.251 257.449 206.093 257.202 211.393 253.841C215.763 251.07 215.911 251.045 215.509 253.146C215.267 254.41 213.13 256.538 210.422 258.21C207.159 260.225 206.256 261.205 207.427 261.464C208.349 261.668 210.887 260.708 213.067 259.332C215.248 257.956 217.306 257.104 217.641 257.439C218.812 258.61 218.239 260.716 216.751 260.716C215.926 260.716 215.251 261.115 215.251 261.603C215.251 262.567 220.951 263.683 221.757 262.877C222.645 261.988 222.275 257.849 221.251 257.216C219.425 256.087 220.208 254.927 224.724 252.07C228.79 249.498 229.006 249.17 227.101 248.465C225.534 247.885 224.367 248.327 222.476 250.218C219.249 253.445 218.576 252.77 220.796 248.535C223.41 243.551 224.251 241.789 224.251 241.303C224.251 240.082 220.53 240.256 219.001 241.547C217.402 242.898 217.251 242.796 217.251 240.371C217.251 238.363 216.753 237.716 215.206 237.716C213.387 237.716 213.236 238.131 213.847 241.466ZM83.3328 246.325C84.6228 247.889 84.5628 247.944 82.6688 246.934C81.5238 246.324 79.9488 245.052 79.1688 244.107C77.8788 242.543 77.9388 242.488 79.8328 243.498C80.9778 244.108 82.5528 245.38 83.3328 246.325ZM73.2508 244.157C73.2508 244.4 72.7308 244.919 72.0958 245.311C71.3808 245.754 71.2128 245.586 71.6558 244.871C72.3678 243.718 73.2508 243.323 73.2508 244.157ZM76.4338 247.933C75.7168 248.65 75.2508 248.709 75.2508 248.083C75.2508 246.748 76.4338 245.565 77.1008 246.233C77.3848 246.517 77.0848 247.282 76.4338 247.933ZM217.251 247.121C217.251 247.855 208.104 252.903 207.632 252.43C207.377 252.176 209.1 250.803 211.46 249.381C215.571 246.902 217.251 246.247 217.251 247.121ZM80.4338 250.933C79.7168 251.65 79.2508 251.709 79.2508 251.083C79.2508 249.748 80.4338 248.565 81.1008 249.233C81.3848 249.517 81.0848 250.282 80.4338 250.933ZM73.2508 251.216C73.2508 252.041 72.5208 252.716 71.6288 252.716C70.2998 252.716 70.2308 252.445 71.2508 251.216C71.9358 250.391 72.6658 249.716 72.8728 249.716C73.0808 249.716 73.2508 250.391 73.2508 251.216ZM77.2508 254.216C77.2508 255.041 76.8148 255.716 76.2818 255.716C75.7498 255.716 75.5728 255.041 75.8888 254.216C76.2058 253.391 76.6418 252.716 76.8578 252.716C77.0738 252.716 77.2508 253.391 77.2508 254.216ZM109.284 254.918C109.251 257.62 109.251 257.62 104.548 256.205C97.3508 254.039 97.0318 256.334 104.201 258.699C106.428 259.435 108.251 260.444 108.251 260.943C108.251 261.969 104.395 260.986 102.513 259.481C101.659 258.798 101.142 258.914 100.847 259.853C100.611 260.603 99.5108 264.029 98.4008 267.466C96.4428 273.528 96.4388 273.716 98.2578 273.716C99.6418 273.716 100.486 272.47 101.472 268.966C102.477 265.398 103.344 264.139 104.957 263.906C107.117 263.594 106.311 268.389 102.761 276.966C102.214 278.289 102.523 278.716 104.027 278.716C105.237 278.716 106.266 277.834 106.651 276.466C107.256 274.316 107.346 274.297 108.692 276.054C110.997 279.062 113.489 277.662 115.531 272.211C118.166 265.18 118.135 264.268 115.251 263.882C113.876 263.697 112.301 263.078 111.751 262.506C110.738 261.452 111.321 261.512 119.115 263.258C122.271 263.965 122.413 263.887 121.397 261.989C120.713 260.711 119.301 259.966 117.563 259.966C116.007 259.966 114.364 259.208 113.781 258.222C110.736 253.069 109.32 252.028 109.284 254.918ZM186.451 255.347C184.958 256.945 181.643 257.16 180.751 255.716C179.976 254.462 175.251 254.391 175.251 255.633C175.251 256.137 175.814 256.75 176.501 256.996C178.469 257.698 176.924 258.66 173.179 259.063C170.164 259.388 169.713 259.811 169.438 262.574C169.075 266.211 172.056 267.177 172.961 263.716C173.249 262.616 173.893 261.716 174.393 261.716C175.453 261.716 172.754 267.287 171.242 268.222C169.032 269.587 171.409 270.375 175.751 269.716C180.706 268.964 180.671 268.945 181.62 272.917C182.252 275.567 178.661 277.687 173.501 277.71C172.814 277.713 172.251 278.215 172.251 278.825C172.251 279.506 173.508 279.755 175.501 279.47C181.246 278.647 196.251 274.418 196.251 273.622C196.251 271.951 192.435 271.777 189.365 273.309C185.613 275.181 185.48 275.113 184.636 270.893C184.048 267.953 184.231 267.67 187.096 267.097C190.562 266.404 192.103 263.447 190.196 261.149C189.22 259.973 189.305 259.314 190.62 257.861C192.159 256.16 192.119 255.977 189.998 255.01C188.301 254.237 187.409 254.322 186.451 255.347ZM137.251 260.323C137.251 261.341 136.701 261.719 135.751 261.354C134.544 260.891 134.251 261.732 134.251 265.664C134.251 268.635 133.761 270.748 133.001 271.057C132.038 271.447 132.072 271.788 133.146 272.539C134.545 273.516 134.332 279.023 132.743 282.966C131.295 286.557 134.393 284.617 136.063 280.887C137.012 278.768 138.33 277.242 139.014 277.47C140.794 278.064 140.539 279.716 138.668 279.716C136.434 279.716 137.447 281.983 140.33 283.437C144.001 285.288 147.373 281.502 148.016 274.805C148.714 267.548 150.251 268.505 150.251 276.197C150.251 282.333 150.389 282.712 152.836 283.327C156.249 284.183 158.375 282.052 157.184 278.966C156.146 276.278 154.59 276.041 153.899 278.466C153.625 279.428 153.44 277.291 153.487 273.716C153.573 267.216 153.573 267.216 150.469 267.462C148.761 267.597 147.087 267.26 146.749 266.712C146.371 266.101 148.087 265.716 151.192 265.716C156.34 265.716 157.37 264.89 154.84 262.79C153.883 261.996 153.222 261.954 152.786 262.66C152.406 263.275 151.175 262.578 149.782 260.959C147.167 257.92 145.458 258.366 147.205 261.63C148.093 263.29 148.031 263.716 146.9 263.716C144.452 263.716 140.577 261.239 141.007 259.949C141.245 259.235 140.541 258.716 139.334 258.716C138.088 258.716 137.251 259.361 137.251 260.323ZM186.251 259.216C186.251 259.491 186.026 259.716 185.751 259.716C185.476 259.716 185.251 259.491 185.251 259.216C185.251 258.941 185.476 258.716 185.751 258.716C186.026 258.716 186.251 258.941 186.251 259.216ZM181.251 260.646C181.251 261.158 182.228 261.721 183.423 261.896C187.231 262.457 186.591 264.547 182.253 265.715C179.983 266.327 177.39 267.109 176.49 267.455C175.207 267.947 175.328 267.417 177.052 264.995C178.262 263.297 179.251 261.414 179.251 260.812C179.251 260.209 179.701 259.716 180.251 259.716C180.801 259.716 181.251 260.135 181.251 260.646ZM140.251 265.216C140.251 265.491 140.026 265.716 139.751 265.716C139.476 265.716 139.251 265.491 139.251 265.216C139.251 264.941 139.476 264.716 139.751 264.716C140.026 264.716 140.251 264.941 140.251 265.216ZM113.474 266.272C115.029 267.827 111.864 273.662 109.568 273.472C107.865 273.331 107.388 272.849 107.857 271.746C108.215 270.905 108.728 269.204 108.996 267.966C109.443 265.906 112.101 264.9 113.474 266.272ZM145.251 272.216C145.251 275.241 144.801 277.716 144.251 277.716C143.701 277.716 143.251 275.241 143.251 272.216C143.251 269.191 143.701 266.716 144.251 266.716C144.801 266.716 145.251 269.191 145.251 272.216ZM139.918 270.383C139.551 270.749 138.951 270.749 138.584 270.383C138.218 270.016 138.518 269.716 139.251 269.716C139.984 269.716 140.284 270.016 139.918 270.383Z"/>
</mask>
<path fill-rule="evenodd" clip-rule="evenodd" d="M132.251 0.277545C130.876 0.511545 126.601 1.20354 122.751 1.81354C-56.4622 30.2325 -32.4422 299.694 149.251 299.089C328.833 298.491 352.408 39.1395 176.251 2.05554C169.959 0.730544 137.322 -0.588455 132.251 0.277545ZM180.49 8.07955C301.069 36.4425 333.688 191.709 234.678 266.017C152.728 327.521 32.9048 284.901 7.73579 185.295C-18.7012 80.6695 76.0168 -16.4945 180.49 8.07955ZM147.557 19.3595C146.901 19.6265 146.558 20.3785 146.797 21.0305C147.729 23.5805 145.34 25.3825 143.764 23.3185C142.967 22.2745 142.552 21.0375 142.842 20.5685C143.132 20.0995 141.683 19.7155 139.623 19.7155C135.877 19.7155 135.877 19.7155 138.442 22.4655C142.414 26.7245 143.623 29.5625 142.198 31.2795C141.197 32.4845 141.62 32.7155 144.829 32.7155C147.802 32.7155 148.384 32.4485 147.451 31.5155C145.629 29.6935 145.997 27.3695 148.751 23.3105C151.951 18.5955 151.676 17.6835 147.557 19.3595ZM132.251 20.3275C131.426 20.4715 128.614 20.8695 126.001 21.2135C122.183 21.7155 121.251 22.2185 121.251 23.7765C121.251 26.1245 121.896 26.2135 123.958 24.1515C124.818 23.2905 125.855 22.9535 126.26 23.4015C127.447 24.7105 128.166 32.7155 127.097 32.7155C126.567 32.7155 126.365 33.0905 126.648 33.5485C127.312 34.6225 133.251 33.7715 133.251 32.6025C133.251 32.1145 132.841 31.7155 132.339 31.7155C131.837 31.7155 131.115 29.8725 130.735 27.6195C129.931 22.8595 131.261 20.6495 133.709 22.6805C134.987 23.7405 135.251 23.6925 135.251 22.3965C135.251 20.5805 134.355 19.9625 132.251 20.3275ZM162.651 21.4805C158.799 24.0525 159.079 30.4825 163.137 32.6545C168.286 35.4105 175.251 32.2835 175.251 27.2155C175.251 22.3725 166.964 18.6005 162.651 21.4805ZM170.051 22.9155C172.583 25.4475 170.506 32.7155 167.251 32.7155C165.465 32.7155 163.251 29.4665 163.251 26.8445C163.251 23.7785 164.86 21.7155 167.251 21.7155C168.131 21.7155 169.391 22.2555 170.051 22.9155ZM116.751 23.2965C116.201 23.4675 113.793 24.1115 111.4 24.7275C107.77 25.6615 107.301 26.0435 108.57 27.0315C112.088 29.7685 112.505 37.6165 109.137 37.7005C108.019 37.7285 105.09 28.7855 105.826 27.5935C106.35 26.7465 105.75 26.6245 103.652 27.1505C100.15 28.0295 99.4748 28.6005 100.849 29.5195C102.307 30.4955 105.068 37.9555 104.53 39.4655C103.966 41.0475 104.552 41.0335 108.533 39.3735C110.303 38.6345 114.113 37.4655 117.001 36.7735C121.223 35.7625 122.251 35.1135 122.251 33.4605C122.251 31.5335 122.138 31.5085 120.422 33.0605C118.405 34.8855 115.251 35.2855 115.251 33.7155C115.251 33.1655 115.164 32.3785 115.058 31.9655C114.951 31.5525 116.064 30.9905 117.53 30.7155C119.544 30.3375 119.977 29.8645 119.3 28.7795C118.568 27.6085 118.121 27.5785 116.871 28.6155C115.13 30.0605 113.251 29.3025 113.251 27.1565C113.251 25.8165 115.017 25.2535 118.001 25.6405C118.689 25.7305 119.251 25.3605 119.251 24.8185C119.251 23.5975 118.078 22.8835 116.751 23.2965ZM178.738 23.6945C179.497 24.9225 177.204 32.9725 175.829 33.9115C174.518 34.8055 175.101 35.2785 178.526 36.1005C181.076 36.7125 181.253 36.5705 180.695 34.3505C180.011 31.6215 181.814 29.8785 183.538 31.6025C185.211 33.2755 186.251 32.9475 186.251 30.7465C186.251 29.4365 185.765 28.9645 184.799 29.3355C182.744 30.1235 181.23 28.9335 181.939 27.0875C182.369 25.9665 183.348 25.6845 185.395 26.0945C189.618 26.9385 188.865 24.9805 184.501 23.7685C179.794 22.4605 177.961 22.4375 178.738 23.6945ZM93.5018 31.2085C85.2268 34.7995 87.9448 46.5155 96.5508 44.3555C100.178 43.4445 103.715 40.2755 102.784 38.7695C102.21 37.8405 101.392 38.2595 99.7468 40.3235C97.7188 42.8655 97.2358 43.0295 94.8998 41.9655C89.4668 39.4905 90.7638 32.1235 96.4848 32.9635C98.6178 33.2765 99.2598 33.0045 99.0418 31.8815C98.6298 29.7585 97.2338 29.5885 93.5018 31.2085ZM197.404 34.9415C194.516 37.6965 192.288 40.0665 192.452 40.2085C193.968 41.5175 197.163 41.6485 196.677 40.3825C195.982 38.5735 197.532 37.5025 199.661 38.3195C201.395 38.9845 201.869 41.7155 200.251 41.7155C198.421 41.7155 199.22 43.5705 201.34 44.2435C204.525 45.2545 215.429 51.7775 218.306 54.3925C221.46 57.2605 221.931 57.2835 221.83 54.5665C221.787 53.3845 222.314 52.2225 223.001 51.9835C223.861 51.6845 224.251 52.7605 224.251 55.4325C224.251 58.8845 225.592 61.7155 227.227 61.7155C227.544 61.7155 227.632 59.9115 227.422 57.7065C227.118 54.5235 227.337 53.8115 228.485 54.2515C230.533 55.0375 232.583 52.1625 231.888 49.4785C231.004 46.0645 223.584 41.2645 223.584 44.1065C223.584 44.8705 222.497 46.8715 221.168 48.5505C218.563 51.8425 215.895 52.8075 216.942 50.0795C217.376 48.9465 217.135 48.5975 216.16 48.9435C214.25 49.6235 211.251 47.9705 211.251 46.2395C211.251 44.0275 212.941 43.5475 214.663 45.2705C215.528 46.1355 216.689 46.5625 217.243 46.2205C218.773 45.2745 218.447 43.7155 216.72 43.7155C214.979 43.7155 213.756 41.3255 214.709 39.7835C215.533 38.4505 219.251 40.6865 219.251 42.5155C219.251 43.2405 219.701 43.5555 220.251 43.2155C222.258 41.9745 221.159 40.0315 217.185 37.7985C214.949 36.5415 213.031 35.6715 212.923 35.8645C212.814 36.0575 211.745 38.0155 210.547 40.2155C206.938 46.8445 205.251 46.1055 205.251 37.8955C205.251 28.9655 204.117 28.5385 197.404 34.9415ZM201.251 35.7155C201.251 36.2655 200.774 36.7155 200.192 36.7155C199.61 36.7155 199.411 36.2655 199.751 35.7155C200.091 35.1655 200.567 34.7155 200.81 34.7155C201.053 34.7155 201.251 35.1655 201.251 35.7155ZM76.3278 41.3045C72.3258 44.6715 72.1808 48.7285 75.9578 51.6995C82.6838 56.9905 92.0308 47.1505 86.2118 40.9045C83.5078 38.0015 80.0888 38.1395 76.3278 41.3045ZM84.1598 44.1055C84.8438 44.9305 85.2568 46.6425 85.0778 47.9105C84.3748 52.8715 76.2508 50.2935 76.2508 45.1105C76.2508 40.7585 80.8928 40.1695 84.1598 44.1055ZM128.251 47.2075C46.8398 63.5365 15.9968 164.559 74.5468 223.109C140.069 288.631 252.251 241.888 252.251 149.065C252.251 84.4465 191.478 34.5255 128.251 47.2075ZM228.915 48.2825C229.698 50.3225 227.832 52.1525 225.775 51.3635C224.497 50.8725 224.387 50.3295 225.243 48.7305C226.534 46.3185 228.089 46.1295 228.915 48.2825ZM65.3758 49.3405C61.1798 52.2795 62.8268 56.2155 68.2508 56.2155C73.4618 56.2155 74.8628 58.9735 69.9388 59.5375C67.6398 59.8015 67.3408 60.1195 68.3008 61.2755C70.2008 63.5645 75.4608 59.3455 75.0568 55.8575C74.7798 53.4665 74.2998 53.1865 70.0008 52.9105C64.8898 52.5825 63.5478 51.0505 67.9188 50.5315C70.1778 50.2635 70.3588 50.0285 69.0998 48.9935C67.9158 48.0195 67.1608 48.0905 65.3758 49.3405ZM168.332 52.7315C245.494 68.4565 273.668 163.117 217.978 219.538C157.884 280.422 53.0978 239.474 49.5388 153.716C46.8548 89.0715 104.828 39.7905 168.332 52.7315ZM234.477 56.7645C229.922 58.5756 229.657 65.3166 234.007 68.7385C241.099 74.3166 249.057 66.0135 243.001 59.3525C240.299 56.3805 237.547 55.5445 234.477 56.7645ZM241.89 60.2175C243.576 64.6105 238.055 70.4575 234.785 67.7435C232.673 65.9905 232.864 63.1025 235.251 60.7155C237.612 58.3545 241.075 58.0945 241.89 60.2175ZM52.7768 61.6875C50.9248 63.7335 50.9258 63.7995 52.8198 65.1415C60.2118 70.3795 61.3278 73.3566 55.5008 72.2925C42.4978 69.9195 42.3248 70.0385 47.3568 77.8805C51.5218 84.3705 50.7478 86.7925 45.4958 83.7075C43.4358 82.4985 41.3528 80.8125 40.8668 79.9615C40.1208 78.6545 39.7758 78.7875 38.6518 80.8145C37.1358 83.5505 36.8768 85.0645 38.0488 84.3405C40.0698 83.0915 41.6468 85.5515 40.4748 88.1245C39.2108 90.8975 36.6248 90.7565 36.0078 87.8805C35.7448 86.6565 35.2098 87.0445 33.9858 89.3475C32.3218 92.4785 32.3228 92.4795 35.0658 93.0285C36.5748 93.3306 39.0838 94.7585 40.6418 96.2015C42.1988 97.6455 43.5878 98.6885 43.7268 98.5205C45.5178 96.3605 46.7428 92.2935 45.3408 93.1595C42.3288 95.0215 40.3648 91.4685 42.7018 88.3845C44.0408 86.6175 44.1588 86.6236 46.0778 88.5425C48.0628 90.5275 48.0728 90.5215 51.1588 85.5565C54.4998 80.1825 54.8608 79.2205 53.1388 80.2845C51.5538 81.2645 50.1428 78.5515 51.4308 76.9995C52.9468 75.1715 55.2508 75.4105 55.2508 77.3955C55.2508 78.4965 56.5418 77.5835 59.0008 74.7415C63.3728 69.6885 64.7578 67.5646 63.4328 67.9455C61.9778 68.3635 56.2188 63.8046 55.3978 61.5845C54.6728 59.6225 54.6438 59.6245 52.7768 61.6875ZM245.852 70.8475C243.708 72.4256 241.346 73.7155 240.602 73.7155C239.058 73.7155 238.907 74.6245 240.131 76.5555C240.795 77.6035 241.545 77.3305 243.57 75.3055C247.556 71.3195 248.22 72.0875 246.64 78.8605C244.87 86.4475 244.933 86.5075 250.782 82.7985C253.401 81.1375 255.928 80.0155 256.397 80.3055C257.893 81.2305 257.313 78.0125 255.751 76.7155C254.525 75.6975 254.251 75.7606 254.251 77.0575C254.251 78.4065 251.495 80.7155 249.887 80.7155C249.614 80.7155 249.809 79.2555 250.321 77.4725C252.75 69.0025 251.295 66.8446 245.852 70.8475ZM50.2508 75.7155C50.2508 76.2655 49.8008 76.7155 49.2508 76.7155C48.7008 76.7155 48.2508 76.2655 48.2508 75.7155C48.2508 75.1655 48.7008 74.7155 49.2508 74.7155C49.8008 74.7155 50.2508 75.1655 50.2508 75.7155ZM247.261 87.5315C247.207 89.2635 249.589 91.7865 250.258 90.7045C251.374 88.8975 254.475 90.3395 254.037 92.4625C253.837 93.4265 252.947 94.1605 252.059 94.0925C250.707 93.9895 250.607 94.4385 251.445 96.8425C252.721 100.502 262.166 93.1645 262.228 88.4665C262.248 86.9315 247.309 85.9986 247.261 87.5315ZM257.751 89.7155C257.411 90.2655 256.71 90.7155 256.192 90.7155C255.674 90.7155 255.251 90.2655 255.251 89.7155C255.251 89.1655 255.953 88.7155 256.81 88.7155C257.667 88.7155 258.091 89.1655 257.751 89.7155ZM89.9688 92.7565C77.1438 95.9475 74.0998 100.729 81.1398 106.623C86.9148 111.458 86.2328 111.346 90.8458 108.216C99.2108 102.54 105.67 105.283 133.863 126.484C155.917 143.07 157.726 143.986 167.491 143.519C176.295 143.098 177.377 143.894 169.714 145.155C160.426 146.684 157.344 145.021 117.409 116.942C109.602 111.452 102.708 107.34 100.791 107.029C95.3918 106.153 87.9028 110.725 89.7748 113.754C90.5198 114.961 145.4 155.28 149.983 157.989C156.136 161.626 171.05 160.989 187.251 156.399C194.126 154.45 200.951 152.601 202.419 152.288C208.289 151.036 214.786 140.385 210.498 139.043C204.82 137.265 197.941 137.497 189.052 139.767C179.095 142.309 177.636 141.607 186.904 138.733C196.349 135.804 204.529 135.25 211.251 137.084C219.393 139.305 227.53 132.035 222.061 127.426C214.127 120.74 200.04 120.135 183.751 125.779C172.409 129.709 163.756 130.196 159.585 127.138C153.493 122.672 126.198 104.602 118.261 99.7815C106.999 92.9405 98.1038 90.7325 89.9688 92.7565ZM29.7578 98.3455C24.6138 106.196 32.8098 115.223 38.9448 108.466C42.3288 104.74 42.5958 101.377 39.7088 98.8655C37.2098 96.6936 37.2098 96.6936 36.2308 99.2695C34.8418 102.922 34.9498 104.211 36.5348 102.896C37.3348 102.231 38.3698 102.173 39.2848 102.74C41.7408 104.264 37.1518 108.159 33.8708 107.335C29.1508 106.151 28.2148 98.7155 32.7858 98.7155C34.6628 98.7155 34.6908 97.0985 32.8258 96.3825C31.9948 96.0635 30.7168 96.8815 29.7578 98.3455ZM261.751 98.4685C260.101 99.3325 258.076 100.349 257.251 100.729C251.322 103.455 256.625 112.368 263.439 111.128C265.81 110.697 268.375 110.461 269.137 110.605C270.054 110.778 270.307 110.306 269.887 109.209C269.537 108.298 269.251 107.069 269.251 106.479C269.251 105.889 268.362 106.211 267.274 107.195C264.252 109.93 257.837 109.819 257.439 107.024C257.095 104.609 261.384 101.716 265.308 101.716C266.864 101.716 267.296 101.275 266.858 100.134C266.524 99.2635 266.251 98.1385 266.251 97.6335C266.251 96.4175 265.349 96.5855 261.751 98.4685ZM24.2658 113.466C24.2748 114.979 24.6118 115.747 25.0158 115.174C25.4198 114.601 27.1008 114.381 28.7508 114.686C31.7508 115.239 31.7508 115.239 27.9738 117.576C22.0938 121.214 18.1038 126.861 22.6458 125.118C24.9038 124.252 32.2508 126.637 32.2508 128.235C32.2508 129.029 31.0138 129.957 29.5008 130.297C17.2778 133.05 16.5908 134.161 24.4908 138.403C31.6538 142.248 32.0578 144.716 25.5238 144.716C22.8438 144.716 20.1108 144.176 19.4508 143.516C18.5178 142.583 18.2508 143.165 18.2508 146.138C18.2508 149.408 18.4658 149.782 19.7378 148.727C21.9158 146.919 24.2508 148.256 24.2508 151.31C24.2508 153.728 23.9818 153.912 21.2508 153.366C18.5048 152.817 18.2508 152.997 18.2508 155.491C18.2508 158.178 18.3408 158.216 24.7508 158.216C31.2418 158.216 31.2508 158.212 31.2508 155.344C31.2508 152.915 31.0208 152.662 29.7638 153.705C27.4638 155.614 25.2508 154.163 25.2508 150.747C25.2508 147.493 27.6948 146.56 30.0508 148.916C30.9838 149.849 31.2508 149.433 31.2508 147.041C31.2508 145.35 31.5258 142.589 31.8628 140.905C32.4118 138.159 32.2578 137.901 30.3628 138.397C28.5948 138.859 28.2508 138.505 28.2508 136.224C28.2508 133.883 28.5738 133.58 30.5418 134.074C32.6438 134.602 32.9158 134.195 33.8398 129.153C34.6508 124.727 34.5918 123.755 33.5378 124.159C31.6738 124.875 26.1818 123.637 26.7978 122.64C27.0808 122.182 29.5488 120.59 32.2818 119.103C38.4718 115.734 38.4678 115.208 32.2478 113.715C29.4958 113.055 26.9948 112.11 26.6888 111.616C25.5628 109.793 24.2508 110.795 24.2658 113.466ZM268.501 114.108C271.354 116.274 270.537 117.493 265.516 118.564C262.018 119.31 260.585 119.266 260.031 118.395C259.608 117.729 259.275 118.603 259.266 120.407C259.258 122.162 259.701 123.876 260.251 124.216C260.801 124.556 261.251 124.408 261.251 123.886C261.251 123.365 262.858 122.637 264.822 122.269C266.786 121.9 269.107 121.325 269.981 120.99C271.293 120.486 271.46 120.921 270.943 123.504C270.446 125.993 270.617 126.513 271.785 126.065C273.545 125.389 273.541 125.492 272.113 118.383C271.157 113.623 270.637 112.721 268.863 112.748C266.894 112.777 266.87 112.87 268.501 114.108ZM270.251 128.85C268.876 129.404 266.289 129.691 264.501 129.488C261.504 129.146 261.251 129.341 261.251 131.984C261.251 134.531 261.502 134.76 263.501 134.039C264.739 133.592 267.664 133.225 270.001 133.221C273.969 133.216 274.251 133.034 274.251 130.466C274.251 127.468 273.966 127.353 270.251 128.85ZM26.2508 135.716C26.2508 136.266 25.8008 136.716 25.2508 136.716C24.7008 136.716 24.2508 136.266 24.2508 135.716C24.2508 135.166 24.7008 134.716 25.2508 134.716C25.8008 134.716 26.2508 135.166 26.2508 135.716ZM264.706 138.171C261.049 141.827 261.893 149.716 265.941 149.716C267.421 149.716 267.418 149.558 265.906 147.887C262.599 144.234 264.449 139.716 269.251 139.716C273.977 139.716 275.715 143.441 272.596 146.887C271.044 148.602 271.068 148.716 272.988 148.716C275.604 148.716 276.605 145.031 275.135 140.813C273.235 135.361 268.671 134.205 264.706 138.171ZM178.918 142.383C178.551 142.749 177.951 142.749 177.584 142.383C177.218 142.016 177.518 141.716 178.251 141.716C178.984 141.716 179.284 142.016 178.918 142.383ZM269.741 153.321C268.371 154.799 267.251 156.392 267.251 156.862C267.251 158.371 265.21 157.772 264.557 156.071C264.171 155.064 264.645 153.901 265.78 153.071C267.547 151.779 267.531 151.716 265.442 151.716C263.62 151.716 263.251 152.284 263.251 155.094C263.251 161.105 268.44 162.469 271.26 157.199C271.991 155.834 273.188 154.716 273.92 154.716C275.696 154.716 275.598 155.675 273.596 157.887C272.041 159.605 272.072 159.716 274.096 159.716C275.888 159.716 276.251 159.132 276.251 156.251C276.251 151.123 273.095 149.702 269.741 153.321ZM192.751 156.308C188.351 157.675 182.501 159.465 179.751 160.286C177.001 161.108 170.547 161.957 165.408 162.174C160.269 162.392 155.939 162.715 155.785 162.893C155.632 163.07 161.098 167.211 167.933 172.093C180.359 180.971 180.359 180.971 183.055 177.676C184.538 175.865 189.464 169.942 194.001 164.516C204.53 151.924 204.635 152.617 192.751 156.308ZM26.1218 160.966C25.2908 161.654 23.7578 163.566 22.7158 165.216C21.1588 167.679 20.7538 167.894 20.4528 166.418C20.2508 165.429 20.6278 163.967 21.2908 163.168C22.2798 161.976 22.1148 161.716 20.3728 161.716C17.8028 161.716 17.3998 166.188 19.6918 169.275C21.4528 171.646 24.0488 170.462 26.0558 166.374C27.5868 163.254 30.2508 162.837 30.2508 165.716C30.2508 166.816 29.8008 167.716 29.2508 167.716C28.7008 167.716 28.2508 168.199 28.2508 168.789C28.2508 170.933 31.5638 169.151 31.9188 166.816C32.6128 162.255 28.9868 158.596 26.1218 160.966ZM118.578 191.941C107.511 195.5 105.371 208.046 115.454 210.261C119.159 211.074 120.016 213.214 117.673 215.802C115.136 218.606 109.139 218.1 107.764 214.966C106.681 212.498 103.251 211.866 103.251 214.134C103.251 214.914 102.991 216.229 102.674 217.057C101.6 219.854 105.813 222.716 111.001 222.714C125.162 222.71 132.806 207.104 120.07 204.199C116.09 203.291 115.005 201.513 116.836 198.898C118.92 195.923 125.198 195.798 125.961 198.716C126.968 202.565 130.251 201.158 130.251 196.877C130.251 191.315 126.049 189.538 118.578 191.941ZM154.578 191.941C143.511 195.5 141.371 208.046 151.454 210.261C155.159 211.074 156.016 213.214 153.673 215.802C151.136 218.606 145.139 218.1 143.764 214.966C142.438 211.943 139.607 212.076 139.012 215.188C138.014 220.406 140.159 222.216 147.337 222.216C162.069 222.216 168.662 208.41 155.975 204.127C150.088 202.14 151.962 196.716 158.536 196.716C160.597 196.716 161.59 197.296 161.961 198.716C162.249 199.816 163.279 200.716 164.251 200.716C165.223 200.716 166.253 199.816 166.541 198.716C168.176 192.464 162.662 189.341 154.578 191.941ZM187.613 201.466C183.908 206.829 179.13 213.691 176.996 216.716C172.495 223.094 174.344 225.709 179.188 219.816C182.846 215.366 190.936 215.134 191.435 219.466C192.16 225.772 197.946 223.802 198.612 217.022C200.794 194.797 200.645 191.716 197.393 191.716C194.669 191.716 193.639 192.743 187.613 201.466ZM192.794 206.279C192.18 210.371 191.9 210.716 189.19 210.716C185.549 210.716 185.547 210.761 189.501 204.762C193.089 199.319 193.789 199.641 192.794 206.279ZM54.2508 215.454C40.4158 225.908 42.1708 225.358 38.0038 220.545C33.4508 215.285 32.6758 217.775 37.0768 223.525C38.6308 225.555 41.8578 229.887 44.2488 233.151C47.9998 238.273 48.6988 238.821 49.3528 237.151C50.4808 234.269 50.3948 233.716 48.8188 233.716C44.6118 233.716 43.0778 227.95 46.5748 225.283C50.8588 222.015 51.6468 222.059 54.2508 225.716C55.4258 227.366 56.8068 228.716 57.3188 228.716C59.0558 228.716 58.2628 225.546 56.0838 223.782C53.5638 221.741 54.1578 218.815 57.2558 218.004C58.5448 217.667 59.2508 216.64 59.2508 215.099C59.2508 212.116 58.6098 212.161 54.2508 215.454ZM247.108 218.232C244.209 219.807 239.598 220.334 237.251 219.36C234.045 218.029 233.232 220.007 234.83 225.254C235.661 227.983 236.208 232.016 236.046 234.216C235.703 238.871 238.992 239.477 242.34 235.376C244.303 232.971 244.914 233.708 245.458 239.139C245.915 243.7 247.574 243.216 251.62 237.342C253.673 234.362 256.231 231.693 257.306 231.412C261.296 230.369 258.411 227.431 253.98 228.026C248.974 228.697 246.827 230.531 250.058 231.376C252.212 231.939 252.242 232.068 250.636 233.843C245.787 239.201 245.973 231.569 250.83 225.895C253.755 222.477 254.12 221.603 252.83 221.108C251.961 220.775 251.251 219.65 251.251 218.609C251.251 216.372 250.635 216.316 247.108 218.232ZM244.131 229.855C241.218 233.217 238.664 235.455 238.455 234.829C238.246 234.202 240.459 230.939 243.371 227.577C246.284 224.215 248.838 221.977 249.047 222.603C249.256 223.23 247.043 226.493 244.131 229.855ZM243.251 223.542C243.251 223.996 242.126 225.424 240.751 226.716C238.251 229.065 238.251 229.065 238.251 225.89C238.251 223.171 238.609 222.716 240.751 222.716C242.126 222.716 243.251 223.088 243.251 223.542ZM73.8898 233.41C73.5388 233.762 73.2508 235.549 73.2508 237.383C73.2508 241.003 71.5898 241.989 71.0708 238.676C70.5398 235.292 68.7508 236.505 68.7508 240.249C68.7508 243.736 67.2038 245.152 64.1048 244.501C63.3598 244.344 62.7458 244.986 62.7388 245.928C62.7328 246.869 62.1708 248.196 61.4888 248.878C59.9548 250.412 59.8718 252.716 61.3498 252.716C61.9538 252.716 63.7668 251.304 65.3788 249.579C66.9908 247.853 68.6328 246.765 69.0288 247.161C69.4238 247.556 68.9608 248.455 67.9988 249.158C65.6328 250.888 65.7928 253.363 68.3128 254.022C69.4468 254.318 70.2928 255.158 70.1938 255.888C69.4828 261.131 70.1148 261.993 74.1908 261.342C76.4578 260.979 78.3928 261.137 78.7498 261.714C79.7958 263.407 81.2508 262.826 81.2508 260.716C81.2508 259.538 80.5838 258.716 79.6288 258.716C78.3098 258.716 78.2358 258.439 79.2338 257.237C80.1688 256.11 80.9328 256.011 82.4418 256.818C85.0138 258.194 85.9998 257.146 84.4578 254.676C83.1018 252.504 85.7368 248.711 88.0638 249.487C88.7268 249.708 89.2508 248.963 89.2508 247.799C89.2508 246.654 88.7578 245.716 88.1548 245.716C86.0988 245.716 81.0118 241.482 82.1918 240.752C82.8118 240.369 83.0238 239.288 82.6638 238.35C82.0678 236.796 81.8008 236.781 79.6648 238.18C76.4888 240.261 76.2508 240.163 76.2508 236.775C76.2508 233.84 75.1008 232.2 73.8898 233.41ZM213.847 241.466C214.519 245.139 214.493 245.18 212.564 243.466C210.597 241.719 206.251 241.037 206.251 242.475C206.251 242.893 207.151 243.797 208.251 244.484C209.351 245.171 210.251 246.249 210.251 246.879C210.251 247.556 209.502 247.348 208.422 246.371C206.498 244.63 202.251 244.095 202.251 245.594C202.251 246.077 203.263 247.178 204.501 248.042C206.504 249.439 206.547 249.617 204.894 249.664C203.621 249.7 203.228 250.213 203.644 251.298C203.978 252.168 204.251 253.743 204.251 254.798C204.251 257.449 206.093 257.202 211.393 253.841C215.763 251.07 215.911 251.045 215.509 253.146C215.267 254.41 213.13 256.538 210.422 258.21C207.159 260.225 206.256 261.205 207.427 261.464C208.349 261.668 210.887 260.708 213.067 259.332C215.248 257.956 217.306 257.104 217.641 257.439C218.812 258.61 218.239 260.716 216.751 260.716C215.926 260.716 215.251 261.115 215.251 261.603C215.251 262.567 220.951 263.683 221.757 262.877C222.645 261.988 222.275 257.849 221.251 257.216C219.425 256.087 220.208 254.927 224.724 252.07C228.79 249.498 229.006 249.17 227.101 248.465C225.534 247.885 224.367 248.327 222.476 250.218C219.249 253.445 218.576 252.77 220.796 248.535C223.41 243.551 224.251 241.789 224.251 241.303C224.251 240.082 220.53 240.256 219.001 241.547C217.402 242.898 217.251 242.796 217.251 240.371C217.251 238.363 216.753 237.716 215.206 237.716C213.387 237.716 213.236 238.131 213.847 241.466ZM83.3328 246.325C84.6228 247.889 84.5628 247.944 82.6688 246.934C81.5238 246.324 79.9488 245.052 79.1688 244.107C77.8788 242.543 77.9388 242.488 79.8328 243.498C80.9778 244.108 82.5528 245.38 83.3328 246.325ZM73.2508 244.157C73.2508 244.4 72.7308 244.919 72.0958 245.311C71.3808 245.754 71.2128 245.586 71.6558 244.871C72.3678 243.718 73.2508 243.323 73.2508 244.157ZM76.4338 247.933C75.7168 248.65 75.2508 248.709 75.2508 248.083C75.2508 246.748 76.4338 245.565 77.1008 246.233C77.3848 246.517 77.0848 247.282 76.4338 247.933ZM217.251 247.121C217.251 247.855 208.104 252.903 207.632 252.43C207.377 252.176 209.1 250.803 211.46 249.381C215.571 246.902 217.251 246.247 217.251 247.121ZM80.4338 250.933C79.7168 251.65 79.2508 251.709 79.2508 251.083C79.2508 249.748 80.4338 248.565 81.1008 249.233C81.3848 249.517 81.0848 250.282 80.4338 250.933ZM73.2508 251.216C73.2508 252.041 72.5208 252.716 71.6288 252.716C70.2998 252.716 70.2308 252.445 71.2508 251.216C71.9358 250.391 72.6658 249.716 72.8728 249.716C73.0808 249.716 73.2508 250.391 73.2508 251.216ZM77.2508 254.216C77.2508 255.041 76.8148 255.716 76.2818 255.716C75.7498 255.716 75.5728 255.041 75.8888 254.216C76.2058 253.391 76.6418 252.716 76.8578 252.716C77.0738 252.716 77.2508 253.391 77.2508 254.216ZM109.284 254.918C109.251 257.62 109.251 257.62 104.548 256.205C97.3508 254.039 97.0318 256.334 104.201 258.699C106.428 259.435 108.251 260.444 108.251 260.943C108.251 261.969 104.395 260.986 102.513 259.481C101.659 258.798 101.142 258.914 100.847 259.853C100.611 260.603 99.5108 264.029 98.4008 267.466C96.4428 273.528 96.4388 273.716 98.2578 273.716C99.6418 273.716 100.486 272.47 101.472 268.966C102.477 265.398 103.344 264.139 104.957 263.906C107.117 263.594 106.311 268.389 102.761 276.966C102.214 278.289 102.523 278.716 104.027 278.716C105.237 278.716 106.266 277.834 106.651 276.466C107.256 274.316 107.346 274.297 108.692 276.054C110.997 279.062 113.489 277.662 115.531 272.211C118.166 265.18 118.135 264.268 115.251 263.882C113.876 263.697 112.301 263.078 111.751 262.506C110.738 261.452 111.321 261.512 119.115 263.258C122.271 263.965 122.413 263.887 121.397 261.989C120.713 260.711 119.301 259.966 117.563 259.966C116.007 259.966 114.364 259.208 113.781 258.222C110.736 253.069 109.32 252.028 109.284 254.918ZM186.451 255.347C184.958 256.945 181.643 257.16 180.751 255.716C179.976 254.462 175.251 254.391 175.251 255.633C175.251 256.137 175.814 256.75 176.501 256.996C178.469 257.698 176.924 258.66 173.179 259.063C170.164 259.388 169.713 259.811 169.438 262.574C169.075 266.211 172.056 267.177 172.961 263.716C173.249 262.616 173.893 261.716 174.393 261.716C175.453 261.716 172.754 267.287 171.242 268.222C169.032 269.587 171.409 270.375 175.751 269.716C180.706 268.964 180.671 268.945 181.62 272.917C182.252 275.567 178.661 277.687 173.501 277.71C172.814 277.713 172.251 278.215 172.251 278.825C172.251 279.506 173.508 279.755 175.501 279.47C181.246 278.647 196.251 274.418 196.251 273.622C196.251 271.951 192.435 271.777 189.365 273.309C185.613 275.181 185.48 275.113 184.636 270.893C184.048 267.953 184.231 267.67 187.096 267.097C190.562 266.404 192.103 263.447 190.196 261.149C189.22 259.973 189.305 259.314 190.62 257.861C192.159 256.16 192.119 255.977 189.998 255.01C188.301 254.237 187.409 254.322 186.451 255.347ZM137.251 260.323C137.251 261.341 136.701 261.719 135.751 261.354C134.544 260.891 134.251 261.732 134.251 265.664C134.251 268.635 133.761 270.748 133.001 271.057C132.038 271.447 132.072 271.788 133.146 272.539C134.545 273.516 134.332 279.023 132.743 282.966C131.295 286.557 134.393 284.617 136.063 280.887C137.012 278.768 138.33 277.242 139.014 277.47C140.794 278.064 140.539 279.716 138.668 279.716C136.434 279.716 137.447 281.983 140.33 283.437C144.001 285.288 147.373 281.502 148.016 274.805C148.714 267.548 150.251 268.505 150.251 276.197C150.251 282.333 150.389 282.712 152.836 283.327C156.249 284.183 158.375 282.052 157.184 278.966C156.146 276.278 154.59 276.041 153.899 278.466C153.625 279.428 153.44 277.291 153.487 273.716C153.573 267.216 153.573 267.216 150.469 267.462C148.761 267.597 147.087 267.26 146.749 266.712C146.371 266.101 148.087 265.716 151.192 265.716C156.34 265.716 157.37 264.89 154.84 262.79C153.883 261.996 153.222 261.954 152.786 262.66C152.406 263.275 151.175 262.578 149.782 260.959C147.167 257.92 145.458 258.366 147.205 261.63C148.093 263.29 148.031 263.716 146.9 263.716C144.452 263.716 140.577 261.239 141.007 259.949C141.245 259.235 140.541 258.716 139.334 258.716C138.088 258.716 137.251 259.361 137.251 260.323ZM186.251 259.216C186.251 259.491 186.026 259.716 185.751 259.716C185.476 259.716 185.251 259.491 185.251 259.216C185.251 258.941 185.476 258.716 185.751 258.716C186.026 258.716 186.251 258.941 186.251 259.216ZM181.251 260.646C181.251 261.158 182.228 261.721 183.423 261.896C187.231 262.457 186.591 264.547 182.253 265.715C179.983 266.327 177.39 267.109 176.49 267.455C175.207 267.947 175.328 267.417 177.052 264.995C178.262 263.297 179.251 261.414 179.251 260.812C179.251 260.209 179.701 259.716 180.251 259.716C180.801 259.716 181.251 260.135 181.251 260.646ZM140.251 265.216C140.251 265.491 140.026 265.716 139.751 265.716C139.476 265.716 139.251 265.491 139.251 265.216C139.251 264.941 139.476 264.716 139.751 264.716C140.026 264.716 140.251 264.941 140.251 265.216ZM113.474 266.272C115.029 267.827 111.864 273.662 109.568 273.472C107.865 273.331 107.388 272.849 107.857 271.746C108.215 270.905 108.728 269.204 108.996 267.966C109.443 265.906 112.101 264.9 113.474 266.272ZM145.251 272.216C145.251 275.241 144.801 277.716 144.251 277.716C143.701 277.716 143.251 275.241 143.251 272.216C143.251 269.191 143.701 266.716 144.251 266.716C144.801 266.716 145.251 269.191 145.251 272.216ZM139.918 270.383C139.551 270.749 138.951 270.749 138.584 270.383C138.218 270.016 138.518 269.716 139.251 269.716C139.984 269.716 140.284 270.016 139.918 270.383Z" fill="currentColor" stroke="currentColor" stroke-width="2" mask="url(#path-1-inside-1_63_6)"/>
</svg>
