<svg viewBox="-8 -8 326 326" preserveAspectRatio="xMidYMid meet" fill="none" xmlns="http://www.w3.org/2000/svg">
<mask id="path-1-inside-1_63_8" fill="white">
<path fill-rule="evenodd" clip-rule="evenodd" d="M146.475 1.11899C140.075 2.67086 135.479 5.54193 127.959 12.6869C111.548 28.2778 97.8509 34.0406 74.6317 35.124C48.1036 36.3615 35.3669 48.8294 35.3669 73.5613C35.3669 94.7852 28.561 111.228 12.8787 127.887C-4.2956 146.133 -4.29311 163.858 12.8874 181.97C28.5011 198.431 34.2556 212.119 35.3388 235.372C36.6028 262.513 47.5122 273.431 74.6317 274.696C97.9332 275.783 111.546 281.557 128.37 297.489C145.965 314.151 164.24 314.17 181.67 297.546C198.374 281.613 212.087 275.785 235.431 274.696C262.55 273.431 273.46 262.513 274.723 235.372C275.81 212.053 281.579 198.429 297.499 181.592C314.148 163.983 314.167 145.694 297.556 128.251C281.635 111.533 275.812 97.8098 274.723 74.4476C273.483 47.8152 261.038 35.1521 236.105 35.1521C215.123 35.1521 198.617 28.2822 182.033 12.6463C170.097 1.39406 159.504 -2.04024 146.475 1.11899ZM161.389 4.64936C167.942 6.00661 173.13 9.10535 180.46 16.0388C197.147 31.82 211.444 37.7562 235.431 38.8621C260.06 39.9973 269.865 49.8093 270.992 74.4476C272.09 98.4609 278.02 112.756 293.827 129.496C310.21 146.844 310.196 163.181 293.786 180.398C278.125 196.828 272.093 211.375 270.988 235.372C269.893 259.174 258.589 270.899 236.702 270.937C214.375 270.976 197.184 277.964 180.426 293.815C163.09 310.21 146.766 310.197 129.563 293.773C113.108 278.064 95.6627 270.976 73.3603 270.937C51.4736 270.899 40.1696 259.174 39.074 235.372C37.9677 211.349 32.04 197.061 16.2349 180.324C-0.158461 162.964 -0.147866 146.844 16.2686 129.461C32.0306 112.769 37.9546 98.4853 39.0846 74.4476C39.7109 61.1252 40.8434 57.4663 46.5923 50.1873C52.7138 42.4367 59.8806 39.5419 74.6317 38.8621C98.6724 37.7537 112.913 31.8257 129.708 15.9353C140.795 5.44587 149.781 2.24484 161.389 4.64936ZM142.255 26.1758C32.9237 41.7731 -12.7805 166.898 62.4546 244.645C154.185 339.438 312.143 250.468 279.909 122.164C264.913 62.4762 200.865 17.8146 142.255 26.1758ZM174.04 31.0822C274.136 46.6045 315.282 169.149 244.8 241.83C170.08 318.882 40.485 272.767 30.331 165.513C22.794 85.9007 94.5708 18.7583 174.04 31.0822ZM170.647 42.6507C165.244 47.3037 165.307 47.7622 170.922 44.6672C175.537 42.1236 176.953 40.6241 175.815 39.4852C175.309 38.9793 173.923 39.8282 170.647 42.6507ZM136.645 41.8292C133.469 42.5814 123.869 47.2227 123.869 48.0067C123.869 49.5579 127.316 49.3153 129.166 47.6337C130.408 46.5047 134.814 43.8844 135.47 43.8844C135.66 43.8844 134.9 45.0402 133.783 46.453C132.211 48.4383 131.687 49.7837 131.472 52.3785C131.318 54.2248 130.942 55.7354 130.635 55.7354C129.482 55.7354 125.084 58.9234 125.44 59.5003C126.011 60.4241 128.416 60.2145 130.003 59.1024C131.644 57.9522 131.655 57.9585 132.22 60.3093C132.568 61.7595 132.416 62.1363 131.373 62.4095C129.716 62.8429 129.751 63.607 131.449 64.0511C134.693 64.9007 135.519 62.8847 134.099 57.5848C133.947 57.0185 134.58 56.1908 135.651 55.5577C137.752 54.3164 138.456 54.1986 137.842 55.1928C137.583 55.6113 137.74 55.786 138.228 55.6232C139.598 55.1666 140.453 53.3715 139.674 52.5912C139.179 52.0959 138.347 52.1764 136.651 52.8862C133.391 54.2491 133.217 54.1749 133.217 51.4204C133.217 49.3141 133.51 48.7951 135.335 47.6668C137.82 46.1292 139.686 43.5295 139.205 42.2745C138.854 41.3583 138.727 41.3364 136.645 41.8292ZM180.87 45.2878C179.928 48.578 179.527 49.2005 178.3 49.276C176.521 49.3858 176.434 48.8076 178.074 47.7828C179.528 46.874 179.11 45.1319 177.438 45.1319C175.37 45.1319 174.232 49.3521 175.923 50.7561C177.412 51.993 177 53.752 174.975 54.7998C173.189 55.7242 172.45 56.9829 173.693 56.9829C174.016 56.9829 175.293 56.3854 176.53 55.655C178.779 54.327 178.779 54.327 178.416 55.8109C176.313 64.4117 175.81 69.1477 176.98 69.3498C179.337 69.7565 179.731 68.8302 180.252 61.661C180.326 60.6318 180.47 59.6494 180.571 59.4779C180.671 59.3064 180.803 57.9266 180.864 56.4122C180.949 54.3189 181.319 53.4214 182.407 52.6698C186.689 49.712 187.992 46.8846 185.882 45.1319C185.093 44.477 184.947 44.6005 184.947 45.9222C184.947 47.7061 182.51 51.1541 182.475 49.4207C182.464 48.8631 182.875 47.2139 183.389 45.7556C184.616 42.2758 184.568 41.3895 183.155 41.3895C182.255 41.3895 181.728 42.2876 180.87 45.2878ZM171.547 45.717C167.109 47.0935 163.846 50.128 167.348 49.6234C168.389 49.4731 168.575 49.6927 168.3 50.7474C167.948 52.0928 164.074 55.1117 162.699 55.1117C161.358 55.1117 160.665 57.1919 161.587 58.4518C162.849 60.1802 164.681 59.2259 165.631 56.3448C166.819 52.7427 167.153 53.8037 166.063 57.7164C164.269 64.159 164.226 64.5888 165.399 64.3624C166.199 64.2077 166.948 62.2816 168.384 56.6835C169.969 50.5048 170.553 49.087 171.755 48.4913C174.751 47.0081 174.584 44.7745 171.547 45.717ZM89.8347 53.0939C88.921 53.7008 82.734 61.1844 82.734 61.6834C82.734 61.8967 83.604 61.8805 84.6673 61.6472C86.5539 61.2325 86.5907 61.2674 86.1874 63.1043C85.9468 64.2002 86.0815 65.4795 86.5096 66.1656C87.2351 67.3283 86.2921 69.8575 83.8403 73.3261C82.8082 74.7857 83.6639 75.4219 85.7069 74.7127C86.8506 74.316 87.6041 73.4596 88.0048 72.1017C88.3326 70.9909 88.8238 70.0814 89.0955 70.0814C89.8073 70.0814 89.7051 71.808 88.9665 72.2645C87.8696 72.9425 88.2996 74.4476 89.5898 74.4476C90.6194 74.4476 90.8363 74.8636 90.8363 76.8384C90.8363 79.9084 91.4477 80.4804 92.812 78.6859C93.7362 77.4696 94.0684 77.3723 95.017 78.0379C97.9226 80.0769 98.9884 79.8417 104.241 76.007C108.199 73.1166 108.264 72.8876 105.862 70.2567C104.871 69.1708 104.179 68.1634 104.323 68.0187C104.468 67.874 103.877 67.2902 103.009 66.7207C101.106 65.4726 101.018 65.8762 102.683 68.2171C105.149 71.6826 104.988 73.3916 101.991 75.5978C97.1448 79.1643 96.5459 78.5406 98.0417 71.4849C98.8494 67.6726 95.9799 68.8502 92.8861 73.6006C92.4181 74.3185 92.4773 73.7216 93.0419 72.03C94.4162 67.9121 94.2866 67.3638 92.0435 67.8129C90.1345 68.1946 90.1345 68.1946 91.3847 66.6041C93.2663 64.2102 94.299 60.701 93.3025 60.0854C92.0634 59.3188 91.1485 59.9544 89.6483 62.6253C88.8867 63.9819 88.0946 65.0915 87.8876 65.0915C87.6814 65.0915 87.6969 64.9069 87.9226 64.6811C88.1482 64.4553 88.0216 63.8958 87.6415 63.4374C87.1136 62.8012 87.558 61.5805 89.5162 58.2809C92.6119 53.0665 92.7278 51.1728 89.8347 53.0939ZM214.039 61.7065C212.269 62.9103 211.027 63.2708 209.065 63.1492C206.326 62.9802 205.766 63.9619 207.737 65.477C209.081 66.5099 207.434 67.6688 205.136 67.3077C198.735 66.301 198.601 66.3122 199.383 67.7817C199.782 68.5321 200.5 69.4346 200.978 69.7883C201.655 70.2873 201.701 70.8175 201.189 72.1678C199.892 75.5816 201.788 75.7868 204.965 72.5758C207.477 70.0359 213.422 68.8758 214.552 70.7052C214.764 71.0482 214.516 71.3289 214.002 71.3289C212.37 71.3289 212.193 72.6188 213.617 74.1357C215.134 75.7525 214.842 76.9426 212.927 76.9426C212.119 76.9426 211.388 76.2359 210.83 74.9154C209.974 72.8883 209.974 72.8883 209.262 74.752C208.343 77.1521 210.123 78.8138 213.61 78.8138C215.958 78.8138 215.958 78.8138 216.671 83.6097C217.495 89.1566 217.507 89.1778 218.84 87.843C220.067 86.6149 220.086 85.6837 218.964 81.4666C218.094 78.1938 218.094 78.1938 219.906 76.902C222.514 75.0433 222.201 73.963 218.805 73.1072C215.654 72.3132 216.145 71.7618 220.686 70.9933C224.102 70.4151 224.835 70.0297 224.835 68.8115C224.835 68.0799 224.517 67.748 224.005 67.9445C223.391 68.1803 223.247 67.7667 223.452 66.3658C223.818 63.869 222.531 63.8578 220.356 66.339C218.914 67.9832 218.311 68.209 215.387 68.2009C210.694 68.1871 209.519 67.2653 213.042 66.3608C214.558 65.9723 216.149 65.5363 216.577 65.3922C217.413 65.1115 217.698 60.1016 216.878 60.1016C216.615 60.1016 215.338 60.8239 214.039 61.7065ZM145.059 71.7075C128.791 74.6796 126.635 75.5423 128.049 78.5094C128.902 80.3008 129.381 80.6838 130.39 80.385C165.51 69.981 200.661 82.2038 220.22 111.621C224.509 118.074 226.972 117.001 202.524 119.333C175.201 121.94 175.953 121.67 163.405 133.391C146.331 149.339 137.735 149.279 120.544 133.092C109.295 122.499 106.518 121.276 91.3037 120.219C87.9612 119.986 85.227 119.614 85.227 119.392C85.227 117.411 93.3199 106.289 99.3212 100.021C103.801 95.3429 103.801 95.3429 102.29 93.1598C100.043 89.9138 86.0883 105.141 80.5601 116.871C79.5267 119.064 79.5267 119.064 68.5095 118.031C62.4503 117.463 57.3951 117.089 57.2754 117.199C55.5596 118.785 70.8978 132.455 74.3936 132.455C79.3292 132.455 79.4694 131.695 74.7875 130.319C71.6725 129.403 63.268 121.789 64.2677 120.788C64.3493 120.707 68.3275 121.033 73.1079 121.513C77.8882 121.993 86.567 122.84 92.3944 123.394C106.123 124.7 107.931 125.516 117.899 134.905C129.67 145.991 134.235 148.34 143.189 147.92C151.661 147.521 154.478 145.979 165.459 135.725C172.702 128.962 175.684 126.756 179.533 125.313C181.66 124.515 219.748 120.296 220.254 120.801C221.083 121.632 211.614 129.953 209.098 130.604C204.972 131.671 205.407 132.455 210.123 132.455C214.11 132.455 214.11 132.455 219.583 126.166C225.856 118.958 225.236 118.826 228.607 128.082C233.99 142.863 234.767 158.71 230.862 174.097C229.51 179.427 229.51 179.427 202.242 179.292C186.207 179.212 174.975 179.39 174.975 179.723C174.975 180.035 175.566 180.824 176.288 181.478C180.154 184.977 181.751 194.235 179.705 201.279C178.425 205.686 178.057 205.672 173.566 201.051C164.46 191.679 164.933 188.471 177.534 174.172C182.37 168.683 186.165 164.029 185.966 163.83C184.525 162.388 159.703 164.655 159.135 166.281C158.365 168.481 159.051 169.136 160.63 167.706C161.901 166.555 179.961 165.335 179.961 166.4C179.961 166.639 176.842 170.374 173.031 174.698C162.08 187.122 161.54 192.487 170.267 202.158C173.047 205.24 173.131 205.433 171.698 205.433C166.501 205.433 155.976 189.855 156.452 182.865C156.781 178.017 155.953 176.193 154.212 177.935C150.578 181.572 153.54 191.818 160.399 199.338C165.674 205.121 165.674 205.121 163.385 205.319C161.181 205.511 154.864 199.891 150.789 194.113C149.834 192.76 148.603 192.627 147.651 193.774C147.133 194.399 148.061 195.826 151.608 199.856C158.571 207.769 155.894 207.811 147.93 199.914C142.254 194.285 142.254 194.285 136.47 199.859C131.098 205.035 125.518 208.26 129.253 204.029C137.315 194.899 137.625 194.439 136.436 193.363C135.363 192.39 134.987 192.685 129.429 198.87C123.677 205.271 123.501 205.405 120.819 205.418C118.082 205.433 118.082 205.433 123.507 199.8C129.694 193.378 131.316 190.408 131.33 185.473C131.34 182.167 130.386 177.365 129.719 177.365C128.089 177.365 127.071 178.757 127.628 180.223C129.837 186.04 127.809 190.976 119.728 199.454C113.33 206.168 108.612 208.515 114.071 202.27C122.975 192.083 122.384 187.154 110.662 173.855C104.289 166.624 116.436 160.965 123.873 167.7C125.46 169.138 126.033 168.584 125.286 166.332C124.644 164.396 120.912 163.923 104.704 163.721C96.9067 163.625 96.7029 162.561 106.651 173.88C120.206 189.3 120.34 191.644 108.327 203.406C102.434 209.175 102.434 209.175 117.06 209.175C131.687 209.175 131.687 209.175 136.957 203.873C142.228 198.57 142.228 198.57 147.552 203.873C152.875 209.175 152.875 209.175 182.121 209.175C215.025 209.175 213.586 208.627 202.686 217.003C157.16 251.985 91.3535 227.832 78.5457 171.439C75.9804 160.144 76.312 138.965 79.002 142.289C80.3874 144.002 85.8502 144.368 85.8502 142.747C85.8502 142.155 85.2544 141.811 84.2298 141.811C82.81 141.811 77.7112 137.771 78.4441 137.226C80.0048 136.066 109.899 137.754 111.221 139.077C113.842 141.7 114.571 140.892 112.993 137.113C112.09 134.95 112.09 134.95 102.866 134.948C97.7917 134.947 88.7328 134.761 82.734 134.535C72.9521 134.166 71.9087 134.222 72.6192 135.084C73.2631 135.865 73.2225 137.202 72.403 142.203C59.6163 220.259 155.998 269.989 213.106 214.801C218.914 209.188 218.914 209.188 223.589 209.178C238.842 209.147 246.333 194.063 236.16 183.864C234.243 181.943 234.243 181.943 235.704 176.63C251.02 120.919 199.855 61.694 145.059 71.7075ZM218.603 75.0714C218.603 75.4144 218.182 75.6951 217.668 75.6951C217.154 75.6951 216.733 75.4144 216.733 75.0714C216.733 74.7283 217.154 74.4476 217.668 74.4476C218.182 74.4476 218.603 74.7283 218.603 75.0714ZM110.287 76.1117C104.305 79.062 103.013 86.9573 107.723 91.7788C114.029 98.2333 124.492 93.9176 124.492 84.8628C124.492 77.804 116.65 72.9731 110.287 76.1117ZM59.4929 83.3752C58.9644 84.753 59.7609 87.7576 61.1763 89.7292C62.1848 91.1333 62.4322 92.1456 62.1667 93.7835C61.8133 95.9666 61.8133 95.9666 60.5874 93.7835C58.6385 90.3118 58.487 95.1464 60.4178 99.1926C62.3412 103.223 65.4238 102.954 65.225 98.7734C64.9451 92.8897 65.5316 92.0701 67.1265 96.1176C67.7953 97.8154 67.7703 98.4653 66.9713 100.172C64.5413 105.362 62.9345 110.016 63.4599 110.341C64.2702 110.843 65.2829 110.101 65.2829 109.008C65.2829 108.229 68.0714 102.105 68.7819 101.324C68.9103 101.184 69.5684 101.57 70.2446 102.182C70.9626 102.832 72.0016 103.158 72.7414 102.964C74.3955 102.531 74.3562 103.624 72.6535 105.439C71.5497 106.614 71.4837 106.882 72.2964 106.882C73.6314 106.882 75.8782 103.942 75.8782 102.197C75.8782 101.427 76.2989 100.448 76.8131 100.021C78.408 98.6961 77.8639 97.8597 74.6685 96.7244C71.1041 95.457 71.0985 94.184 74.6367 90.0361C75.6588 88.8379 76.1998 87.7588 75.8389 87.6378C74.8424 87.3041 72.8087 89.3943 70.9227 92.6914C69.991 94.3199 69.0418 95.4664 68.8137 95.2381C68.1069 94.5308 68.3942 92.2828 69.354 91.0135C72.3182 87.0908 69.3291 80.8509 65.9984 84.0102C64.3481 85.5757 64.3481 85.5757 63.2281 84.0663C62.0152 82.4309 59.9984 82.0579 59.4929 83.3752ZM62.4621 86.2675C63.5628 88.3975 63.6238 88.7936 62.851 88.7936C62.4048 88.7936 60.9202 85.6038 60.9202 84.6464C60.9202 83.921 61.6419 84.6801 62.4621 86.2675ZM67.8894 85.2071C68.5974 87.4457 67.493 90.9337 66.6055 89.2608C66.1069 88.3208 65.9162 86.9686 66.1499 86.0348C66.5768 84.3326 67.4774 83.9041 67.8894 85.2071ZM232.938 94.5938C232.938 95.4009 233.639 96.7201 234.496 97.526C236.675 99.5743 236.484 99.9205 232.924 100.393C227.211 101.152 228.34 103.225 234.367 103.042C236.353 102.982 238.094 102.744 238.237 102.512C238.38 102.281 240.261 102.336 242.417 102.634C245.514 103.063 246.894 102.965 248.986 102.171C251.744 101.124 252.703 99.6173 250.214 100.242C246.104 101.275 245.359 99.4577 249.108 97.5434C251.546 96.2991 252.707 94.6069 251.768 93.6675C251.476 93.375 249.103 94.1235 246.491 95.331C240.625 98.0437 240.233 98.043 236.202 95.326C232.982 93.1567 232.938 93.1467 232.938 94.5938ZM73.3852 99.739C73.3852 101.074 71.574 101.296 70.904 100.043C69.8514 98.0749 70.7626 96.5916 72.216 97.9077C72.8592 98.4903 73.3852 99.3142 73.3852 99.739ZM235.844 106.102C236.085 107.045 236.25 108.281 236.211 108.848C236.151 109.725 237.667 110.586 239.326 110.616C240.312 110.634 239.726 108.471 238.203 106.473C236.264 103.928 235.249 103.768 235.844 106.102ZM251.428 125.387C250.274 126.541 251.429 128.669 255.556 132.995C261.521 139.247 262.591 140.661 260.205 139.136C257.87 137.644 258.047 138.64 260.547 141.066C262.624 143.081 264.473 142.885 263.65 140.737C263.455 140.23 263.979 140.5 264.815 141.336C269.155 145.679 274.618 145.649 272.114 141.297C270.397 138.311 270.767 137.617 273.36 138.958C274.403 139.499 275.691 139.94 276.222 139.94C278.014 139.94 277.206 138.89 274.54 137.75C273.083 137.128 271.261 135.892 270.492 135.005C269.722 134.117 269.091 133.733 269.089 134.151C269.087 134.61 268.655 134.754 267.995 134.513C267.046 134.167 267.066 134.302 268.151 135.559C269.398 137.003 269.398 137.003 268.03 136.285C265.964 135.201 265.78 134.478 267.185 132.969C269.049 130.966 268.756 130.525 266.254 131.571C263.553 132.701 262.349 132.177 263.845 130.522C265.009 129.234 263.701 128.811 261.347 129.715C260.364 130.093 259.939 131.831 260.828 131.832C261.085 131.833 262.11 132.535 263.107 133.392C264.996 135.019 264.872 135.407 262.812 134.305C261.971 133.854 261.607 133.86 261.607 134.324C261.607 134.69 262.048 135.159 262.588 135.366C263.264 135.626 263.454 136.203 263.2 137.218C262.819 138.735 264.222 139.386 265.035 138.069C265.729 136.945 267.091 137.411 269.354 139.546C272.019 142.062 272.335 143.377 270.021 142.322C269.164 141.931 268.463 141.412 268.463 141.168C268.463 140.925 267.262 140.389 265.794 139.978C263.4 139.307 262.581 138.497 257.847 132.105C252.578 124.99 252.209 124.604 251.428 125.387ZM40.5473 130.428C38.7013 137.425 40.3541 149.969 42.8316 147.765C45.2691 145.596 51.2479 150.917 49.5334 153.729C48.0762 156.119 53.3047 157.9 56.5986 156.136C58.0526 155.357 58.1816 154.286 56.8211 154.286C54.7132 154.286 51.7179 150.436 53.3545 149.83C55.0342 149.208 54.8466 148.023 52.9133 147.05C52.1635 146.672 51.3894 146.204 51.1943 146.008C50.7967 145.61 49.7241 141.188 50.0251 141.188C50.4788 141.188 56.4508 149.147 57.2442 150.809C59.023 154.536 61.2792 152.719 60.2951 148.352C59.8301 146.29 59.9292 145.804 60.9582 145.083C63.5565 143.261 62.0084 140.531 55.8008 135.991C54.5281 135.059 52.5724 133.462 51.4555 132.441C48.5424 129.779 47.2086 130.204 47.2086 133.796C47.2086 134.76 46.9263 134.945 45.9322 134.629C45.2086 134.399 44.2195 134.584 43.6493 135.054C42.7356 135.809 42.6814 135.554 43.0615 132.299C43.5364 128.228 41.5233 126.73 40.5473 130.428ZM244.347 135.73C242.638 140.603 242.981 140.996 248.109 140.051C253.09 139.132 253.504 139.136 253.507 140.096C253.509 141.443 258.2 146.431 258.999 145.936C260.221 145.181 259.861 143.908 257.175 139.484C252.901 132.443 251.222 131.221 251.805 135.574C252.14 138.069 252.14 138.069 249.462 138.069C246.511 138.069 245.577 136.645 246.393 133.391C247.188 130.223 245.669 131.959 244.347 135.73ZM52.9787 136.115C54.6098 137.652 56.7787 139.492 57.7983 140.204C59.4649 141.369 60.5973 143.704 59.023 142.73C58.0451 142.125 56.5817 143.625 56.9831 144.82C57.1763 145.395 55.3502 143.761 52.9245 141.188C46.1871 134.04 46.2333 129.761 52.9787 136.115ZM185.736 134.794C172.502 134.975 172.502 134.975 171.557 136.803C169.76 140.28 170.854 141.946 173.105 139.161C174.112 137.914 204.571 136.128 206.065 137.228C206.8 137.769 201.697 141.811 200.279 141.811C199.255 141.811 198.659 142.155 198.659 142.747C198.659 145.689 204.064 143.822 207.811 139.587C212.674 134.09 212.776 134.306 205.41 134.469C201.868 134.548 193.015 134.694 185.736 134.794ZM47.2086 141.855C47.2086 145.489 47.2086 145.489 45.3389 144.837C43.7876 144.295 43.4723 143.85 43.4878 142.218C43.504 140.581 43.6131 140.434 44.1423 141.344C45.2242 143.202 45.6692 142.56 45.4255 139.49C45.2142 136.836 45.2909 136.629 46.2002 137.384C46.9182 137.98 47.2086 139.268 47.2086 141.855ZM83.2893 147.168C88.1257 153.322 93.9525 156.359 93.9525 152.727C93.9525 152.21 93.3997 151.791 92.716 151.791C92.0354 151.791 90.5633 150.957 89.4439 149.938C87.4084 148.086 87.4084 148.086 101.271 148.067C114.468 148.049 115.17 148.109 115.911 149.296C117.491 151.829 118.85 150.652 117.576 147.854C116.721 145.976 112.554 145.563 94.3745 145.558C82.0204 145.554 82.0204 145.554 83.2893 147.168ZM170.855 146.01C167.748 146.231 166.25 147.512 166.25 149.949C166.25 151.009 167.798 150.578 168.598 149.296C169.339 148.109 170.041 148.049 183.238 148.067C197.101 148.086 197.101 148.086 195.065 149.938C193.946 150.957 192.474 151.791 191.793 151.791C191.109 151.791 190.556 152.21 190.556 152.727C190.556 154.795 195.097 153.871 197.455 151.323C203.382 144.921 204.381 145.54 188.328 145.669C180.47 145.733 172.607 145.886 170.855 146.01ZM91.447 156.54C96.0124 161.856 96.6842 162.395 98.7491 162.395C100.164 162.395 100.808 162.102 100.808 161.459C100.808 160.945 100.296 160.524 99.6702 160.524C99.0445 160.524 97.874 159.822 97.0688 158.964C95.2576 157.035 117.804 156.414 119.728 158.34C121.69 160.303 122.678 158.033 120.765 155.96C119.144 154.203 89.9369 154.781 91.447 156.54ZM168.561 155.374C164.105 155.57 163.648 155.713 163.007 157.122C162.115 159.08 162.788 159.783 164.27 158.441C166.488 156.431 189.334 156.948 187.44 158.964C186.635 159.822 185.465 160.524 184.839 160.524C184.213 160.524 183.701 160.945 183.701 161.459C183.701 164.013 187.701 162.491 191.078 158.652C194.558 154.695 192.121 154.34 168.561 155.374ZM231.379 183.966C238.659 187.761 239.012 200.606 231.948 204.643C226.692 207.646 181.769 206.662 182.834 203.567C184.728 198.065 184.409 188.673 182.149 183.399C181.344 181.519 227.71 182.053 231.379 183.966ZM247.589 191.689C247.256 193.204 247.593 194.076 249.449 196.51C250.696 198.144 251.487 199.535 251.208 199.602C250.929 199.669 249.072 199.908 247.082 200.132C243.954 200.486 243.383 200.757 242.858 202.138C242.008 204.376 242.155 204.413 248.728 203.637C254.423 202.965 254.721 202.993 258.185 204.526C260.152 205.397 261.83 206.027 261.912 205.927C262.42 205.308 263.542 202.804 263.372 202.67C263.258 202.582 261.575 201.862 259.633 201.07C256.554 199.817 255.638 199.003 252.501 194.736C248.478 189.262 248.164 189.067 247.589 191.689ZM57.9043 194.608C55.2006 198.726 55.2006 198.726 52.6066 198.375C42.6583 197.027 43.4411 196.964 44.2301 199.055C44.9581 200.985 46.7393 201.666 51.104 201.684C53.2585 201.692 53.2567 201.711 50.6708 205.554C48.6091 208.618 48.5611 208.818 49.4661 210.57C50.4296 212.435 51.7615 211.114 56.2583 203.831C56.8304 202.905 57.3832 202.88 61.7279 203.582C67.0262 204.437 67.6544 204.26 66.7239 202.172C66.2446 201.097 65.2798 200.623 62.5843 200.139C59.0697 199.507 59.0697 199.507 60.9526 196.623C62.6167 194.074 62.7488 193.549 62.0894 192.101C61.0729 189.869 60.9788 189.925 57.9043 194.608ZM189.31 194.517C189.31 196.093 189.31 196.093 210.656 195.929C231.533 195.769 232.003 195.737 232.003 194.517C232.003 193.297 231.533 193.266 210.656 193.106C189.31 192.942 189.31 192.942 189.31 194.517ZM61.0847 211.753C53.3863 216.397 48.9955 222.871 56.1386 219.045C57.4412 218.348 70.3861 210.428 70.785 210.085C75.2824 206.216 68.2608 207.423 61.0847 211.753ZM236.993 211.826C233.861 216.505 233.644 217.043 234.609 217.752C236.084 218.837 236.268 218.77 237.491 216.697C238.574 214.862 238.574 214.862 245.214 219.266C251.405 223.371 251.911 223.593 252.68 222.541C253.959 220.79 253.863 220.673 247.74 216.593C240.359 211.675 240.668 212.019 241.924 210.101C242.764 208.818 242.834 208.276 242.251 207.574C241.03 206.101 240.585 206.461 236.993 211.826ZM66.8411 219.52C63.0704 222.463 59.7672 225.081 59.5004 225.337C59.2343 225.592 59.8862 226.902 60.9495 228.248C70.1842 239.931 85.2189 229.034 76.4036 217.047C73.8128 213.524 74.871 213.251 66.8411 219.52ZM136.178 215.235C134.407 215.504 133.73 217.284 135.399 217.284C136.126 217.284 136.334 218.115 136.334 221.026C136.334 223.937 136.126 224.769 135.399 224.769C134.885 224.769 134.464 225.19 134.464 225.704C134.464 226.423 135.26 226.64 137.892 226.64C140.523 226.64 141.32 226.423 141.32 225.704C141.32 225.19 140.899 224.769 140.385 224.769C139.632 224.769 139.45 223.798 139.45 219.779C139.45 216.153 139.237 214.814 138.671 214.882C138.243 214.934 137.12 215.093 136.178 215.235ZM145.343 216.32C142.579 219.086 145.014 223.437 148.89 222.661C150.92 222.254 151.128 223.211 149.265 224.386C148.506 224.865 147.933 224.742 147.005 223.902C145.695 222.715 144.436 222.994 144.436 224.472C144.436 226.785 149.911 227.401 151.859 225.308C156.862 219.935 150.499 211.159 145.343 216.32ZM156.866 215.939C155.958 216.675 155.589 217.462 155.843 218.122C156.393 219.557 158.196 219.416 158.59 217.908C159.003 216.326 160.64 216.268 160.64 217.835C160.64 218.485 160.084 219.155 159.394 219.336C157.655 219.791 157.839 220.814 159.746 221.293C160.952 221.596 161.297 222.033 161.148 223.075C160.879 224.971 158.147 225.417 158.147 223.565C158.147 222.69 157.746 222.274 156.901 222.274C155.401 222.274 155.155 224.825 156.543 225.978C159.642 228.552 166.295 224.651 164.218 221.478C163.583 220.51 163.438 219.679 163.802 219.104C165.792 215.957 160.067 213.345 156.866 215.939ZM169.833 215.235C168.063 215.504 167.386 217.284 169.054 217.284C169.782 217.284 169.989 218.115 169.989 221.026C169.989 223.937 169.782 224.769 169.054 224.769C168.54 224.769 168.119 225.19 168.119 225.704C168.119 226.423 168.916 226.64 171.547 226.64C174.179 226.64 174.975 226.423 174.975 225.704C174.975 225.19 174.555 224.769 174.04 224.769C173.287 224.769 173.105 223.798 173.105 219.779C173.105 216.153 172.892 214.814 172.326 214.882C171.898 214.934 170.776 215.093 169.833 215.235ZM150.288 217.641C150.695 218.701 149.709 221.026 148.853 221.026C147.803 221.026 146.836 219.184 147.231 217.938C147.709 216.431 149.748 216.233 150.288 217.641ZM74.9078 220.542C78.3793 225.501 70.4734 232.329 65.3876 228.764C63.3696 227.349 63.7946 226.573 68.7108 222.695C73.7866 218.692 73.6476 218.74 74.9078 220.542ZM229.581 221.57C228.122 223.185 227.967 222.98 235.527 229.446C242.394 235.319 244.779 236.205 244.779 232.881C244.779 231.143 230.521 220.532 229.581 221.57ZM222.269 229.061C217.075 234.26 221.171 239.992 228.565 237.87C233.715 236.392 235.401 240.803 230.468 242.847C228.391 243.709 228.201 244.105 229.323 245.227C230.609 246.514 232.36 246.055 234.558 243.855C238.99 239.42 236.066 232.756 230.169 233.849C223.459 235.093 220.996 233.119 225.754 230.309C227.9 229.042 227.956 228.926 226.947 227.81C225.477 226.184 225.022 226.306 222.269 229.061ZM78.6828 233.802C71.7336 240.352 70.8399 242.081 74.0751 242.716C76.2042 243.132 88.1008 229.861 86.7708 228.552C85.548 227.349 85.4881 227.388 78.6828 233.802ZM86.4735 240.716C77.9985 246.444 77.6576 246.797 79.6134 247.845C80.6785 248.415 81.3061 248.313 82.8842 247.314C85.1933 245.85 90.7527 248.668 89.9014 250.87C88.7041 253.965 90.1264 258.121 91.8073 256.439C93.6602 254.585 97.5001 237.429 96.2747 236.478C94.481 235.084 95.386 234.693 86.4735 240.716ZM209.08 239.271C205.415 241.807 205.27 241.04 210.968 249.235C213.624 253.055 215.971 256.437 216.182 256.75C216.614 257.389 219.226 255.974 219.226 255.1C219.226 254.795 218.264 253.206 217.089 251.568C215.913 249.93 215.119 248.423 215.323 248.219C216.2 247.341 218.343 247.991 221.096 249.971C224.031 252.081 224.061 252.088 225.756 250.975C227.346 249.931 222.04 244.728 219.386 244.728C219.093 244.728 218.97 243.728 219.112 242.507C219.717 237.32 214.384 235.599 209.08 239.271ZM92.2186 243.478C91.237 246.552 89.3903 246.937 88.4972 244.254C88.3302 243.753 92.3445 240.362 93.1049 240.362C93.1653 240.362 92.7665 241.764 92.2186 243.478ZM215.131 241.342C216.43 242.642 216.368 243.223 214.761 244.831C213.413 246.18 213.413 246.18 211.96 244.363C210.166 242.12 210.164 241.963 211.903 241.123C213.808 240.204 214.006 240.217 215.131 241.342ZM100.494 250.394C95.8715 259.749 95.9937 259.301 97.8478 260.149C99.1629 260.752 99.4321 260.438 102.179 255.099C105.107 249.406 105.107 249.406 105.139 256.635C105.171 263.858 106.361 266.598 108.801 265.063C109.459 264.649 117.299 248.546 116.983 248.258C114.964 246.42 113.918 247.206 111.147 252.647C108.35 258.139 108.35 258.139 108.319 251.138C108.266 239.473 105.997 239.257 100.494 250.394ZM196.477 246.081C194.421 247.134 192.659 248.065 192.562 248.15C192.416 248.277 199.771 264.58 200.255 265.201C200.547 265.577 209.877 261.031 209.868 260.518C209.83 258.504 208.706 258.253 205.567 259.558C202.395 260.878 202.395 260.878 201.462 259.071C200.141 256.516 200.234 256.278 203.022 255.02C204.582 254.316 205.515 253.478 205.515 252.779C205.515 251.021 204.6 250.878 201.687 252.183C198.98 253.396 198.98 253.396 198.218 252.025C196.966 249.771 197.277 249.108 200.17 247.868C202.428 246.898 202.866 246.451 202.59 245.394C202.138 243.667 200.921 243.804 196.477 246.081ZM186.35 250.361C185.02 250.896 184.947 251.265 184.947 257.495C184.947 265.411 184.924 265.415 180.458 258.436C176.909 252.89 176.9 252.882 175.014 253.541C173.125 254.2 173.125 254.2 178.779 262.466C184.35 270.609 186.29 272.198 187.683 269.76C188.189 268.874 188.754 249.721 188.274 249.758C187.986 249.779 187.121 250.051 186.35 250.361ZM129.826 254.24C128.538 260.301 127.611 265.711 127.622 267.094C127.669 272.618 137.005 274.987 139.975 270.227C140.981 268.616 143.391 256.758 142.948 255.603C141.696 252.337 139.737 254.719 138.623 260.859C137.339 267.935 136.327 269.838 133.999 269.558C131.187 269.219 130.954 267.899 132.395 260.508C133.117 256.804 133.581 253.562 133.426 253.305C132.749 252.181 130.119 252.864 129.826 254.24ZM166.242 255.8C166.188 263.106 168.45 273.42 170.105 273.42C172.179 273.42 172.133 274.073 170.816 263.285C169.839 255.289 166.288 249.477 166.242 255.8ZM147.552 265C147.552 277.556 151.067 280.81 151.425 268.586C151.603 262.505 151.603 262.505 154.705 268.586C159.935 278.843 161.887 277.869 161.887 265C161.887 255.332 161.887 255.332 160.017 255.332C158.147 255.332 158.147 255.332 158.111 261.725C158.074 268.119 158.074 268.119 154.853 261.725C149.507 251.118 147.552 251.995 147.552 265Z"/>
</mask>
<path fill-rule="evenodd" clip-rule="evenodd" d="M146.475 1.11899C140.075 2.67086 135.479 5.54193 127.959 12.6869C111.548 28.2778 97.8509 34.0406 74.6317 35.124C48.1036 36.3615 35.3669 48.8294 35.3669 73.5613C35.3669 94.7852 28.561 111.228 12.8787 127.887C-4.2956 146.133 -4.29311 163.858 12.8874 181.97C28.5011 198.431 34.2556 212.119 35.3388 235.372C36.6028 262.513 47.5122 273.431 74.6317 274.696C97.9332 275.783 111.546 281.557 128.37 297.489C145.965 314.151 164.24 314.17 181.67 297.546C198.374 281.613 212.087 275.785 235.431 274.696C262.55 273.431 273.46 262.513 274.723 235.372C275.81 212.053 281.579 198.429 297.499 181.592C314.148 163.983 314.167 145.694 297.556 128.251C281.635 111.533 275.812 97.8098 274.723 74.4476C273.483 47.8152 261.038 35.1521 236.105 35.1521C215.123 35.1521 198.617 28.2822 182.033 12.6463C170.097 1.39406 159.504 -2.04024 146.475 1.11899ZM161.389 4.64936C167.942 6.00661 173.13 9.10535 180.46 16.0388C197.147 31.82 211.444 37.7562 235.431 38.8621C260.06 39.9973 269.865 49.8093 270.992 74.4476C272.09 98.4609 278.02 112.756 293.827 129.496C310.21 146.844 310.196 163.181 293.786 180.398C278.125 196.828 272.093 211.375 270.988 235.372C269.893 259.174 258.589 270.899 236.702 270.937C214.375 270.976 197.184 277.964 180.426 293.815C163.09 310.21 146.766 310.197 129.563 293.773C113.108 278.064 95.6627 270.976 73.3603 270.937C51.4736 270.899 40.1696 259.174 39.074 235.372C37.9677 211.349 32.04 197.061 16.2349 180.324C-0.158461 162.964 -0.147866 146.844 16.2686 129.461C32.0306 112.769 37.9546 98.4853 39.0846 74.4476C39.7109 61.1252 40.8434 57.4663 46.5923 50.1873C52.7138 42.4367 59.8806 39.5419 74.6317 38.8621C98.6724 37.7537 112.913 31.8257 129.708 15.9353C140.795 5.44587 149.781 2.24484 161.389 4.64936ZM142.255 26.1758C32.9237 41.7731 -12.7805 166.898 62.4546 244.645C154.185 339.438 312.143 250.468 279.909 122.164C264.913 62.4762 200.865 17.8146 142.255 26.1758ZM174.04 31.0822C274.136 46.6045 315.282 169.149 244.8 241.83C170.08 318.882 40.485 272.767 30.331 165.513C22.794 85.9007 94.5708 18.7583 174.04 31.0822ZM170.647 42.6507C165.244 47.3037 165.307 47.7622 170.922 44.6672C175.537 42.1236 176.953 40.6241 175.815 39.4852C175.309 38.9793 173.923 39.8282 170.647 42.6507ZM136.645 41.8292C133.469 42.5814 123.869 47.2227 123.869 48.0067C123.869 49.5579 127.316 49.3153 129.166 47.6337C130.408 46.5047 134.814 43.8844 135.47 43.8844C135.66 43.8844 134.9 45.0402 133.783 46.453C132.211 48.4383 131.687 49.7837 131.472 52.3785C131.318 54.2248 130.942 55.7354 130.635 55.7354C129.482 55.7354 125.084 58.9234 125.44 59.5003C126.011 60.4241 128.416 60.2145 130.003 59.1024C131.644 57.9522 131.655 57.9585 132.22 60.3093C132.568 61.7595 132.416 62.1363 131.373 62.4095C129.716 62.8429 129.751 63.607 131.449 64.0511C134.693 64.9007 135.519 62.8847 134.099 57.5848C133.947 57.0185 134.58 56.1908 135.651 55.5577C137.752 54.3164 138.456 54.1986 137.842 55.1928C137.583 55.6113 137.74 55.786 138.228 55.6232C139.598 55.1666 140.453 53.3715 139.674 52.5912C139.179 52.0959 138.347 52.1764 136.651 52.8862C133.391 54.2491 133.217 54.1749 133.217 51.4204C133.217 49.3141 133.51 48.7951 135.335 47.6668C137.82 46.1292 139.686 43.5295 139.205 42.2745C138.854 41.3583 138.727 41.3364 136.645 41.8292ZM180.87 45.2878C179.928 48.578 179.527 49.2005 178.3 49.276C176.521 49.3858 176.434 48.8076 178.074 47.7828C179.528 46.874 179.11 45.1319 177.438 45.1319C175.37 45.1319 174.232 49.3521 175.923 50.7561C177.412 51.993 177 53.752 174.975 54.7998C173.189 55.7242 172.45 56.9829 173.693 56.9829C174.016 56.9829 175.293 56.3854 176.53 55.655C178.779 54.327 178.779 54.327 178.416 55.8109C176.313 64.4117 175.81 69.1477 176.98 69.3498C179.337 69.7565 179.731 68.8302 180.252 61.661C180.326 60.6318 180.47 59.6494 180.571 59.4779C180.671 59.3064 180.803 57.9266 180.864 56.4122C180.949 54.3189 181.319 53.4214 182.407 52.6698C186.689 49.712 187.992 46.8846 185.882 45.1319C185.093 44.477 184.947 44.6005 184.947 45.9222C184.947 47.7061 182.51 51.1541 182.475 49.4207C182.464 48.8631 182.875 47.2139 183.389 45.7556C184.616 42.2758 184.568 41.3895 183.155 41.3895C182.255 41.3895 181.728 42.2876 180.87 45.2878ZM171.547 45.717C167.109 47.0935 163.846 50.128 167.348 49.6234C168.389 49.4731 168.575 49.6927 168.3 50.7474C167.948 52.0928 164.074 55.1117 162.699 55.1117C161.358 55.1117 160.665 57.1919 161.587 58.4518C162.849 60.1802 164.681 59.2259 165.631 56.3448C166.819 52.7427 167.153 53.8037 166.063 57.7164C164.269 64.159 164.226 64.5888 165.399 64.3624C166.199 64.2077 166.948 62.2816 168.384 56.6835C169.969 50.5048 170.553 49.087 171.755 48.4913C174.751 47.0081 174.584 44.7745 171.547 45.717ZM89.8347 53.0939C88.921 53.7008 82.734 61.1844 82.734 61.6834C82.734 61.8967 83.604 61.8805 84.6673 61.6472C86.5539 61.2325 86.5907 61.2674 86.1874 63.1043C85.9468 64.2002 86.0815 65.4795 86.5096 66.1656C87.2351 67.3283 86.2921 69.8575 83.8403 73.3261C82.8082 74.7857 83.6639 75.4219 85.7069 74.7127C86.8506 74.316 87.6041 73.4596 88.0048 72.1017C88.3326 70.9909 88.8238 70.0814 89.0955 70.0814C89.8073 70.0814 89.7051 71.808 88.9665 72.2645C87.8696 72.9425 88.2996 74.4476 89.5898 74.4476C90.6194 74.4476 90.8363 74.8636 90.8363 76.8384C90.8363 79.9084 91.4477 80.4804 92.812 78.6859C93.7362 77.4696 94.0684 77.3723 95.017 78.0379C97.9226 80.0769 98.9884 79.8417 104.241 76.007C108.199 73.1166 108.264 72.8876 105.862 70.2567C104.871 69.1708 104.179 68.1634 104.323 68.0187C104.468 67.874 103.877 67.2902 103.009 66.7207C101.106 65.4726 101.018 65.8762 102.683 68.2171C105.149 71.6826 104.988 73.3916 101.991 75.5978C97.1448 79.1643 96.5459 78.5406 98.0417 71.4849C98.8494 67.6726 95.9799 68.8502 92.8861 73.6006C92.4181 74.3185 92.4773 73.7216 93.0419 72.03C94.4162 67.9121 94.2866 67.3638 92.0435 67.8129C90.1345 68.1946 90.1345 68.1946 91.3847 66.6041C93.2663 64.2102 94.299 60.701 93.3025 60.0854C92.0634 59.3188 91.1485 59.9544 89.6483 62.6253C88.8867 63.9819 88.0946 65.0915 87.8876 65.0915C87.6814 65.0915 87.6969 64.9069 87.9226 64.6811C88.1482 64.4553 88.0216 63.8958 87.6415 63.4374C87.1136 62.8012 87.558 61.5805 89.5162 58.2809C92.6119 53.0665 92.7278 51.1728 89.8347 53.0939ZM214.039 61.7065C212.269 62.9103 211.027 63.2708 209.065 63.1492C206.326 62.9802 205.766 63.9619 207.737 65.477C209.081 66.5099 207.434 67.6688 205.136 67.3077C198.735 66.301 198.601 66.3122 199.383 67.7817C199.782 68.5321 200.5 69.4346 200.978 69.7883C201.655 70.2873 201.701 70.8175 201.189 72.1678C199.892 75.5816 201.788 75.7868 204.965 72.5758C207.477 70.0359 213.422 68.8758 214.552 70.7052C214.764 71.0482 214.516 71.3289 214.002 71.3289C212.37 71.3289 212.193 72.6188 213.617 74.1357C215.134 75.7525 214.842 76.9426 212.927 76.9426C212.119 76.9426 211.388 76.2359 210.83 74.9154C209.974 72.8883 209.974 72.8883 209.262 74.752C208.343 77.1521 210.123 78.8138 213.61 78.8138C215.958 78.8138 215.958 78.8138 216.671 83.6097C217.495 89.1566 217.507 89.1778 218.84 87.843C220.067 86.6149 220.086 85.6837 218.964 81.4666C218.094 78.1938 218.094 78.1938 219.906 76.902C222.514 75.0433 222.201 73.963 218.805 73.1072C215.654 72.3132 216.145 71.7618 220.686 70.9933C224.102 70.4151 224.835 70.0297 224.835 68.8115C224.835 68.0799 224.517 67.748 224.005 67.9445C223.391 68.1803 223.247 67.7667 223.452 66.3658C223.818 63.869 222.531 63.8578 220.356 66.339C218.914 67.9832 218.311 68.209 215.387 68.2009C210.694 68.1871 209.519 67.2653 213.042 66.3608C214.558 65.9723 216.149 65.5363 216.577 65.3922C217.413 65.1115 217.698 60.1016 216.878 60.1016C216.615 60.1016 215.338 60.8239 214.039 61.7065ZM145.059 71.7075C128.791 74.6796 126.635 75.5423 128.049 78.5094C128.902 80.3008 129.381 80.6838 130.39 80.385C165.51 69.981 200.661 82.2038 220.22 111.621C224.509 118.074 226.972 117.001 202.524 119.333C175.201 121.94 175.953 121.67 163.405 133.391C146.331 149.339 137.735 149.279 120.544 133.092C109.295 122.499 106.518 121.276 91.3037 120.219C87.9612 119.986 85.227 119.614 85.227 119.392C85.227 117.411 93.3199 106.289 99.3212 100.021C103.801 95.3429 103.801 95.3429 102.29 93.1598C100.043 89.9138 86.0883 105.141 80.5601 116.871C79.5267 119.064 79.5267 119.064 68.5095 118.031C62.4503 117.463 57.3951 117.089 57.2754 117.199C55.5596 118.785 70.8978 132.455 74.3936 132.455C79.3292 132.455 79.4694 131.695 74.7875 130.319C71.6725 129.403 63.268 121.789 64.2677 120.788C64.3493 120.707 68.3275 121.033 73.1079 121.513C77.8882 121.993 86.567 122.84 92.3944 123.394C106.123 124.7 107.931 125.516 117.899 134.905C129.67 145.991 134.235 148.34 143.189 147.92C151.661 147.521 154.478 145.979 165.459 135.725C172.702 128.962 175.684 126.756 179.533 125.313C181.66 124.515 219.748 120.296 220.254 120.801C221.083 121.632 211.614 129.953 209.098 130.604C204.972 131.671 205.407 132.455 210.123 132.455C214.11 132.455 214.11 132.455 219.583 126.166C225.856 118.958 225.236 118.826 228.607 128.082C233.99 142.863 234.767 158.71 230.862 174.097C229.51 179.427 229.51 179.427 202.242 179.292C186.207 179.212 174.975 179.39 174.975 179.723C174.975 180.035 175.566 180.824 176.288 181.478C180.154 184.977 181.751 194.235 179.705 201.279C178.425 205.686 178.057 205.672 173.566 201.051C164.46 191.679 164.933 188.471 177.534 174.172C182.37 168.683 186.165 164.029 185.966 163.83C184.525 162.388 159.703 164.655 159.135 166.281C158.365 168.481 159.051 169.136 160.63 167.706C161.901 166.555 179.961 165.335 179.961 166.4C179.961 166.639 176.842 170.374 173.031 174.698C162.08 187.122 161.54 192.487 170.267 202.158C173.047 205.24 173.131 205.433 171.698 205.433C166.501 205.433 155.976 189.855 156.452 182.865C156.781 178.017 155.953 176.193 154.212 177.935C150.578 181.572 153.54 191.818 160.399 199.338C165.674 205.121 165.674 205.121 163.385 205.319C161.181 205.511 154.864 199.891 150.789 194.113C149.834 192.76 148.603 192.627 147.651 193.774C147.133 194.399 148.061 195.826 151.608 199.856C158.571 207.769 155.894 207.811 147.93 199.914C142.254 194.285 142.254 194.285 136.47 199.859C131.098 205.035 125.518 208.26 129.253 204.029C137.315 194.899 137.625 194.439 136.436 193.363C135.363 192.39 134.987 192.685 129.429 198.87C123.677 205.271 123.501 205.405 120.819 205.418C118.082 205.433 118.082 205.433 123.507 199.8C129.694 193.378 131.316 190.408 131.33 185.473C131.34 182.167 130.386 177.365 129.719 177.365C128.089 177.365 127.071 178.757 127.628 180.223C129.837 186.04 127.809 190.976 119.728 199.454C113.33 206.168 108.612 208.515 114.071 202.27C122.975 192.083 122.384 187.154 110.662 173.855C104.289 166.624 116.436 160.965 123.873 167.7C125.46 169.138 126.033 168.584 125.286 166.332C124.644 164.396 120.912 163.923 104.704 163.721C96.9067 163.625 96.7029 162.561 106.651 173.88C120.206 189.3 120.34 191.644 108.327 203.406C102.434 209.175 102.434 209.175 117.06 209.175C131.687 209.175 131.687 209.175 136.957 203.873C142.228 198.57 142.228 198.57 147.552 203.873C152.875 209.175 152.875 209.175 182.121 209.175C215.025 209.175 213.586 208.627 202.686 217.003C157.16 251.985 91.3535 227.832 78.5457 171.439C75.9804 160.144 76.312 138.965 79.002 142.289C80.3874 144.002 85.8502 144.368 85.8502 142.747C85.8502 142.155 85.2544 141.811 84.2298 141.811C82.81 141.811 77.7112 137.771 78.4441 137.226C80.0048 136.066 109.899 137.754 111.221 139.077C113.842 141.7 114.571 140.892 112.993 137.113C112.09 134.95 112.09 134.95 102.866 134.948C97.7917 134.947 88.7328 134.761 82.734 134.535C72.9521 134.166 71.9087 134.222 72.6192 135.084C73.2631 135.865 73.2225 137.202 72.403 142.203C59.6163 220.259 155.998 269.989 213.106 214.801C218.914 209.188 218.914 209.188 223.589 209.178C238.842 209.147 246.333 194.063 236.16 183.864C234.243 181.943 234.243 181.943 235.704 176.63C251.02 120.919 199.855 61.694 145.059 71.7075ZM218.603 75.0714C218.603 75.4144 218.182 75.6951 217.668 75.6951C217.154 75.6951 216.733 75.4144 216.733 75.0714C216.733 74.7283 217.154 74.4476 217.668 74.4476C218.182 74.4476 218.603 74.7283 218.603 75.0714ZM110.287 76.1117C104.305 79.062 103.013 86.9573 107.723 91.7788C114.029 98.2333 124.492 93.9176 124.492 84.8628C124.492 77.804 116.65 72.9731 110.287 76.1117ZM59.4929 83.3752C58.9644 84.753 59.7609 87.7576 61.1763 89.7292C62.1848 91.1333 62.4322 92.1456 62.1667 93.7835C61.8133 95.9666 61.8133 95.9666 60.5874 93.7835C58.6385 90.3118 58.487 95.1464 60.4178 99.1926C62.3412 103.223 65.4238 102.954 65.225 98.7734C64.9451 92.8897 65.5316 92.0701 67.1265 96.1176C67.7953 97.8154 67.7703 98.4653 66.9713 100.172C64.5413 105.362 62.9345 110.016 63.4599 110.341C64.2702 110.843 65.2829 110.101 65.2829 109.008C65.2829 108.229 68.0714 102.105 68.7819 101.324C68.9103 101.184 69.5684 101.57 70.2446 102.182C70.9626 102.832 72.0016 103.158 72.7414 102.964C74.3955 102.531 74.3562 103.624 72.6535 105.439C71.5497 106.614 71.4837 106.882 72.2964 106.882C73.6314 106.882 75.8782 103.942 75.8782 102.197C75.8782 101.427 76.2989 100.448 76.8131 100.021C78.408 98.6961 77.8639 97.8597 74.6685 96.7244C71.1041 95.457 71.0985 94.184 74.6367 90.0361C75.6588 88.8379 76.1998 87.7588 75.8389 87.6378C74.8424 87.3041 72.8087 89.3943 70.9227 92.6914C69.991 94.3199 69.0418 95.4664 68.8137 95.2381C68.1069 94.5308 68.3942 92.2828 69.354 91.0135C72.3182 87.0908 69.3291 80.8509 65.9984 84.0102C64.3481 85.5757 64.3481 85.5757 63.2281 84.0663C62.0152 82.4309 59.9984 82.0579 59.4929 83.3752ZM62.4621 86.2675C63.5628 88.3975 63.6238 88.7936 62.851 88.7936C62.4048 88.7936 60.9202 85.6038 60.9202 84.6464C60.9202 83.921 61.6419 84.6801 62.4621 86.2675ZM67.8894 85.2071C68.5974 87.4457 67.493 90.9337 66.6055 89.2608C66.1069 88.3208 65.9162 86.9686 66.1499 86.0348C66.5768 84.3326 67.4774 83.9041 67.8894 85.2071ZM232.938 94.5938C232.938 95.4009 233.639 96.7201 234.496 97.526C236.675 99.5743 236.484 99.9205 232.924 100.393C227.211 101.152 228.34 103.225 234.367 103.042C236.353 102.982 238.094 102.744 238.237 102.512C238.38 102.281 240.261 102.336 242.417 102.634C245.514 103.063 246.894 102.965 248.986 102.171C251.744 101.124 252.703 99.6173 250.214 100.242C246.104 101.275 245.359 99.4577 249.108 97.5434C251.546 96.2991 252.707 94.6069 251.768 93.6675C251.476 93.375 249.103 94.1235 246.491 95.331C240.625 98.0437 240.233 98.043 236.202 95.326C232.982 93.1567 232.938 93.1467 232.938 94.5938ZM73.3852 99.739C73.3852 101.074 71.574 101.296 70.904 100.043C69.8514 98.0749 70.7626 96.5916 72.216 97.9077C72.8592 98.4903 73.3852 99.3142 73.3852 99.739ZM235.844 106.102C236.085 107.045 236.25 108.281 236.211 108.848C236.151 109.725 237.667 110.586 239.326 110.616C240.312 110.634 239.726 108.471 238.203 106.473C236.264 103.928 235.249 103.768 235.844 106.102ZM251.428 125.387C250.274 126.541 251.429 128.669 255.556 132.995C261.521 139.247 262.591 140.661 260.205 139.136C257.87 137.644 258.047 138.64 260.547 141.066C262.624 143.081 264.473 142.885 263.65 140.737C263.455 140.23 263.979 140.5 264.815 141.336C269.155 145.679 274.618 145.649 272.114 141.297C270.397 138.311 270.767 137.617 273.36 138.958C274.403 139.499 275.691 139.94 276.222 139.94C278.014 139.94 277.206 138.89 274.54 137.75C273.083 137.128 271.261 135.892 270.492 135.005C269.722 134.117 269.091 133.733 269.089 134.151C269.087 134.61 268.655 134.754 267.995 134.513C267.046 134.167 267.066 134.302 268.151 135.559C269.398 137.003 269.398 137.003 268.03 136.285C265.964 135.201 265.78 134.478 267.185 132.969C269.049 130.966 268.756 130.525 266.254 131.571C263.553 132.701 262.349 132.177 263.845 130.522C265.009 129.234 263.701 128.811 261.347 129.715C260.364 130.093 259.939 131.831 260.828 131.832C261.085 131.833 262.11 132.535 263.107 133.392C264.996 135.019 264.872 135.407 262.812 134.305C261.971 133.854 261.607 133.86 261.607 134.324C261.607 134.69 262.048 135.159 262.588 135.366C263.264 135.626 263.454 136.203 263.2 137.218C262.819 138.735 264.222 139.386 265.035 138.069C265.729 136.945 267.091 137.411 269.354 139.546C272.019 142.062 272.335 143.377 270.021 142.322C269.164 141.931 268.463 141.412 268.463 141.168C268.463 140.925 267.262 140.389 265.794 139.978C263.4 139.307 262.581 138.497 257.847 132.105C252.578 124.99 252.209 124.604 251.428 125.387ZM40.5473 130.428C38.7013 137.425 40.3541 149.969 42.8316 147.765C45.2691 145.596 51.2479 150.917 49.5334 153.729C48.0762 156.119 53.3047 157.9 56.5986 156.136C58.0526 155.357 58.1816 154.286 56.8211 154.286C54.7132 154.286 51.7179 150.436 53.3545 149.83C55.0342 149.208 54.8466 148.023 52.9133 147.05C52.1635 146.672 51.3894 146.204 51.1943 146.008C50.7967 145.61 49.7241 141.188 50.0251 141.188C50.4788 141.188 56.4508 149.147 57.2442 150.809C59.023 154.536 61.2792 152.719 60.2951 148.352C59.8301 146.29 59.9292 145.804 60.9582 145.083C63.5565 143.261 62.0084 140.531 55.8008 135.991C54.5281 135.059 52.5724 133.462 51.4555 132.441C48.5424 129.779 47.2086 130.204 47.2086 133.796C47.2086 134.76 46.9263 134.945 45.9322 134.629C45.2086 134.399 44.2195 134.584 43.6493 135.054C42.7356 135.809 42.6814 135.554 43.0615 132.299C43.5364 128.228 41.5233 126.73 40.5473 130.428ZM244.347 135.73C242.638 140.603 242.981 140.996 248.109 140.051C253.09 139.132 253.504 139.136 253.507 140.096C253.509 141.443 258.2 146.431 258.999 145.936C260.221 145.181 259.861 143.908 257.175 139.484C252.901 132.443 251.222 131.221 251.805 135.574C252.14 138.069 252.14 138.069 249.462 138.069C246.511 138.069 245.577 136.645 246.393 133.391C247.188 130.223 245.669 131.959 244.347 135.73ZM52.9787 136.115C54.6098 137.652 56.7787 139.492 57.7983 140.204C59.4649 141.369 60.5973 143.704 59.023 142.73C58.0451 142.125 56.5817 143.625 56.9831 144.82C57.1763 145.395 55.3502 143.761 52.9245 141.188C46.1871 134.04 46.2333 129.761 52.9787 136.115ZM185.736 134.794C172.502 134.975 172.502 134.975 171.557 136.803C169.76 140.28 170.854 141.946 173.105 139.161C174.112 137.914 204.571 136.128 206.065 137.228C206.8 137.769 201.697 141.811 200.279 141.811C199.255 141.811 198.659 142.155 198.659 142.747C198.659 145.689 204.064 143.822 207.811 139.587C212.674 134.09 212.776 134.306 205.41 134.469C201.868 134.548 193.015 134.694 185.736 134.794ZM47.2086 141.855C47.2086 145.489 47.2086 145.489 45.3389 144.837C43.7876 144.295 43.4723 143.85 43.4878 142.218C43.504 140.581 43.6131 140.434 44.1423 141.344C45.2242 143.202 45.6692 142.56 45.4255 139.49C45.2142 136.836 45.2909 136.629 46.2002 137.384C46.9182 137.98 47.2086 139.268 47.2086 141.855ZM83.2893 147.168C88.1257 153.322 93.9525 156.359 93.9525 152.727C93.9525 152.21 93.3997 151.791 92.716 151.791C92.0354 151.791 90.5633 150.957 89.4439 149.938C87.4084 148.086 87.4084 148.086 101.271 148.067C114.468 148.049 115.17 148.109 115.911 149.296C117.491 151.829 118.85 150.652 117.576 147.854C116.721 145.976 112.554 145.563 94.3745 145.558C82.0204 145.554 82.0204 145.554 83.2893 147.168ZM170.855 146.01C167.748 146.231 166.25 147.512 166.25 149.949C166.25 151.009 167.798 150.578 168.598 149.296C169.339 148.109 170.041 148.049 183.238 148.067C197.101 148.086 197.101 148.086 195.065 149.938C193.946 150.957 192.474 151.791 191.793 151.791C191.109 151.791 190.556 152.21 190.556 152.727C190.556 154.795 195.097 153.871 197.455 151.323C203.382 144.921 204.381 145.54 188.328 145.669C180.47 145.733 172.607 145.886 170.855 146.01ZM91.447 156.54C96.0124 161.856 96.6842 162.395 98.7491 162.395C100.164 162.395 100.808 162.102 100.808 161.459C100.808 160.945 100.296 160.524 99.6702 160.524C99.0445 160.524 97.874 159.822 97.0688 158.964C95.2576 157.035 117.804 156.414 119.728 158.34C121.69 160.303 122.678 158.033 120.765 155.96C119.144 154.203 89.9369 154.781 91.447 156.54ZM168.561 155.374C164.105 155.57 163.648 155.713 163.007 157.122C162.115 159.08 162.788 159.783 164.27 158.441C166.488 156.431 189.334 156.948 187.44 158.964C186.635 159.822 185.465 160.524 184.839 160.524C184.213 160.524 183.701 160.945 183.701 161.459C183.701 164.013 187.701 162.491 191.078 158.652C194.558 154.695 192.121 154.34 168.561 155.374ZM231.379 183.966C238.659 187.761 239.012 200.606 231.948 204.643C226.692 207.646 181.769 206.662 182.834 203.567C184.728 198.065 184.409 188.673 182.149 183.399C181.344 181.519 227.71 182.053 231.379 183.966ZM247.589 191.689C247.256 193.204 247.593 194.076 249.449 196.51C250.696 198.144 251.487 199.535 251.208 199.602C250.929 199.669 249.072 199.908 247.082 200.132C243.954 200.486 243.383 200.757 242.858 202.138C242.008 204.376 242.155 204.413 248.728 203.637C254.423 202.965 254.721 202.993 258.185 204.526C260.152 205.397 261.83 206.027 261.912 205.927C262.42 205.308 263.542 202.804 263.372 202.67C263.258 202.582 261.575 201.862 259.633 201.07C256.554 199.817 255.638 199.003 252.501 194.736C248.478 189.262 248.164 189.067 247.589 191.689ZM57.9043 194.608C55.2006 198.726 55.2006 198.726 52.6066 198.375C42.6583 197.027 43.4411 196.964 44.2301 199.055C44.9581 200.985 46.7393 201.666 51.104 201.684C53.2585 201.692 53.2567 201.711 50.6708 205.554C48.6091 208.618 48.5611 208.818 49.4661 210.57C50.4296 212.435 51.7615 211.114 56.2583 203.831C56.8304 202.905 57.3832 202.88 61.7279 203.582C67.0262 204.437 67.6544 204.26 66.7239 202.172C66.2446 201.097 65.2798 200.623 62.5843 200.139C59.0697 199.507 59.0697 199.507 60.9526 196.623C62.6167 194.074 62.7488 193.549 62.0894 192.101C61.0729 189.869 60.9788 189.925 57.9043 194.608ZM189.31 194.517C189.31 196.093 189.31 196.093 210.656 195.929C231.533 195.769 232.003 195.737 232.003 194.517C232.003 193.297 231.533 193.266 210.656 193.106C189.31 192.942 189.31 192.942 189.31 194.517ZM61.0847 211.753C53.3863 216.397 48.9955 222.871 56.1386 219.045C57.4412 218.348 70.3861 210.428 70.785 210.085C75.2824 206.216 68.2608 207.423 61.0847 211.753ZM236.993 211.826C233.861 216.505 233.644 217.043 234.609 217.752C236.084 218.837 236.268 218.77 237.491 216.697C238.574 214.862 238.574 214.862 245.214 219.266C251.405 223.371 251.911 223.593 252.68 222.541C253.959 220.79 253.863 220.673 247.74 216.593C240.359 211.675 240.668 212.019 241.924 210.101C242.764 208.818 242.834 208.276 242.251 207.574C241.03 206.101 240.585 206.461 236.993 211.826ZM66.8411 219.52C63.0704 222.463 59.7672 225.081 59.5004 225.337C59.2343 225.592 59.8862 226.902 60.9495 228.248C70.1842 239.931 85.2189 229.034 76.4036 217.047C73.8128 213.524 74.871 213.251 66.8411 219.52ZM136.178 215.235C134.407 215.504 133.73 217.284 135.399 217.284C136.126 217.284 136.334 218.115 136.334 221.026C136.334 223.937 136.126 224.769 135.399 224.769C134.885 224.769 134.464 225.19 134.464 225.704C134.464 226.423 135.26 226.64 137.892 226.64C140.523 226.64 141.32 226.423 141.32 225.704C141.32 225.19 140.899 224.769 140.385 224.769C139.632 224.769 139.45 223.798 139.45 219.779C139.45 216.153 139.237 214.814 138.671 214.882C138.243 214.934 137.12 215.093 136.178 215.235ZM145.343 216.32C142.579 219.086 145.014 223.437 148.89 222.661C150.92 222.254 151.128 223.211 149.265 224.386C148.506 224.865 147.933 224.742 147.005 223.902C145.695 222.715 144.436 222.994 144.436 224.472C144.436 226.785 149.911 227.401 151.859 225.308C156.862 219.935 150.499 211.159 145.343 216.32ZM156.866 215.939C155.958 216.675 155.589 217.462 155.843 218.122C156.393 219.557 158.196 219.416 158.59 217.908C159.003 216.326 160.64 216.268 160.64 217.835C160.64 218.485 160.084 219.155 159.394 219.336C157.655 219.791 157.839 220.814 159.746 221.293C160.952 221.596 161.297 222.033 161.148 223.075C160.879 224.971 158.147 225.417 158.147 223.565C158.147 222.69 157.746 222.274 156.901 222.274C155.401 222.274 155.155 224.825 156.543 225.978C159.642 228.552 166.295 224.651 164.218 221.478C163.583 220.51 163.438 219.679 163.802 219.104C165.792 215.957 160.067 213.345 156.866 215.939ZM169.833 215.235C168.063 215.504 167.386 217.284 169.054 217.284C169.782 217.284 169.989 218.115 169.989 221.026C169.989 223.937 169.782 224.769 169.054 224.769C168.54 224.769 168.119 225.19 168.119 225.704C168.119 226.423 168.916 226.64 171.547 226.64C174.179 226.64 174.975 226.423 174.975 225.704C174.975 225.19 174.555 224.769 174.04 224.769C173.287 224.769 173.105 223.798 173.105 219.779C173.105 216.153 172.892 214.814 172.326 214.882C171.898 214.934 170.776 215.093 169.833 215.235ZM150.288 217.641C150.695 218.701 149.709 221.026 148.853 221.026C147.803 221.026 146.836 219.184 147.231 217.938C147.709 216.431 149.748 216.233 150.288 217.641ZM74.9078 220.542C78.3793 225.501 70.4734 232.329 65.3876 228.764C63.3696 227.349 63.7946 226.573 68.7108 222.695C73.7866 218.692 73.6476 218.74 74.9078 220.542ZM229.581 221.57C228.122 223.185 227.967 222.98 235.527 229.446C242.394 235.319 244.779 236.205 244.779 232.881C244.779 231.143 230.521 220.532 229.581 221.57ZM222.269 229.061C217.075 234.26 221.171 239.992 228.565 237.87C233.715 236.392 235.401 240.803 230.468 242.847C228.391 243.709 228.201 244.105 229.323 245.227C230.609 246.514 232.36 246.055 234.558 243.855C238.99 239.42 236.066 232.756 230.169 233.849C223.459 235.093 220.996 233.119 225.754 230.309C227.9 229.042 227.956 228.926 226.947 227.81C225.477 226.184 225.022 226.306 222.269 229.061ZM78.6828 233.802C71.7336 240.352 70.8399 242.081 74.0751 242.716C76.2042 243.132 88.1008 229.861 86.7708 228.552C85.548 227.349 85.4881 227.388 78.6828 233.802ZM86.4735 240.716C77.9985 246.444 77.6576 246.797 79.6134 247.845C80.6785 248.415 81.3061 248.313 82.8842 247.314C85.1933 245.85 90.7527 248.668 89.9014 250.87C88.7041 253.965 90.1264 258.121 91.8073 256.439C93.6602 254.585 97.5001 237.429 96.2747 236.478C94.481 235.084 95.386 234.693 86.4735 240.716ZM209.08 239.271C205.415 241.807 205.27 241.04 210.968 249.235C213.624 253.055 215.971 256.437 216.182 256.75C216.614 257.389 219.226 255.974 219.226 255.1C219.226 254.795 218.264 253.206 217.089 251.568C215.913 249.93 215.119 248.423 215.323 248.219C216.2 247.341 218.343 247.991 221.096 249.971C224.031 252.081 224.061 252.088 225.756 250.975C227.346 249.931 222.04 244.728 219.386 244.728C219.093 244.728 218.97 243.728 219.112 242.507C219.717 237.32 214.384 235.599 209.08 239.271ZM92.2186 243.478C91.237 246.552 89.3903 246.937 88.4972 244.254C88.3302 243.753 92.3445 240.362 93.1049 240.362C93.1653 240.362 92.7665 241.764 92.2186 243.478ZM215.131 241.342C216.43 242.642 216.368 243.223 214.761 244.831C213.413 246.18 213.413 246.18 211.96 244.363C210.166 242.12 210.164 241.963 211.903 241.123C213.808 240.204 214.006 240.217 215.131 241.342ZM100.494 250.394C95.8715 259.749 95.9937 259.301 97.8478 260.149C99.1629 260.752 99.4321 260.438 102.179 255.099C105.107 249.406 105.107 249.406 105.139 256.635C105.171 263.858 106.361 266.598 108.801 265.063C109.459 264.649 117.299 248.546 116.983 248.258C114.964 246.42 113.918 247.206 111.147 252.647C108.35 258.139 108.35 258.139 108.319 251.138C108.266 239.473 105.997 239.257 100.494 250.394ZM196.477 246.081C194.421 247.134 192.659 248.065 192.562 248.15C192.416 248.277 199.771 264.58 200.255 265.201C200.547 265.577 209.877 261.031 209.868 260.518C209.83 258.504 208.706 258.253 205.567 259.558C202.395 260.878 202.395 260.878 201.462 259.071C200.141 256.516 200.234 256.278 203.022 255.02C204.582 254.316 205.515 253.478 205.515 252.779C205.515 251.021 204.6 250.878 201.687 252.183C198.98 253.396 198.98 253.396 198.218 252.025C196.966 249.771 197.277 249.108 200.17 247.868C202.428 246.898 202.866 246.451 202.59 245.394C202.138 243.667 200.921 243.804 196.477 246.081ZM186.35 250.361C185.02 250.896 184.947 251.265 184.947 257.495C184.947 265.411 184.924 265.415 180.458 258.436C176.909 252.89 176.9 252.882 175.014 253.541C173.125 254.2 173.125 254.2 178.779 262.466C184.35 270.609 186.29 272.198 187.683 269.76C188.189 268.874 188.754 249.721 188.274 249.758C187.986 249.779 187.121 250.051 186.35 250.361ZM129.826 254.24C128.538 260.301 127.611 265.711 127.622 267.094C127.669 272.618 137.005 274.987 139.975 270.227C140.981 268.616 143.391 256.758 142.948 255.603C141.696 252.337 139.737 254.719 138.623 260.859C137.339 267.935 136.327 269.838 133.999 269.558C131.187 269.219 130.954 267.899 132.395 260.508C133.117 256.804 133.581 253.562 133.426 253.305C132.749 252.181 130.119 252.864 129.826 254.24ZM166.242 255.8C166.188 263.106 168.45 273.42 170.105 273.42C172.179 273.42 172.133 274.073 170.816 263.285C169.839 255.289 166.288 249.477 166.242 255.8ZM147.552 265C147.552 277.556 151.067 280.81 151.425 268.586C151.603 262.505 151.603 262.505 154.705 268.586C159.935 278.843 161.887 277.869 161.887 265C161.887 255.332 161.887 255.332 160.017 255.332C158.147 255.332 158.147 255.332 158.111 261.725C158.074 268.119 158.074 268.119 154.853 261.725C149.507 251.118 147.552 251.995 147.552 265Z" fill="currentColor" stroke="currentColor" stroke-width="2" mask="url(#path-1-inside-1_63_8)"/>
</svg>
